<svg width="1920" height="736" viewBox="0 0 1920 736" fill="none" xmlns="http://www.w3.org/2000/svg">
<path d="M960.351 735.292C883.194 735.292 784.179 706.034 666.045 648.298C522.97 578.403 356.939 541.473 185.838 541.473L0.0726316 541.473L0.0726318 537.182L185.838 537.182C271.217 537.182 355.98 546.414 437.865 564.684C519.475 582.889 596.974 609.742 668.169 644.462C785.686 701.873 884.016 730.936 960.419 730.936C1036.82 730.936 1135.15 701.808 1252.67 644.462C1323.86 609.677 1401.29 582.824 1482.97 564.684C1564.86 546.414 1649.62 537.182 1735 537.182L1920.77 537.182L1920.77 541.473L1735 541.473C1563.9 541.473 1397.87 578.403 1254.79 648.298C1136.66 706.034 1037.64 735.292 960.488 735.292L960.351 735.292Z" fill="#121212"/>
<path d="M960.35 665.92C885.729 665.92 789.866 638.092 675.57 583.152C537.085 516.573 376.331 481.398 210.711 481.398L30.9075 481.398L30.9075 477.497L210.711 477.497C293.281 477.497 375.371 486.274 454.584 503.699C533.59 520.994 608.554 546.611 677.42 579.706C791.168 634.386 886.346 662.084 960.35 662.084C1034.35 662.084 1129.53 634.386 1243.28 579.706C1312.15 546.611 1387.11 521.059 1466.12 503.699C1545.33 486.34 1627.42 477.497 1709.99 477.497L1889.79 477.497L1889.79 481.398L1709.99 481.398C1544.37 481.398 1383.62 516.573 1245.13 583.152C1130.77 638.092 1034.97 665.92 960.35 665.92Z" fill="#121212"/>
<path d="M960.349 596.541C888.195 596.541 795.62 570.078 685.093 517.934C551.131 454.671 395.722 421.252 235.584 421.252L61.7418 421.252L61.7418 417.806L235.584 417.806C396.27 417.806 552.296 451.355 686.738 514.813C796.785 566.762 888.811 593.095 960.418 593.095C1032.02 593.095 1124.05 566.762 1234.1 514.813C1368.54 451.355 1524.57 417.806 1685.25 417.806L1859.09 417.806L1859.09 421.252L1685.25 421.252C1525.11 421.252 1369.64 454.671 1235.74 517.934C1125.22 570.078 1032.57 596.541 960.486 596.541L960.349 596.541Z" fill="#121212"/>
<path d="M960.349 527.167C890.73 527.167 801.307 502.135 694.618 452.721C565.247 392.839 415.113 361.175 260.389 361.175L92.5081 361.175L92.5081 358.185L260.389 358.185C415.593 358.185 566.206 389.978 695.988 450.055C802.267 499.274 891.209 524.241 960.349 524.241C1029.49 524.241 1118.43 499.274 1224.71 450.055C1354.49 389.979 1505.17 358.185 1660.31 358.185L1828.19 358.185L1828.19 361.175L1660.31 361.175C1505.58 361.175 1355.45 392.839 1226.08 452.721C1119.39 502.135 1029.97 527.167 960.349 527.167Z" fill="#121212"/>
<path d="M960.35 457.796C893.198 457.796 806.996 434.13 704.143 387.511C579.363 330.946 434.506 301.037 285.264 301.037L123.344 301.037L123.344 298.437L285.264 298.437C434.917 298.437 580.186 328.41 705.308 385.171C807.818 431.659 893.677 455.195 960.35 455.195C1027.02 455.195 1112.88 431.659 1215.39 385.171C1340.58 328.41 1485.85 298.437 1635.44 298.437L1797.36 298.437L1797.36 301.037L1635.44 301.037C1486.19 301.037 1341.34 330.946 1216.56 387.511C1113.64 434.13 1027.43 457.796 960.35 457.796Z" fill="#121212"/>
<path d="M960.351 388.417C895.734 388.417 812.685 366.181 713.601 322.294C593.343 269.044 453.831 240.891 310.07 240.891L154.112 240.891L154.112 238.745L310.07 238.745C454.174 238.745 594.029 266.963 714.56 320.343C813.37 364.1 896.008 386.271 960.283 386.271C1024.56 386.271 1107.26 364.1 1206.01 320.343C1326.54 266.963 1466.39 238.745 1610.5 238.745L1766.45 238.745L1766.45 240.891L1610.5 240.891C1466.73 240.891 1327.15 269.044 1206.96 322.294C1107.88 366.181 1024.9 388.417 960.283 388.417L960.351 388.417Z" fill="#121212"/>
<path d="M960.352 319.046C898.202 319.046 818.441 298.175 723.126 257.084C607.46 207.15 473.224 180.753 334.876 180.753L184.88 180.753L184.88 178.997L334.876 178.997C473.429 178.997 607.939 205.46 723.88 255.459C818.921 296.485 898.476 317.291 960.352 317.291C1022.23 317.291 1101.78 296.485 1196.82 255.459C1312.76 205.46 1447.21 178.997 1585.83 178.997L1735.82 178.997L1735.82 180.753L1585.83 180.753C1447.55 180.753 1313.31 207.15 1197.58 257.084C1102.33 298.175 1022.5 319.046 960.352 319.046Z" fill="#121212"/>
<path d="M960.351 249.673C900.737 249.673 824.128 230.233 732.65 191.872C621.575 145.254 492.615 120.677 359.749 120.677L215.714 120.677L215.714 119.377L359.749 119.377C492.752 119.377 621.917 144.019 733.198 190.702C824.471 228.998 900.874 248.373 960.351 248.373C1019.83 248.373 1096.23 228.933 1187.5 190.702C1298.79 144.019 1427.88 119.377 1560.95 119.377L1704.99 119.377L1704.99 120.677L1560.95 120.677C1428.09 120.677 1299.2 145.319 1188.05 191.872C1096.57 230.233 1019.97 249.673 960.351 249.673Z" fill="#121212"/>
<path d="M960.351 180.294C903.203 180.294 829.815 162.219 742.174 126.654C635.621 83.4173 512.006 60.5308 384.622 60.5308L246.549 60.5308L246.549 59.6856L384.622 59.6856C512.143 59.6856 635.895 82.572 742.517 125.874C830.02 161.439 903.34 179.449 960.351 179.449C1017.36 179.449 1090.68 161.439 1178.18 125.874C1284.81 82.572 1408.56 59.6856 1536.08 59.6856L1674.15 59.6856L1674.15 60.5309L1536.08 60.5309C1408.7 60.5309 1285.08 83.4173 1178.53 126.654C1090.89 162.219 1017.5 180.294 960.351 180.294Z" fill="#121212"/>
<path d="M960.352 110.986C905.739 110.986 835.503 94.3415 751.7 61.5073C649.738 21.5861 531.399 0.455161 409.497 0.455155L277.385 0.45515L277.385 2.42428e-05L409.497 3.00153e-05C531.468 3.53447e-05 649.875 21.131 751.837 61.0521C835.64 93.8863 905.739 110.466 960.352 110.466C1014.96 110.466 1085.06 93.8213 1168.87 61.0521C1270.9 21.131 1389.24 7.2824e-05 1511.21 7.81534e-05L1643.32 8.39259e-05L1643.32 0.455209L1511.21 0.455204C1389.3 0.455198 1270.97 21.5861 1169 61.5073C1085.2 94.3415 1014.96 110.986 960.352 110.986Z" fill="#121212"/>
<path d="M960.348 110.728L962.678 733.147L958.087 733.147L960.348 110.728Z" fill="#121212"/>
<path d="M925.4 108.709L912.998 729.568L908.955 729.503L925.4 108.709Z" fill="#121212"/>
<path d="M890.387 103.38L863.457 720.078L859.825 719.948L890.387 103.38Z" fill="#121212"/>
<path d="M855.439 95.6417L814.189 706.293L810.968 706.033L855.439 95.6417Z" fill="#121212"/>
<path d="M803.568 80.3643L740.87 679.312L738.198 679.052L803.568 80.3643Z" fill="#121212"/>
<path d="M751.764 61.3097L668.234 646.538L665.973 646.278L751.764 61.3097Z" fill="#121212"/>
<path d="M669.193 34.0714L552.842 599.145L551.06 598.819L669.193 34.0714Z" fill="#121212"/>
<path d="M584.912 15.2765L434.505 566.176L433.203 565.851L584.912 15.2765Z" fill="#121212"/>
<path d="M498.436 4.03133L312.533 546.283L311.642 546.023L498.436 4.03133Z" fill="#121212"/>
<path d="M409.492 0.25985L186.039 539.456L185.628 539.261L409.492 0.25985Z" fill="#121212"/>
<path d="M0.000800402 539.326L277.381 0.25985L0.206367 539.391L0.000800402 539.326Z" fill="#121212"/>
<path d="M960.348 110.728L962.678 733.147L958.087 733.147L960.348 110.728Z" fill="#121212"/>
<path d="M995.365 108.71L1011.81 729.504L1007.7 729.569L995.365 108.71Z" fill="#121212"/>
<path d="M1030.31 103.382L1060.94 719.95L1057.31 720.08L1030.31 103.382Z" fill="#121212"/>
<path d="M1065.33 95.6427L1109.73 706.034L1106.58 706.294L1065.33 95.6427Z" fill="#121212"/>
<path d="M1117.13 80.3653L1182.57 679.053L1179.83 679.313L1117.13 80.3653Z" fill="#121212"/>
<path d="M1169 61.3116L1254.79 646.28L1252.53 646.54L1169 61.3116Z" fill="#121212"/>
<path d="M1251.5 34.0723L1369.71 598.82L1367.85 599.146L1251.5 34.0723Z" fill="#121212"/>
<path d="M1335.86 15.2774L1487.56 565.852L1486.26 566.177L1335.86 15.2774Z" fill="#121212"/>
<path d="M1422.26 4.0323L1609.05 546.024L1608.23 546.284L1422.26 4.0323Z" fill="#121212"/>
<path d="M1511.27 0.260816L1735.07 539.262L1734.66 539.457L1511.27 0.260816Z" fill="#121212"/>
<path d="M1920.56 539.392L1643.39 0.260814L1920.77 539.327L1920.56 539.392Z" fill="#121212"/>
</svg>
