<svg width="1920" height="1138" viewBox="0 0 1920 1138" fill="none" xmlns="http://www.w3.org/2000/svg">
<g opacity="0.16">
<path d="M2.31165 1137.82C1.05098 1137.82 0.000729462 1136.77 0.000729517 1135.51L0.000779051 2.31132C0.000779106 1.05065 1.05103 8.37698e-05 2.3117 8.38249e-05C3.57237 8.388e-05 4.62305 1.05065 4.62305 2.31132L4.623 1135.58C4.623 1136.84 3.57232 1137.89 2.31165 1137.89L2.31165 1137.82Z" fill="#2C2C2D"/>
<path d="M46.0846 24.0204L46.2949 568.91L46.1547 1113.8C46.1547 1114.92 45.2443 1115.83 44.1237 1115.83C43.0031 1115.83 42.0928 1114.92 42.0928 1113.8L41.8825 568.91L42.0228 24.0204C42.0228 22.8998 42.9331 21.9893 44.0537 21.9893C45.1743 21.9893 46.0846 22.8998 46.0846 24.0204Z" fill="#2C2C2D"/>
<path d="M87.5466 45.7364L87.9668 568.844L87.7564 1091.95C87.7564 1092.93 86.986 1093.7 86.0055 1093.7C85.025 1093.7 84.2546 1092.93 84.2546 1091.95L83.8344 568.844L84.0447 45.7364C84.0447 44.7558 84.8151 43.9854 85.7957 43.9854C86.7762 43.9854 87.5466 44.7558 87.5466 45.7364Z" fill="#2C2C2D"/>
<path d="M129.01 67.5139L129.36 318.177L129.57 568.84L129.57 819.503L129.29 1070.17C129.29 1071.01 128.66 1071.64 127.819 1071.64C126.979 1071.64 126.348 1071.01 126.348 1070.17L125.998 819.503L125.788 568.84L125.788 318.177L126.068 67.5139C126.068 66.6734 126.699 66.0431 127.539 66.0431C128.379 66.0431 129.01 66.6734 129.01 67.5139Z" fill="#2C2C2D"/>
<path d="M170.471 89.2246L170.822 209.128L170.962 329.032L171.242 568.839L171.242 808.647L171.102 928.551L170.892 1048.45C170.892 1049.15 170.331 1049.71 169.631 1049.71C168.931 1049.71 168.37 1049.15 168.37 1048.45L168.02 928.551L167.88 808.647L167.6 568.839L167.6 329.032L167.74 209.128L167.95 89.2246C167.95 88.5243 168.51 87.964 169.211 87.964C169.911 87.964 170.471 88.5243 170.471 89.2246Z" fill="#2C2C2D"/>
<path d="M212.004 111.011L212.354 225.451L212.564 339.892L212.914 568.774L212.914 797.655L212.774 912.096L212.564 1026.54C212.564 1027.1 212.074 1027.59 211.514 1027.59C210.953 1027.59 210.463 1027.1 210.463 1026.54L210.113 912.096L209.902 797.655L209.552 568.774L209.552 339.892L209.693 225.451L209.903 111.011C209.903 110.45 210.393 109.96 210.953 109.96C211.514 109.96 212.004 110.45 212.004 111.011Z" fill="#2C2C2D"/>
<path d="M253.536 132.721L253.956 241.699L254.166 350.677L254.586 568.703L254.586 786.729L254.446 895.707L254.166 1004.68C254.166 1005.1 253.816 1005.53 253.325 1005.53C252.905 1005.53 252.485 1005.17 252.485 1004.68L252.065 895.707L251.854 786.729L251.434 568.703L251.434 350.677L251.574 241.699L251.854 132.721C251.854 132.301 252.205 131.881 252.695 131.881C253.115 131.881 253.536 132.231 253.536 132.721Z" fill="#2C2C2D"/>
<path d="M295.137 154.432L295.627 258.017L295.838 361.602L296.258 568.702L296.258 775.802L296.118 879.387L295.838 982.972C295.838 983.323 295.557 983.603 295.207 983.603C294.857 983.603 294.577 983.323 294.577 982.972L294.087 879.387L293.876 775.802L293.456 568.702L293.456 361.602L293.596 258.017L293.876 154.432C293.876 154.082 294.157 153.802 294.507 153.802C294.857 153.802 295.137 154.082 295.137 154.432Z" fill="#2C2C2D"/>
<path d="M336.671 176.212L337.161 274.334L337.371 372.456L337.861 568.7L337.861 764.945L337.791 863.067L337.511 961.189C337.511 961.189 337.301 961.679 337.021 961.679C336.741 961.679 336.531 961.469 336.531 961.189L336.04 863.067L335.83 764.945L335.34 568.7L335.34 372.456L335.41 274.334L335.69 176.212C335.69 176.212 335.9 175.722 336.181 175.722C336.461 175.722 336.671 175.932 336.671 176.212Z" fill="#2C2C2D"/>
<path d="M378.273 197.925L378.762 290.584L379.043 383.243L379.533 568.631L379.533 754.02L379.533 846.679L379.253 939.338C379.253 939.338 379.113 939.688 378.903 939.688C378.693 939.688 378.553 939.548 378.553 939.338L378.062 846.679L377.782 754.02L377.292 568.631L377.292 383.243L377.292 290.584L377.572 197.925C377.572 197.925 377.712 197.574 377.922 197.574C378.132 197.574 378.273 197.714 378.273 197.925Z" fill="#2C2C2D"/>
<path d="M419.944 219.637L420.435 306.903L420.715 394.17L421.205 568.632L421.205 743.095L421.205 830.361L420.995 917.628C420.995 917.628 420.925 917.838 420.785 917.838C420.645 917.838 420.575 917.768 420.575 917.628L420.085 830.361L419.805 743.095L419.314 568.632L419.314 394.17L419.314 306.903L419.524 219.637C419.524 219.637 419.594 219.427 419.735 219.427C419.875 219.427 419.944 219.497 419.944 219.637Z" fill="#2C2C2D"/>
<path d="M461.544 241.419L462.035 323.223L462.315 405.026L462.875 568.633L462.875 732.24L462.875 814.044L462.665 895.847C462.665 895.847 462.665 895.987 462.525 895.987C462.455 895.987 462.385 895.987 462.385 895.847L461.895 814.044L461.614 732.24L461.054 568.633L461.054 405.026L461.054 323.223L461.264 241.419C461.264 241.419 461.264 241.279 461.404 241.279C461.475 241.279 461.544 241.279 461.544 241.419Z" fill="#2C2C2D"/>
<path d="M503.219 263.132L503.709 339.472L503.989 415.813L504.549 568.564L504.549 721.315L504.689 797.656L504.549 873.996L504.059 797.656L503.779 721.315L503.219 568.564L503.219 415.813L503.078 339.472L503.219 263.132Z" fill="#2C2C2D"/>
<path d="M544.89 284.908L545.381 355.786L545.661 426.734L546.151 568.559L546.291 710.384L546.361 781.332L546.291 852.21L545.801 781.332L545.52 710.384L544.96 568.559L544.82 426.734L544.75 355.786L544.89 284.908Z" fill="#2C2C2D"/>
<path d="M3.36285 0.213927L544.891 284.915L1.26184 4.34612L3.36285 0.213927Z" fill="#2C2C2D"/>
<path d="M3.22302 126.068L545.031 347.946L1.47211 130.341L3.22302 126.068Z" fill="#2C2C2D"/>
<path d="M2.94196 251.856L545.17 410.98L1.68134 256.338L2.94196 251.856Z" fill="#2C2C2D"/>
<path d="M2.7323 377.718L545.381 474.019L1.89191 382.34L2.7323 377.718Z" fill="#2C2C2D"/>
<path d="M2.45123 503.641L545.52 537.048L2.1712 508.263L2.45123 503.641Z" fill="#2C2C2D"/>
<path d="M2.17157 629.571L545.66 600.085L2.45154 634.193L2.17157 629.571Z" fill="#2C2C2D"/>
<path d="M1.88964 755.497L545.799 663.118L2.73004 760.05L1.88964 755.497Z" fill="#2C2C2D"/>
<path d="M1.68212 881.495L545.941 726.152L2.94274 885.907L1.68212 881.495Z" fill="#2C2C2D"/>
<path d="M1.47088 1007.49L546.15 789.186L3.22179 1011.76L1.47088 1007.49Z" fill="#2C2C2D"/>
<path d="M1.2614 1133.49L546.291 852.22L3.36241 1137.62L1.2614 1133.49Z" fill="#2C2C2D"/>
<path d="M386.396 1137.82C385.135 1137.82 384.084 1136.77 384.084 1135.51L384.084 2.31132C384.084 1.05065 385.135 8.37698e-05 386.396 8.38249e-05C387.656 8.388e-05 388.707 1.05065 388.707 2.31132L388.707 1135.58C388.707 1136.84 387.656 1137.89 386.396 1137.89L386.396 1137.82Z" fill="#2C2C2D"/>
<path d="M413.22 24.0204L413.43 568.91L413.29 1113.8C413.29 1114.92 412.379 1115.83 411.259 1115.83C410.138 1115.83 409.228 1114.92 409.228 1113.8L409.017 568.91L409.158 24.0204C409.158 22.8998 410.068 21.9893 411.188 21.9893C412.309 21.9893 413.22 22.8998 413.22 24.0204Z" fill="#2C2C2D"/>
<path d="M437.804 45.7364L438.154 568.844L437.874 1091.95C437.874 1092.93 437.103 1093.7 436.123 1093.7C435.142 1093.7 434.372 1092.93 434.372 1091.95L434.022 568.844L434.302 45.7364C434.302 44.7558 435.073 43.9854 436.053 43.9854C437.034 43.9854 437.804 44.7558 437.804 45.7364Z" fill="#2C2C2D"/>
<path d="M462.385 67.5139L462.735 318.177L462.945 568.84L462.945 819.503L462.595 1070.17C462.595 1071.01 461.965 1071.64 461.124 1071.64C460.284 1071.64 459.654 1071.01 459.654 1070.17L459.303 819.503L459.093 568.84L459.093 318.177L459.443 67.5139C459.443 66.6734 460.074 66.0431 460.914 66.0431C461.755 66.0431 462.385 66.6734 462.385 67.5139Z" fill="#2C2C2D"/>
<path d="M486.969 89.2246L487.25 209.128L487.389 329.032L487.67 568.839L487.53 808.647L487.53 928.551L487.25 1048.45C487.25 1049.15 486.689 1049.71 485.989 1049.71C485.288 1049.71 484.728 1049.15 484.728 1048.45L484.448 928.551L484.308 808.647L484.028 568.839L484.168 329.032L484.168 209.128L484.448 89.2246C484.448 88.5243 485.008 87.964 485.709 87.964C486.409 87.964 486.969 88.5243 486.969 89.2246Z" fill="#2C2C2D"/>
<path d="M511.552 111.011L511.902 225.451L512.042 339.892L512.322 568.774L512.182 797.655L512.182 912.096L511.832 1026.54C511.832 1027.1 511.342 1027.59 510.782 1027.59C510.221 1027.59 509.731 1027.1 509.731 1026.54L509.381 912.096L509.241 797.655L508.961 568.774L509.101 339.892L509.101 225.451L509.451 111.011C509.451 110.45 509.941 109.96 510.501 109.96C511.062 109.96 511.552 110.45 511.552 111.011Z" fill="#2C2C2D"/>
<path d="M536.205 132.721L536.625 241.699L536.765 350.677L537.115 568.703L536.975 786.729L536.975 895.707L536.625 1004.68C536.625 1005.1 536.275 1005.53 535.784 1005.53C535.364 1005.53 534.944 1005.17 534.944 1004.68L534.524 895.707L534.384 786.729L534.034 568.703L534.173 350.677L534.173 241.699L534.524 132.721C534.524 132.301 534.874 131.881 535.364 131.881C535.785 131.881 536.205 132.231 536.205 132.721Z" fill="#2C2C2D"/>
<path d="M560.859 154.432L561.279 258.017L561.49 361.602L561.84 568.702L561.7 775.802L561.7 879.387L561.279 982.972C561.279 983.323 560.999 983.603 560.649 983.603C560.299 983.603 560.019 983.323 560.019 982.972L559.599 879.387L559.389 775.802L559.039 568.702L559.178 361.602L559.178 258.017L559.599 154.432C559.599 154.082 559.879 153.802 560.229 153.802C560.579 153.802 560.859 154.082 560.859 154.432Z" fill="#2C2C2D"/>
<path d="M585.512 176.212L585.932 274.334L586.142 372.456L586.562 568.7L586.422 764.945L586.422 863.067L586.002 961.189C586.002 961.469 585.792 961.679 585.512 961.679C585.232 961.679 585.021 961.469 585.021 961.189L584.601 863.067L584.391 764.945L583.971 568.7L584.111 372.456L584.111 274.334L584.531 176.212C584.531 175.932 584.741 175.722 585.021 175.722C585.302 175.722 585.512 175.932 585.512 176.212Z" fill="#2C2C2D"/>
<path d="M610.235 197.925L610.655 290.584L610.865 383.243L611.285 568.631L611.145 754.02L611.145 846.679L610.795 939.338C610.795 939.548 610.655 939.688 610.445 939.688C610.235 939.688 610.095 939.548 610.095 939.338L609.674 846.679L609.464 754.02L609.044 568.631L609.184 383.243L609.184 290.584L609.534 197.925C609.534 197.714 609.674 197.574 609.884 197.574C610.094 197.574 610.235 197.714 610.235 197.925Z" fill="#2C2C2D"/>
<path d="M634.959 219.637L635.379 306.903L635.59 394.17L636.01 568.632L636.01 743.095L635.87 830.361L635.59 917.628C635.59 917.628 635.519 917.838 635.379 917.838C635.239 917.838 635.169 917.768 635.169 917.628L634.749 830.361L634.539 743.095L634.119 568.632L634.119 394.17L634.259 306.903L634.539 219.637C634.539 219.637 634.609 219.427 634.749 219.427C634.889 219.427 634.959 219.497 634.959 219.637Z" fill="#2C2C2D"/>
<path d="M659.682 241.419L660.102 323.223L660.312 405.026L660.732 568.633L660.732 732.24L660.593 814.044L660.312 895.847C660.312 895.847 660.312 895.987 660.172 895.987C660.102 895.987 660.032 895.987 660.032 895.847L659.612 814.044L659.402 732.24L658.981 568.633L658.981 405.026L659.122 323.223L659.402 241.419C659.402 241.419 659.402 241.279 659.542 241.279C659.612 241.279 659.682 241.279 659.682 241.419Z" fill="#2C2C2D"/>
<path d="M684.475 263.132L684.895 339.472L685.105 415.813L685.525 568.564L685.525 721.315L685.525 797.656L685.315 873.996L684.895 797.656L684.685 721.315L684.265 568.564L684.265 415.813L684.265 339.472L684.475 263.132Z" fill="#2C2C2D"/>
<path d="M709.198 284.908L709.618 355.786L709.828 426.734L710.248 568.559L710.248 710.384L710.248 781.332L710.038 852.21L709.688 781.332L709.478 710.384L709.058 568.559L709.058 426.734L709.058 355.786L709.198 284.908Z" fill="#2C2C2D"/>
<path d="M387.934 0.563546L709.195 284.915L384.853 4.06541L387.934 0.563546Z" fill="#2C2C2D"/>
<path d="M387.725 126.281L709.336 347.949L385.064 130.133L387.725 126.281Z" fill="#2C2C2D"/>
<path d="M387.445 252L709.406 410.985L385.414 256.202L387.445 252Z" fill="#2C2C2D"/>
<path d="M387.025 377.786L709.477 474.017L385.764 382.269L387.025 377.786Z" fill="#2C2C2D"/>
<path d="M386.606 503.642L709.617 537.049L386.185 508.264L386.606 503.642Z" fill="#2C2C2D"/>
<path d="M386.184 629.565L709.686 600.079L386.604 634.187L386.184 629.565Z" fill="#2C2C2D"/>
<path d="M385.764 755.561L709.756 663.112L387.025 760.044L385.764 755.561Z" fill="#2C2C2D"/>
<path d="M385.344 881.628L709.896 726.146L387.445 885.76L385.344 881.628Z" fill="#2C2C2D"/>
<path d="M385.064 1007.69L709.967 789.179L387.726 1011.55L385.064 1007.69Z" fill="#2C2C2D"/>
<path d="M384.854 1133.76L710.037 852.213L387.936 1137.26L384.854 1133.76Z" fill="#2C2C2D"/>
<path d="M770.48 1137.82C769.219 1137.82 768.169 1136.77 768.169 1135.51L768.169 2.31132C768.169 1.05065 769.219 8.37698e-05 770.48 8.38249e-05C771.741 8.388e-05 772.791 1.05065 772.791 2.31132L772.791 1135.58C772.791 1136.84 771.741 1137.89 770.48 1137.89L770.48 1137.82Z" fill="#2C2C2D"/>
<path d="M780.425 24.0204L780.635 568.91L780.495 1113.8C780.495 1114.92 779.584 1115.83 778.464 1115.83C777.343 1115.83 776.433 1114.92 776.433 1113.8L776.222 568.91L776.363 24.0204C776.363 22.8998 777.273 21.9893 778.394 21.9893C779.514 21.9893 780.425 22.8998 780.425 24.0204Z" fill="#2C2C2D"/>
<path d="M788.058 45.7364L788.408 568.844L788.128 1091.95C788.128 1092.93 787.358 1093.7 786.377 1093.7C785.396 1093.7 784.626 1092.93 784.626 1091.95L784.276 568.844L784.556 45.7364C784.556 44.7558 785.327 43.9854 786.307 43.9854C787.288 43.9854 788.058 44.7558 788.058 45.7364Z" fill="#2C2C2D"/>
<path d="M795.763 67.5139L796.043 318.177L796.184 568.84L796.043 819.503L795.763 1070.17C795.763 1071.01 795.133 1071.64 794.292 1071.64C793.452 1071.64 792.822 1071.01 792.822 1070.17L792.541 819.503L792.402 568.84L792.542 318.177L792.822 67.5139C792.822 66.6734 793.452 66.0431 794.292 66.0431C795.133 66.0431 795.763 66.6734 795.763 67.5139Z" fill="#2C2C2D"/>
<path d="M803.467 89.2246L803.747 209.128L803.887 329.032L804.098 568.839L803.957 808.647L803.957 928.551L803.607 1048.45C803.607 1049.15 803.047 1049.71 802.347 1049.71C801.646 1049.71 801.086 1049.15 801.086 1048.45L800.806 928.551L800.666 808.647L800.456 568.839L800.596 329.032L800.596 209.128L800.946 89.2246C800.946 88.5243 801.506 87.964 802.207 87.964C802.907 87.964 803.467 88.5243 803.467 89.2246Z" fill="#2C2C2D"/>
<path d="M811.171 111.011L811.521 225.451L811.661 339.892L811.871 568.774L811.661 797.655L811.661 912.096L811.241 1026.54C811.241 1027.1 810.751 1027.59 810.19 1027.59C809.63 1027.59 809.139 1027.1 809.139 1026.54L808.789 912.096L808.649 797.655L808.439 568.774L808.649 339.892L808.649 225.451L809.07 111.011C809.07 110.45 809.56 109.96 810.12 109.96C810.68 109.96 811.171 110.45 811.171 111.011Z" fill="#2C2C2D"/>
<path d="M818.874 132.722L819.224 241.7L819.365 350.678L819.645 568.704L819.434 786.73L819.294 895.708L818.944 1004.69C818.944 1005.11 818.594 1005.53 818.104 1005.53C817.684 1005.53 817.263 1005.18 817.263 1004.69L816.913 895.708L816.773 786.73L816.493 568.704L816.703 350.678L816.843 241.7L817.193 132.722C817.193 132.302 817.544 131.882 818.034 131.882C818.454 131.882 818.874 132.232 818.874 132.722Z" fill="#2C2C2D"/>
<path d="M826.649 154.433L827 258.018L827.14 361.603L827.42 568.703L827.21 775.803L827.07 879.388L826.719 982.973C826.719 983.324 826.439 983.604 826.089 983.604C825.739 983.604 825.459 983.324 825.459 982.973L825.109 879.388L824.969 775.803L824.688 568.703L824.898 361.603L825.039 258.018L825.389 154.433C825.389 154.083 825.669 153.803 826.019 153.803C826.369 153.803 826.649 154.083 826.649 154.433Z" fill="#2C2C2D"/>
<path d="M834.423 176.214L834.843 274.336L834.983 372.458L835.264 568.702L835.054 764.947L834.914 863.069L834.563 961.191C834.563 961.191 834.353 961.681 834.073 961.681C833.793 961.681 833.583 961.471 833.583 961.191L833.163 863.069L833.022 764.947L832.742 568.702L832.953 372.458L833.093 274.336L833.443 176.214C833.443 176.214 833.653 175.724 833.933 175.724C834.213 175.724 834.423 175.934 834.423 176.214Z" fill="#2C2C2D"/>
<path d="M842.196 197.926L842.617 290.586L842.757 383.245L843.037 568.633L842.827 754.022L842.687 846.681L842.337 939.34C842.337 939.34 842.196 939.69 841.986 939.69C841.776 939.69 841.636 939.55 841.636 939.34L841.216 846.681L841.076 754.022L840.796 568.633L841.006 383.245L841.146 290.586L841.496 197.926C841.496 197.926 841.636 197.576 841.846 197.576C842.056 197.576 842.196 197.716 842.196 197.926Z" fill="#2C2C2D"/>
<path d="M849.972 219.639L850.392 306.905L850.532 394.172L850.812 568.634L850.602 743.097L850.462 830.363L850.112 917.63C850.112 917.63 850.042 917.84 849.902 917.84C849.762 917.84 849.692 917.77 849.692 917.63L849.272 830.363L849.132 743.097L848.851 568.634L849.062 394.172L849.202 306.905L849.552 219.639C849.552 219.639 849.622 219.429 849.762 219.429C849.902 219.429 849.972 219.499 849.972 219.639Z" fill="#2C2C2D"/>
<path d="M857.815 241.421L858.166 323.225L858.306 405.028L858.586 568.635L858.376 732.242L858.376 814.046L857.955 895.849C857.955 895.919 857.955 895.989 857.815 895.989C857.745 895.989 857.675 895.989 857.675 895.849L857.325 814.046L857.185 732.242L856.905 568.635L857.115 405.028L857.115 323.225L857.535 241.421C857.535 241.351 857.535 241.281 857.675 241.281C857.745 241.281 857.815 241.281 857.815 241.421Z" fill="#2C2C2D"/>
<path d="M865.661 263.134L866.011 339.474L866.151 415.815L866.432 568.566L866.291 721.317L866.291 797.658L865.941 873.998L865.591 797.658L865.451 721.317L865.171 568.566L865.311 415.815L865.311 339.474L865.661 263.134Z" fill="#2C2C2D"/>
<path d="M873.575 284.911L873.855 355.789L873.995 426.737L874.275 568.562L874.135 710.387L874.065 781.335L873.855 852.213L873.505 781.335L873.365 710.387L873.085 568.562L873.225 426.737L873.295 355.789L873.575 284.911Z" fill="#2C2C2D"/>
<path d="M772.653 1.47371L873.576 284.914L768.31 3.08456L772.653 1.47371Z" fill="#2C2C2D"/>
<path d="M772.583 127.191L873.576 347.949L768.38 129.223L772.583 127.191Z" fill="#2C2C2D"/>
<path d="M772.441 252.835L873.645 410.979L768.519 255.426L772.441 252.835Z" fill="#2C2C2D"/>
<path d="M772.02 378.341L873.645 474.012L768.939 381.773L772.02 378.341Z" fill="#2C2C2D"/>
<path d="M771.18 503.71L873.645 537.048L769.779 508.192L771.18 503.71Z" fill="#2C2C2D"/>
<path d="M769.78 629.636L873.715 600.08L771.18 634.118L769.78 629.636Z" fill="#2C2C2D"/>
<path d="M768.939 756.053L873.715 663.113L772.021 759.485L768.939 756.053Z" fill="#2C2C2D"/>
<path d="M768.519 882.4L873.785 726.147L772.441 884.991L768.519 882.4Z" fill="#2C2C2D"/>
<path d="M768.379 1008.61L873.785 789.18L772.582 1010.57L768.379 1008.61Z" fill="#2C2C2D"/>
<path d="M768.31 1134.74L873.855 852.214L772.652 1136.35L768.31 1134.74Z" fill="#2C2C2D"/>
<path d="M1917.69 1137.82C1916.43 1137.82 1915.38 1136.77 1915.38 1135.51L1915.38 2.31132C1915.38 1.05065 1916.43 8.37698e-05 1917.69 8.38249e-05C1918.95 8.388e-05 1920 1.05065 1920 2.31132L1920 1135.58C1920 1136.84 1918.95 1137.89 1917.69 1137.89L1917.69 1137.82Z" fill="#2C2C2D"/>
<path d="M1877.98 24.0204L1878.12 568.91L1877.91 1113.8C1877.91 1114.92 1877 1115.83 1875.88 1115.83C1874.76 1115.83 1873.85 1114.92 1873.85 1113.8L1873.71 568.91L1873.92 24.0204C1873.92 22.8998 1874.83 21.9893 1875.95 21.9893C1877.07 21.9893 1877.98 22.8998 1877.98 24.0204Z" fill="#2C2C2D"/>
<path d="M1835.96 45.7364L1836.17 568.844L1835.75 1091.95C1835.75 1092.93 1834.98 1093.7 1834 1093.7C1833.02 1093.7 1832.25 1092.93 1832.25 1091.95L1832.04 568.844L1832.46 45.7364C1832.46 44.7558 1833.23 43.9854 1834.21 43.9854C1835.19 43.9854 1835.96 44.7558 1835.96 45.7364Z" fill="#2C2C2D"/>
<path d="M1794 67.5139L1794.21 318.177L1794.21 568.84L1794.07 819.503L1793.72 1070.17C1793.72 1071.01 1793.09 1071.64 1792.25 1071.64C1791.41 1071.64 1790.78 1071.01 1790.78 1070.17L1790.57 819.503L1790.57 568.84L1790.71 318.177L1791.06 67.5139C1791.06 66.6734 1791.69 66.0431 1792.53 66.0431C1793.37 66.0431 1794 66.6734 1794 67.5139Z" fill="#2C2C2D"/>
<path d="M1751.98 89.2246L1752.19 209.128L1752.19 329.032L1752.33 568.839L1752.05 808.647L1751.91 928.551L1751.56 1048.45C1751.56 1049.15 1751 1049.71 1750.3 1049.71C1749.6 1049.71 1749.04 1049.15 1749.04 1048.45L1748.83 928.551L1748.83 808.647L1748.69 568.839L1748.97 329.032L1749.11 209.128L1749.46 89.2246C1749.46 88.5243 1750.02 87.964 1750.72 87.964C1751.42 87.964 1751.98 88.5243 1751.98 89.2246Z" fill="#2C2C2D"/>
<path d="M1710.03 111.011L1710.24 225.451L1710.24 339.892L1710.38 568.774L1710.03 797.655L1709.82 912.096L1709.47 1026.54C1709.47 1027.1 1708.98 1027.59 1708.42 1027.59C1707.86 1027.59 1707.37 1027.1 1707.37 1026.54L1707.16 912.096L1707.16 797.655L1707.02 568.774L1707.37 339.892L1707.58 225.451L1707.93 111.011C1707.93 110.45 1708.42 109.96 1708.98 109.96C1709.54 109.96 1710.03 110.45 1710.03 111.011Z" fill="#2C2C2D"/>
<path d="M1668.15 132.721L1668.43 241.699L1668.43 350.677L1668.57 568.703L1668.15 786.729L1667.94 895.707L1667.52 1004.68C1667.52 1005.1 1667.17 1005.53 1666.68 1005.53C1666.26 1005.53 1665.84 1005.17 1665.84 1004.68L1665.56 895.707L1665.56 786.729L1665.42 568.703L1665.84 350.677L1666.05 241.699L1666.47 132.721C1666.47 132.301 1666.82 131.881 1667.31 131.881C1667.73 131.881 1668.15 132.231 1668.15 132.721Z" fill="#2C2C2D"/>
<path d="M1626.2 154.432L1626.48 258.017L1626.48 361.602L1626.62 568.702L1626.2 775.802L1625.98 879.387L1625.49 982.972C1625.49 983.323 1625.21 983.603 1624.86 983.603C1624.51 983.603 1624.23 983.323 1624.23 982.972L1623.95 879.387L1623.95 775.802L1623.81 568.702L1624.23 361.602L1624.44 258.017L1624.93 154.432C1624.93 154.082 1625.21 153.802 1625.56 153.802C1625.91 153.802 1626.2 154.082 1626.2 154.432Z" fill="#2C2C2D"/>
<path d="M1584.31 176.213L1584.59 274.335L1584.59 372.457L1584.66 568.701L1584.17 764.946L1583.96 863.068L1583.47 961.19C1583.47 961.19 1583.26 961.68 1582.98 961.68C1582.7 961.68 1582.49 961.47 1582.49 961.19L1582.21 863.068L1582.21 764.946L1582.14 568.701L1582.63 372.457L1582.84 274.335L1583.33 176.213C1583.33 176.213 1583.54 175.723 1583.82 175.723C1584.1 175.723 1584.31 175.933 1584.31 176.213Z" fill="#2C2C2D"/>
<path d="M1542.43 197.925L1542.71 290.585L1542.71 383.244L1542.71 568.632L1542.22 754.021L1541.94 846.68L1541.45 939.339C1541.45 939.339 1541.31 939.689 1541.1 939.689C1540.89 939.689 1540.75 939.549 1540.75 939.339L1540.47 846.68L1540.47 754.021L1540.47 568.632L1540.96 383.244L1541.24 290.585L1541.73 197.925C1541.73 197.925 1541.87 197.575 1542.08 197.575C1542.29 197.575 1542.43 197.715 1542.43 197.925Z" fill="#2C2C2D"/>
<path d="M1500.62 219.637L1500.83 306.903L1500.83 394.17L1500.83 568.632L1500.34 743.095L1500.06 830.361L1499.57 917.628C1499.57 917.628 1499.5 917.838 1499.36 917.838C1499.22 917.838 1499.15 917.768 1499.15 917.628L1498.94 830.361L1498.94 743.095L1498.94 568.632L1499.43 394.17L1499.71 306.903L1500.2 219.637C1500.2 219.637 1500.27 219.427 1500.41 219.427C1500.55 219.427 1500.62 219.497 1500.62 219.637Z" fill="#2C2C2D"/>
<path d="M1458.74 241.419L1458.95 323.223L1458.95 405.026L1458.95 568.633L1458.39 732.24L1458.11 814.044L1457.62 895.847C1457.62 895.847 1457.62 895.987 1457.48 895.987C1457.41 895.987 1457.34 895.987 1457.34 895.847L1457.13 814.044L1457.13 732.24L1457.13 568.633L1457.69 405.026L1457.97 323.223L1458.46 241.419C1458.46 241.419 1458.46 241.279 1458.6 241.279C1458.67 241.279 1458.74 241.279 1458.74 241.419Z" fill="#2C2C2D"/>
<path d="M1416.92 263.132L1417.06 339.472L1417.06 415.813L1416.92 568.564L1416.36 721.315L1416.08 797.656L1415.59 873.996L1415.45 797.656L1415.45 721.315L1415.59 568.564L1416.15 415.813L1416.43 339.472L1416.92 263.132Z" fill="#2C2C2D"/>
<path d="M1375.11 284.909L1375.25 355.787L1375.18 426.735L1375.04 568.56L1374.48 710.385L1374.2 781.333L1373.78 852.211L1373.64 781.333L1373.71 710.385L1373.85 568.56L1374.41 426.735L1374.69 355.787L1375.11 284.909Z" fill="#2C2C2D"/>
<path d="M1918.81 4.34615L1375.11 284.915L1916.64 0.213951L1918.81 4.34615Z" fill="#2C2C2D"/>
<path d="M1918.6 130.342L1374.97 347.947L1916.85 126.069L1918.6 130.342Z" fill="#2C2C2D"/>
<path d="M1918.39 256.338L1374.83 410.98L1917.06 251.856L1918.39 256.338Z" fill="#2C2C2D"/>
<path d="M1918.11 382.34L1374.69 474.019L1917.34 377.718L1918.11 382.34Z" fill="#2C2C2D"/>
<path d="M1917.83 508.263L1374.55 537.048L1917.62 503.641L1917.83 508.263Z" fill="#2C2C2D"/>
<path d="M1917.62 634.194L1374.41 600.086L1917.83 629.572L1917.62 634.194Z" fill="#2C2C2D"/>
<path d="M1917.34 760.051L1374.2 663.119L1918.11 755.498L1917.34 760.051Z" fill="#2C2C2D"/>
<path d="M1917.06 885.907L1374.06 726.152L1918.39 881.495L1917.06 885.907Z" fill="#2C2C2D"/>
<path d="M1916.85 1011.76L1373.92 789.187L1918.6 1007.49L1916.85 1011.76Z" fill="#2C2C2D"/>
<path d="M1916.64 1137.62L1373.78 852.22L1918.81 1133.49L1916.64 1137.62Z" fill="#2C2C2D"/>
<path d="M1533.68 1137.82C1532.42 1137.82 1531.37 1136.77 1531.37 1135.51L1531.37 2.31132C1531.37 1.05065 1532.42 8.37698e-05 1533.68 8.38249e-05C1534.94 8.388e-05 1535.99 1.05065 1535.99 2.31132L1535.99 1135.58C1535.99 1136.84 1534.94 1137.89 1533.68 1137.89L1533.68 1137.82Z" fill="#2C2C2D"/>
<path d="M1510.84 24.0204L1510.98 568.91L1510.77 1113.8C1510.77 1114.92 1509.86 1115.83 1508.74 1115.83C1507.62 1115.83 1506.71 1114.92 1506.71 1113.8L1506.57 568.91L1506.78 24.0204C1506.78 22.8998 1507.69 21.9893 1508.81 21.9893C1509.93 21.9893 1510.84 22.8998 1510.84 24.0204Z" fill="#2C2C2D"/>
<path d="M1485.7 45.7364L1485.98 568.844L1485.63 1091.95C1485.63 1092.93 1484.86 1093.7 1483.88 1093.7C1482.9 1093.7 1482.13 1092.93 1482.13 1091.95L1481.85 568.844L1482.2 45.7364C1482.2 44.7558 1482.97 43.9854 1483.95 43.9854C1484.93 43.9854 1485.7 44.7558 1485.7 45.7364Z" fill="#2C2C2D"/>
<path d="M1460.63 67.5139L1460.91 318.177L1460.91 568.84L1460.84 819.503L1460.49 1070.17C1460.49 1071.01 1459.86 1071.64 1459.02 1071.64C1458.18 1071.64 1457.55 1071.01 1457.55 1070.17L1457.27 819.503L1457.27 568.84L1457.34 318.177L1457.69 67.5139C1457.69 66.6734 1458.32 66.0431 1459.16 66.0431C1460 66.0431 1460.63 66.6734 1460.63 67.5139Z" fill="#2C2C2D"/>
<path d="M1435.55 89.2246L1435.76 209.128L1435.76 329.032L1435.97 568.839L1435.69 808.647L1435.55 928.551L1435.27 1048.45C1435.27 1049.15 1434.71 1049.71 1434.01 1049.71C1433.31 1049.71 1432.75 1049.15 1432.75 1048.45L1432.54 928.551L1432.54 808.647L1432.33 568.839L1432.61 329.032L1432.75 209.128L1433.03 89.2246C1433.03 88.5243 1433.59 87.964 1434.29 87.964C1434.99 87.964 1435.55 88.5243 1435.55 89.2246Z" fill="#2C2C2D"/>
<path d="M1410.48 111.011L1410.76 225.451L1410.76 339.892L1410.97 568.774L1410.69 797.655L1410.55 912.096L1410.2 1026.54C1410.2 1027.1 1409.71 1027.59 1409.15 1027.59C1408.59 1027.59 1408.1 1027.1 1408.1 1026.54L1407.82 912.096L1407.82 797.655L1407.61 568.774L1407.89 339.892L1408.03 225.451L1408.38 111.011C1408.38 110.45 1408.87 109.96 1409.43 109.96C1409.99 109.96 1410.48 110.45 1410.48 111.011Z" fill="#2C2C2D"/>
<path d="M1385.48 132.721L1385.76 241.699L1385.76 350.677L1385.97 568.703L1385.62 786.729L1385.48 895.707L1385.06 1004.68C1385.06 1005.1 1384.71 1005.53 1384.22 1005.53C1383.8 1005.53 1383.38 1005.17 1383.38 1004.68L1383.1 895.707L1383.1 786.729L1382.89 568.703L1383.24 350.677L1383.38 241.699L1383.8 132.721C1383.8 132.301 1384.15 131.881 1384.64 131.881C1385.06 131.881 1385.48 132.231 1385.48 132.721Z" fill="#2C2C2D"/>
<path d="M1360.47 154.432L1360.75 258.017L1360.75 361.602L1360.96 568.702L1360.61 775.802L1360.4 879.387L1359.98 982.972C1359.98 983.323 1359.7 983.603 1359.35 983.603C1359 983.603 1358.72 983.323 1358.72 982.972L1358.44 879.387L1358.44 775.802L1358.23 568.702L1358.58 361.602L1358.79 258.017L1359.21 154.432C1359.21 154.082 1359.49 153.802 1359.84 153.802C1360.19 153.802 1360.47 154.082 1360.47 154.432Z" fill="#2C2C2D"/>
<path d="M1335.47 176.212L1335.75 274.334L1335.75 372.456L1335.96 568.7L1335.54 764.945L1335.33 863.067L1334.91 961.189C1334.91 961.189 1334.7 961.679 1334.42 961.679C1334.14 961.679 1333.93 961.469 1333.93 961.189L1333.65 863.067L1333.65 764.945L1333.44 568.7L1333.86 372.456L1334.07 274.334L1334.49 176.212C1334.49 176.212 1334.7 175.722 1334.98 175.722C1335.26 175.722 1335.47 175.932 1335.47 176.212Z" fill="#2C2C2D"/>
<path d="M1310.47 197.925L1310.75 290.584L1310.75 383.243L1310.96 568.631L1310.54 754.02L1310.33 846.679L1309.91 939.338C1309.91 939.338 1309.77 939.688 1309.56 939.688C1309.35 939.688 1309.21 939.548 1309.21 939.338L1308.93 846.679L1308.93 754.02L1308.72 568.631L1309.14 383.243L1309.35 290.584L1309.77 197.925C1309.77 197.925 1309.91 197.574 1310.12 197.574C1310.33 197.574 1310.47 197.714 1310.47 197.925Z" fill="#2C2C2D"/>
<path d="M1285.53 219.637L1285.82 306.903L1285.82 394.17L1285.96 568.632L1285.53 743.095L1285.32 830.361L1284.9 917.628C1284.9 917.628 1284.83 917.838 1284.69 917.838C1284.55 917.838 1284.48 917.768 1284.48 917.628L1284.2 830.361L1284.2 743.095L1284.06 568.632L1284.48 394.17L1284.69 306.903L1285.11 219.637C1285.11 219.637 1285.18 219.427 1285.32 219.427C1285.46 219.427 1285.53 219.497 1285.53 219.637Z" fill="#2C2C2D"/>
<path d="M1260.6 241.42L1260.88 323.224L1260.88 405.027L1261.02 568.634L1260.6 732.241L1260.39 814.045L1259.97 895.848C1259.97 895.848 1259.97 895.988 1259.83 895.988C1259.76 895.988 1259.69 895.988 1259.69 895.848L1259.41 814.045L1259.41 732.241L1259.27 568.634L1259.69 405.027L1259.9 323.224L1260.32 241.42C1260.32 241.42 1260.32 241.28 1260.46 241.28C1260.53 241.28 1260.6 241.28 1260.6 241.42Z" fill="#2C2C2D"/>
<path d="M1235.67 263.132L1235.88 339.472L1235.88 415.813L1235.88 568.564L1235.46 721.315L1235.25 797.656L1234.83 873.996L1234.62 797.656L1234.62 721.315L1234.62 568.564L1235.04 415.813L1235.25 339.472L1235.67 263.132Z" fill="#2C2C2D"/>
<path d="M1210.81 284.909L1211.02 355.787L1211.02 426.735L1211.02 568.56L1210.6 710.385L1210.39 781.333L1209.97 852.211L1209.83 781.333L1209.83 710.385L1209.83 568.56L1210.25 426.735L1210.46 355.787L1210.81 284.909Z" fill="#2C2C2D"/>
<path d="M1535.15 4.0664L1210.81 284.916L1532.14 0.564537L1535.15 4.0664Z" fill="#2C2C2D"/>
<path d="M1534.94 130.134L1210.74 347.95L1532.35 126.282L1534.94 130.134Z" fill="#2C2C2D"/>
<path d="M1534.66 256.203L1210.67 410.985L1532.63 252.001L1534.66 256.203Z" fill="#2C2C2D"/>
<path d="M1534.31 382.27L1210.53 474.018L1532.98 377.787L1534.31 382.27Z" fill="#2C2C2D"/>
<path d="M1533.89 508.264L1210.46 537.049L1533.4 503.642L1533.89 508.264Z" fill="#2C2C2D"/>
<path d="M1533.4 634.188L1210.39 600.08L1533.89 629.566L1533.4 634.188Z" fill="#2C2C2D"/>
<path d="M1532.98 760.045L1210.25 663.113L1534.31 755.562L1532.98 760.045Z" fill="#2C2C2D"/>
<path d="M1532.63 885.761L1210.18 726.147L1534.66 881.629L1532.63 885.761Z" fill="#2C2C2D"/>
<path d="M1532.35 1011.55L1210.1 789.18L1534.94 1007.7L1532.35 1011.55Z" fill="#2C2C2D"/>
<path d="M1532.14 1137.27L1209.97 852.214L1535.15 1133.76L1532.14 1137.27Z" fill="#2C2C2D"/>
<path d="M1149.59 1137.82C1148.33 1137.82 1147.28 1136.77 1147.28 1135.51L1147.28 2.31132C1147.28 1.05065 1148.33 8.37698e-05 1149.59 8.38249e-05C1150.85 8.388e-05 1151.9 1.05065 1151.9 2.31132L1151.9 1135.58C1151.9 1136.84 1150.85 1137.89 1149.59 1137.89L1149.59 1137.82Z" fill="#2C2C2D"/>
<path d="M1143.64 24.0204L1143.78 568.91L1143.57 1113.8C1143.57 1114.92 1142.66 1115.83 1141.54 1115.83C1140.42 1115.83 1139.51 1114.92 1139.51 1113.8L1139.37 568.91L1139.58 24.0204C1139.58 22.8998 1140.49 21.9893 1141.61 21.9893C1142.73 21.9893 1143.64 22.8998 1143.64 24.0204Z" fill="#2C2C2D"/>
<path d="M1135.45 45.7364L1135.73 568.844L1135.38 1091.95C1135.38 1092.93 1134.61 1093.7 1133.63 1093.7C1132.64 1093.7 1131.87 1092.93 1131.87 1091.95L1131.59 568.844L1131.94 45.7364C1131.94 44.7558 1132.72 43.9854 1133.7 43.9854C1134.68 43.9854 1135.45 44.7558 1135.45 45.7364Z" fill="#2C2C2D"/>
<path d="M1127.25 67.5139L1127.53 318.177L1127.67 568.84L1127.53 819.503L1127.25 1070.17C1127.25 1071.01 1126.62 1071.64 1125.78 1071.64C1124.94 1071.64 1124.31 1071.01 1124.31 1070.17L1124.03 819.503L1123.89 568.84L1124.03 318.177L1124.31 67.5139C1124.31 66.6734 1124.94 66.0431 1125.78 66.0431C1126.62 66.0431 1127.25 66.6734 1127.25 67.5139Z" fill="#2C2C2D"/>
<path d="M1119.06 89.2246L1119.34 209.128L1119.34 329.032L1119.62 568.839L1119.41 808.647L1119.27 928.551L1118.99 1048.45C1118.99 1049.15 1118.43 1049.71 1117.73 1049.71C1117.03 1049.71 1116.47 1049.15 1116.47 1048.45L1116.19 928.551L1116.19 808.647L1115.91 568.839L1116.12 329.032L1116.26 209.128L1116.54 89.2246C1116.54 88.5243 1117.1 87.964 1117.8 87.964C1118.5 87.964 1119.06 88.5243 1119.06 89.2246Z" fill="#2C2C2D"/>
<path d="M1110.93 111.011L1111.21 225.451L1111.21 339.892L1111.49 568.774L1111.28 797.655L1111.14 912.096L1110.79 1026.54C1110.79 1027.1 1110.3 1027.59 1109.74 1027.59C1109.18 1027.59 1108.69 1027.1 1108.69 1026.54L1108.41 912.096L1108.41 797.655L1108.13 568.774L1108.34 339.892L1108.48 225.451L1108.83 111.011C1108.83 110.45 1109.32 109.96 1109.88 109.96C1110.44 109.96 1110.93 110.45 1110.93 111.011Z" fill="#2C2C2D"/>
<path d="M1102.81 132.721L1103.16 241.699L1103.3 350.677L1103.51 568.703L1103.23 786.729L1103.09 895.707L1102.74 1004.68C1102.74 1005.1 1102.39 1005.53 1101.9 1005.53C1101.48 1005.53 1101.06 1005.17 1101.06 1004.68L1100.71 895.707L1100.57 786.729L1100.36 568.703L1100.64 350.677L1100.78 241.699L1101.13 132.721C1101.13 132.301 1101.48 131.881 1101.97 131.881C1102.39 131.881 1102.81 132.231 1102.81 132.721Z" fill="#2C2C2D"/>
<path d="M1094.68 154.432L1095.03 258.017L1095.17 361.602L1095.38 568.702L1095.1 775.802L1094.96 879.387L1094.61 982.972C1094.61 983.323 1094.33 983.603 1093.98 983.603C1093.63 983.603 1093.35 983.323 1093.35 982.972L1093 879.387L1092.86 775.802L1092.65 568.702L1092.93 361.602L1093.07 258.017L1093.42 154.432C1093.42 154.082 1093.7 153.802 1094.05 153.802C1094.4 153.802 1094.68 154.082 1094.68 154.432Z" fill="#2C2C2D"/>
<path d="M1086.63 176.212L1086.98 274.334L1087.12 372.456L1087.33 568.7L1087.05 764.945L1086.91 863.067L1086.49 961.189C1086.49 961.189 1086.28 961.679 1086 961.679C1085.72 961.679 1085.51 961.469 1085.51 961.189L1085.16 863.067L1085.02 764.945L1084.81 568.7L1085.09 372.456L1085.23 274.334L1085.65 176.212C1085.65 176.212 1085.86 175.722 1086.14 175.722C1086.42 175.722 1086.63 175.932 1086.63 176.212Z" fill="#2C2C2D"/>
<path d="M1078.57 197.925L1078.93 290.584L1079.07 383.243L1079.28 568.631L1079 754.02L1078.86 846.679L1078.43 939.338C1078.43 939.338 1078.29 939.688 1078.08 939.688C1077.87 939.688 1077.73 939.548 1077.73 939.338L1077.38 846.679L1077.24 754.02L1077.03 568.631L1077.31 383.243L1077.45 290.584L1077.87 197.925C1077.87 197.925 1078.01 197.574 1078.22 197.574C1078.43 197.574 1078.57 197.714 1078.57 197.925Z" fill="#2C2C2D"/>
<path d="M1070.52 219.637L1070.87 306.903L1071.01 394.17L1071.22 568.632L1070.94 743.095L1070.8 830.361L1070.38 917.628C1070.38 917.628 1070.31 917.838 1070.17 917.838C1070.03 917.838 1069.96 917.768 1069.96 917.628L1069.61 830.361L1069.47 743.095L1069.26 568.632L1069.54 394.17L1069.68 306.903L1070.1 219.637C1070.1 219.637 1070.17 219.427 1070.31 219.427C1070.45 219.427 1070.52 219.497 1070.52 219.637Z" fill="#2C2C2D"/>
<path d="M1062.47 241.419L1062.82 323.223L1062.82 405.026L1063.1 568.633L1062.82 732.24L1062.68 814.044L1062.33 895.847C1062.33 895.847 1062.33 895.987 1062.19 895.987C1062.12 895.987 1062.05 895.987 1062.05 895.847L1061.7 814.044L1061.7 732.24L1061.42 568.633L1061.7 405.026L1061.84 323.223L1062.19 241.419C1062.19 241.419 1062.19 241.279 1062.33 241.279C1062.4 241.279 1062.47 241.279 1062.47 241.419Z" fill="#2C2C2D"/>
<path d="M1054.48 263.132L1054.76 339.472L1054.76 415.813L1055.04 568.564L1054.76 721.315L1054.62 797.656L1054.27 873.996L1053.99 797.656L1053.99 721.315L1053.71 568.564L1053.99 415.813L1054.13 339.472L1054.48 263.132Z" fill="#2C2C2D"/>
<path d="M1046.5 284.908L1046.71 355.786L1046.78 426.734L1046.92 568.559L1046.71 710.384L1046.57 781.332L1046.22 852.21L1045.94 781.332L1045.87 710.384L1045.73 568.559L1046.01 426.734L1046.15 355.786L1046.5 284.908Z" fill="#2C2C2D"/>
<path d="M1151.76 3.08262L1046.5 284.912L1147.35 1.47176L1151.76 3.08262Z" fill="#2C2C2D"/>
<path d="M1151.7 129.222L1046.43 347.948L1147.49 127.191L1151.7 129.222Z" fill="#2C2C2D"/>
<path d="M1151.48 255.425L1046.43 410.978L1147.63 252.834L1151.48 255.425Z" fill="#2C2C2D"/>
<path d="M1151.13 381.772L1046.43 474.011L1147.98 378.34L1151.13 381.772Z" fill="#2C2C2D"/>
<path d="M1150.22 508.191L1046.36 537.047L1148.89 503.709L1150.22 508.191Z" fill="#2C2C2D"/>
<path d="M1148.89 634.117L1046.36 600.079L1150.22 629.635L1148.89 634.117Z" fill="#2C2C2D"/>
<path d="M1147.98 759.484L1046.29 663.112L1151.13 756.052L1147.98 759.484Z" fill="#2C2C2D"/>
<path d="M1147.63 884.99L1046.29 726.146L1151.48 882.399L1147.63 884.99Z" fill="#2C2C2D"/>
<path d="M1147.49 1010.57L1046.22 789.179L1151.69 1008.61L1147.49 1010.57Z" fill="#2C2C2D"/>
<path d="M1147.35 1136.35L1046.22 852.213L1151.76 1134.74L1147.35 1136.35Z" fill="#2C2C2D"/>
<path d="M960.001 2.31747L960.491 37.7563L960.841 73.1951L961.542 144.003C961.892 191.208 962.242 238.413 962.452 285.688C962.732 332.893 962.802 380.098 963.013 427.373L963.223 569.058L963.013 710.744C962.802 757.949 962.803 805.154 962.452 852.429C962.242 899.634 961.892 946.839 961.542 994.114L960.841 1064.92L960.491 1100.36L960.001 1135.8L959.511 1100.36L959.161 1064.92L958.46 994.114C958.11 946.909 957.76 899.704 957.55 852.429C957.269 805.224 957.2 758.019 956.989 710.744L956.779 569.058L956.989 427.373C957.2 380.168 957.199 332.963 957.55 285.688C957.76 238.483 958.11 191.278 958.46 144.003L959.161 73.1951L959.511 37.7563L960.001 2.31747Z" fill="#2C2C2D"/>
</g>
</svg>
