<svg width="652" height="1102" viewBox="0 0 652 1102" fill="none" xmlns="http://www.w3.org/2000/svg">
<path d="M651.96 1100.25C651.96 1100.97 651.358 1101.57 650.636 1101.57H1.32431C0.601965 1101.57 0 1100.97 0 1100.25C0 1099.52 0.601965 1098.92 1.32431 1098.92H650.676C651.398 1098.92 652 1099.52 652 1100.25H651.96Z" fill="#2C2C2D"/>
<path d="M13.7634 1075.13L325.979 1075.01L638.194 1075.09C638.836 1075.09 639.358 1075.61 639.358 1076.26C639.358 1076.9 638.836 1077.42 638.194 1077.42L325.979 1077.54L13.7634 1077.46C13.1213 1077.46 12.5996 1076.94 12.5996 1076.3C12.5996 1075.66 13.1213 1075.13 13.7634 1075.13Z" fill="#2C2C2D"/>
<path d="M26.2064 1051.34L325.941 1051.1L625.676 1051.22C626.237 1051.22 626.679 1051.67 626.679 1052.23C626.679 1052.79 626.237 1053.23 625.676 1053.23L325.941 1053.47L26.2064 1053.35C25.6446 1053.35 25.2031 1052.91 25.2031 1052.35C25.2031 1051.79 25.6446 1051.34 26.2064 1051.34Z" fill="#2C2C2D"/>
<path d="M38.6845 1027.56L182.312 1027.35L325.939 1027.23H469.566L613.193 1027.39C613.674 1027.39 614.035 1027.76 614.035 1028.24C614.035 1028.72 613.674 1029.08 613.193 1029.08L469.566 1029.28L325.939 1029.4H182.312L38.6845 1029.24C38.203 1029.24 37.8418 1028.88 37.8418 1028.4C37.8418 1027.92 38.203 1027.56 38.6845 1027.56Z" fill="#2C2C2D"/>
<path d="M51.1247 1003.77L119.828 1003.57L188.531 1003.49L325.938 1003.33H463.345L532.048 1003.41L600.752 1003.53C601.153 1003.53 601.474 1003.85 601.474 1004.25C601.474 1004.65 601.153 1004.97 600.752 1004.97L532.048 1005.17L463.345 1005.26L325.938 1005.42H188.531L119.828 1005.34L51.1247 1005.21C50.7234 1005.21 50.4023 1004.89 50.4023 1004.49C50.4023 1004.09 50.7234 1003.77 51.1247 1003.77Z" fill="#2C2C2D"/>
<path d="M63.6078 979.939L129.181 979.738L194.754 979.617L325.901 979.417H457.047L522.62 979.497L588.194 979.617C588.515 979.617 588.795 979.899 588.795 980.22C588.795 980.541 588.515 980.823 588.194 980.823L522.62 981.024L457.047 981.144L325.901 981.345H194.754L129.181 981.265L63.6078 981.144C63.2867 981.144 63.0059 980.863 63.0059 980.541C63.0059 980.22 63.2867 979.939 63.6078 979.939Z" fill="#2C2C2D"/>
<path d="M76.048 956.109L138.491 955.868L200.934 955.748L325.86 955.507H450.786L513.229 955.587L575.673 955.748C575.913 955.748 576.154 955.949 576.154 956.23C576.154 956.471 575.953 956.712 575.673 956.712L513.229 956.953L450.786 957.074L325.86 957.315H200.934L138.491 957.235L76.048 957.074C75.8072 957.074 75.5664 956.873 75.5664 956.592C75.5664 956.351 75.7671 956.109 76.048 956.109Z" fill="#2C2C2D"/>
<path d="M88.4881 932.243L147.841 931.961L207.194 931.841L325.86 931.6H444.526L503.879 931.68L563.232 931.841C563.432 931.841 563.593 932.002 563.593 932.202C563.593 932.403 563.432 932.564 563.232 932.564L503.879 932.845L444.526 932.966L325.86 933.207H207.194L147.841 933.127L88.4881 932.966C88.2875 932.966 88.127 932.805 88.127 932.604C88.127 932.403 88.2875 932.243 88.4881 932.243Z" fill="#2C2C2D"/>
<path d="M100.966 908.414L157.189 908.133L213.412 908.012L325.858 907.731H438.303L494.526 907.771L550.749 907.932C550.749 907.932 551.03 908.052 551.03 908.213C551.03 908.374 550.91 908.494 550.749 908.494L494.526 908.776L438.303 908.896L325.858 909.177H213.412L157.189 909.138L100.966 908.977C100.966 908.977 100.686 908.856 100.686 908.695C100.686 908.535 100.806 908.414 100.966 908.414Z" fill="#2C2C2D"/>
<path d="M113.408 884.546L166.5 884.264L219.593 884.104L325.818 883.822H432.044H485.136L538.229 883.983C538.229 883.983 538.43 884.063 538.43 884.184C538.43 884.305 538.349 884.385 538.229 884.385L485.136 884.666L432.044 884.827L325.818 885.108H219.593H166.5L113.408 884.948C113.408 884.948 113.207 884.867 113.207 884.747C113.207 884.626 113.287 884.546 113.408 884.546Z" fill="#2C2C2D"/>
<path d="M125.851 860.635L175.853 860.354L225.856 860.193L325.821 859.912H425.786H475.789L525.791 860.032C525.791 860.032 525.912 860.072 525.912 860.153C525.912 860.233 525.872 860.273 525.791 860.273L475.789 860.554L425.786 860.715L325.821 860.996H225.856H175.853L125.851 860.876C125.851 860.876 125.73 860.836 125.73 860.755C125.73 860.675 125.771 860.635 125.851 860.635Z" fill="#2C2C2D"/>
<path d="M138.33 836.767L185.203 836.486L232.075 836.325L325.82 836.004H419.565H466.437L513.31 836.124C513.31 836.124 513.39 836.124 513.39 836.205C513.39 836.245 513.39 836.285 513.31 836.285L466.437 836.566L419.565 836.727L325.82 837.049H232.075H185.203L138.33 836.928C138.33 836.928 138.25 836.928 138.25 836.848C138.25 836.807 138.25 836.767 138.33 836.767Z" fill="#2C2C2D"/>
<path d="M150.771 812.858L194.514 812.576L238.256 812.416L325.781 812.094H413.305L457.047 812.014L500.79 812.094L457.047 812.375L413.305 812.536L325.781 812.858H238.256L194.514 812.938L150.771 812.858Z" fill="#2C2C2D"/>
<path d="M163.25 788.95L203.862 788.669L244.514 788.508L325.779 788.227L407.043 788.146L447.695 788.106L488.307 788.146L447.695 788.427L407.043 788.588L325.779 788.91L244.514 788.99L203.862 789.03L163.25 788.95Z" fill="#2C2C2D"/>
<path d="M0.123047 1099.64L163.253 788.95L2.49075 1100.85L0.123047 1099.64Z" fill="#2C2C2D"/>
<path d="M72.2363 1099.72L199.37 788.869L74.6843 1100.73L72.2363 1099.72Z" fill="#2C2C2D"/>
<path d="M144.311 1099.88L235.487 788.789L146.879 1100.61L144.311 1099.88Z" fill="#2C2C2D"/>
<path d="M216.428 1100L271.607 788.668L219.076 1100.49L216.428 1100Z" fill="#2C2C2D"/>
<path d="M288.58 1100.17L307.722 788.588L291.229 1100.33L288.58 1100.17Z" fill="#2C2C2D"/>
<path d="M360.737 1100.33L343.842 788.507L363.385 1100.17L360.737 1100.33Z" fill="#2C2C2D"/>
<path d="M432.891 1100.49L379.959 788.426L435.5 1100L432.891 1100.49Z" fill="#2C2C2D"/>
<path d="M505.088 1100.61L416.078 788.346L507.616 1099.88L505.088 1100.61Z" fill="#2C2C2D"/>
<path d="M577.28 1100.73L452.193 788.226L579.728 1099.72L577.28 1100.73Z" fill="#2C2C2D"/>
<path d="M649.476 1100.85L488.312 788.146L651.844 1099.64L649.476 1100.85Z" fill="#2C2C2D"/>
<path d="M651.96 879.884C651.96 880.607 651.358 881.21 650.636 881.21H1.32431C0.601965 881.21 0 880.607 0 879.884C0 879.16 0.601965 878.558 1.32431 878.558H650.676C651.398 878.558 652 879.16 652 879.884H651.96Z" fill="#2C2C2D"/>
<path d="M13.7634 864.492L325.979 864.372L638.194 864.452C638.836 864.452 639.358 864.975 639.358 865.618C639.358 866.261 638.836 866.783 638.194 866.783L325.979 866.904L13.7634 866.823C13.1213 866.823 12.5996 866.301 12.5996 865.658C12.5996 865.015 13.1213 864.492 13.7634 864.492Z" fill="#2C2C2D"/>
<path d="M26.2064 850.388L325.941 850.187L625.676 850.348C626.237 850.348 626.679 850.79 626.679 851.352C626.679 851.915 626.237 852.357 625.676 852.357L325.941 852.558L26.2064 852.397C25.6446 852.397 25.2031 851.955 25.2031 851.392C25.2031 850.83 25.6446 850.388 26.2064 850.388Z" fill="#2C2C2D"/>
<path d="M38.6845 836.284L182.312 836.083L325.939 835.962H469.566L613.193 836.163C613.674 836.163 614.035 836.525 614.035 837.007C614.035 837.489 613.674 837.851 613.193 837.851L469.566 838.052L325.939 838.172H182.312L38.6845 837.972C38.203 837.972 37.8418 837.61 37.8418 837.128C37.8418 836.645 38.203 836.284 38.6845 836.284Z" fill="#2C2C2D"/>
<path d="M51.1247 822.179L119.828 822.018L188.531 821.938L325.938 821.777L463.345 821.858H532.048L600.752 822.018C601.153 822.018 601.474 822.34 601.474 822.742C601.474 823.144 601.153 823.465 600.752 823.465L532.048 823.626L463.345 823.706L325.938 823.867L188.531 823.786H119.828L51.1247 823.626C50.7234 823.626 50.4023 823.304 50.4023 822.903C50.4023 822.501 50.7234 822.179 51.1247 822.179Z" fill="#2C2C2D"/>
<path d="M63.6078 808.076L129.181 807.875L194.754 807.795L325.901 807.634L457.047 807.714H522.62L588.194 807.916C588.515 807.916 588.795 808.197 588.795 808.518C588.795 808.84 588.515 809.121 588.194 809.121L522.62 809.322L457.047 809.402L325.901 809.563L194.754 809.483H129.181L63.6078 809.282C63.2867 809.282 63.0059 809.001 63.0059 808.679C63.0059 808.358 63.2867 808.076 63.6078 808.076Z" fill="#2C2C2D"/>
<path d="M76.048 793.931L138.491 793.69L200.934 793.61L325.86 793.409L450.786 793.489H513.229L575.673 793.69C575.913 793.69 576.154 793.891 576.154 794.172C576.154 794.413 575.953 794.654 575.673 794.654L513.229 794.895L450.786 794.976L325.86 795.177L200.934 795.097H138.491L76.048 794.895C75.8072 794.895 75.5664 794.695 75.5664 794.413C75.5664 794.172 75.7671 793.931 76.048 793.931Z" fill="#2C2C2D"/>
<path d="M88.4881 779.788L147.841 779.547L207.194 779.426L325.86 779.226L444.526 779.306H503.879L563.232 779.547C563.432 779.547 563.593 779.708 563.593 779.909C563.593 780.11 563.432 780.27 563.232 780.27L503.879 780.511L444.526 780.632L325.86 780.833L207.194 780.753H147.841L88.4881 780.511C88.2875 780.511 88.127 780.351 88.127 780.15C88.127 779.949 88.2875 779.788 88.4881 779.788Z" fill="#2C2C2D"/>
<path d="M100.966 765.642L157.189 765.401L213.412 765.28L325.858 765.039L438.303 765.12H494.526L550.749 765.361C550.91 765.361 551.03 765.481 551.03 765.642C551.03 765.803 550.91 765.923 550.749 765.923L494.526 766.164L438.303 766.285L325.858 766.526L213.412 766.446H157.189L100.966 766.205C100.806 766.205 100.686 766.084 100.686 765.923C100.686 765.762 100.806 765.642 100.966 765.642Z" fill="#2C2C2D"/>
<path d="M113.408 751.458L166.5 751.216L219.593 751.096L325.818 750.855L432.044 750.935H485.136L538.229 751.136C538.349 751.136 538.43 751.217 538.43 751.337C538.43 751.458 538.349 751.538 538.229 751.538L485.136 751.779L432.044 751.9L325.818 752.141L219.593 752.06H166.5L113.408 751.86C113.287 751.86 113.207 751.779 113.207 751.659C113.207 751.538 113.287 751.458 113.408 751.458Z" fill="#2C2C2D"/>
<path d="M125.851 737.274L175.853 737.033L225.856 736.912L325.821 736.671H425.786L475.789 736.751L525.791 736.912C525.791 736.912 525.912 736.952 525.912 737.033C525.912 737.113 525.872 737.153 525.791 737.153L475.789 737.394L425.786 737.515L325.821 737.756H225.856L175.853 737.675L125.851 737.515C125.851 737.515 125.73 737.475 125.73 737.394C125.73 737.314 125.771 737.274 125.851 737.274Z" fill="#2C2C2D"/>
<path d="M138.33 723.09L185.203 722.849L232.075 722.729L325.82 722.488H419.565L466.437 722.568L513.31 722.729C513.31 722.729 513.39 722.729 513.39 722.809C513.39 722.849 513.39 722.89 513.31 722.89L466.437 723.131L419.565 723.251L325.82 723.492H232.075L185.203 723.412L138.33 723.251C138.33 723.251 138.25 723.251 138.25 723.171C138.25 723.131 138.25 723.09 138.33 723.09Z" fill="#2C2C2D"/>
<path d="M150.771 708.864L194.514 708.623L238.256 708.502L325.781 708.261H413.305H457.047L500.79 708.382L457.047 708.623L413.305 708.743L325.781 708.984H238.256H194.514L150.771 708.864Z" fill="#2C2C2D"/>
<path d="M163.25 694.68L203.862 694.439L244.514 694.318L325.779 694.077H407.043H447.695L488.307 694.198L447.695 694.399L407.043 694.519L325.779 694.76H244.514H203.862L163.25 694.68Z" fill="#2C2C2D"/>
<path d="M0.322266 878.999L163.252 694.68L2.32879 880.767L0.322266 878.999Z" fill="#2C2C2D"/>
<path d="M72.3574 879.119L199.37 694.599L74.5646 880.646L72.3574 879.119Z" fill="#2C2C2D"/>
<path d="M144.393 879.28L235.489 694.559L146.8 880.445L144.393 879.28Z" fill="#2C2C2D"/>
<path d="M216.467 879.522L271.606 694.52L219.035 880.245L216.467 879.522Z" fill="#2C2C2D"/>
<path d="M288.58 879.762L307.722 694.439L291.229 880.004L288.58 879.762Z" fill="#2C2C2D"/>
<path d="M360.733 880.003L343.838 694.398L363.381 879.761L360.733 880.003Z" fill="#2C2C2D"/>
<path d="M432.927 880.245L379.955 694.359L435.496 879.521L432.927 880.245Z" fill="#2C2C2D"/>
<path d="M505.162 880.486L416.072 694.278L507.53 879.28L505.162 880.486Z" fill="#2C2C2D"/>
<path d="M577.397 880.647L452.189 694.238L579.604 879.12L577.397 880.647Z" fill="#2C2C2D"/>
<path d="M649.631 880.766L488.307 694.197L651.638 878.998L649.631 880.766Z" fill="#2C2C2D"/>
<path d="M651.96 659.521C651.96 660.244 651.358 660.847 650.636 660.847H1.32431C0.601965 660.847 0 660.244 0 659.521C0 658.798 0.601965 658.195 1.32431 658.195H650.676C651.398 658.195 652 658.798 652 659.521H651.96Z" fill="#2C2C2D"/>
<path d="M13.7634 653.815L325.979 653.694L638.194 653.775C638.836 653.775 639.358 654.297 639.358 654.94C639.358 655.583 638.836 656.105 638.194 656.105L325.979 656.226L13.7634 656.145C13.1213 656.145 12.5996 655.623 12.5996 654.98C12.5996 654.337 13.1213 653.815 13.7634 653.815Z" fill="#2C2C2D"/>
<path d="M26.2064 649.434L325.941 649.233L625.676 649.394C626.237 649.394 626.679 649.836 626.679 650.399C626.679 650.961 626.237 651.403 625.676 651.403L325.941 651.604L26.2064 651.443C25.6446 651.443 25.2031 651.001 25.2031 650.439C25.2031 649.876 25.6446 649.434 26.2064 649.434Z" fill="#2C2C2D"/>
<path d="M38.6845 645.015L182.312 644.854L325.939 644.773L469.566 644.854L613.193 645.015C613.674 645.015 614.035 645.376 614.035 645.858C614.035 646.341 613.674 646.702 613.193 646.702L469.566 646.863L325.939 646.943L182.312 646.863L38.6845 646.702C38.203 646.702 37.8418 646.341 37.8418 645.858C37.8418 645.376 38.203 645.015 38.6845 645.015Z" fill="#2C2C2D"/>
<path d="M51.1247 640.594L119.828 640.433L188.531 640.353L325.938 640.232L463.345 640.313H532.048L600.752 640.514C601.153 640.514 601.474 640.835 601.474 641.237C601.474 641.639 601.153 641.96 600.752 641.96L532.048 642.121L463.345 642.201L325.938 642.322L188.531 642.242H119.828L51.1247 642.041C50.7234 642.041 50.4023 641.719 50.4023 641.317C50.4023 640.916 50.7234 640.594 51.1247 640.594Z" fill="#2C2C2D"/>
<path d="M63.6078 636.174L129.181 635.973L194.754 635.893L325.901 635.772L457.047 635.893H522.62L588.194 636.134C588.515 636.134 588.795 636.415 588.795 636.737C588.795 637.058 588.515 637.34 588.194 637.34L522.62 637.541L457.047 637.621L325.901 637.741L194.754 637.621H129.181L63.6078 637.38C63.2867 637.38 63.0059 637.098 63.0059 636.777C63.0059 636.456 63.2867 636.174 63.6078 636.174Z" fill="#2C2C2D"/>
<path d="M76.048 631.753L138.491 631.553L200.934 631.472L325.86 631.312L450.786 631.432L513.229 631.512L575.673 631.713C575.913 631.713 576.154 631.914 576.154 632.195C576.154 632.437 575.953 632.678 575.673 632.678L513.229 632.879L450.786 632.959L325.86 633.12L200.934 632.999L138.491 632.919L76.048 632.718C75.8072 632.718 75.5664 632.517 75.5664 632.236C75.5664 631.995 75.7671 631.753 76.048 631.753Z" fill="#2C2C2D"/>
<path d="M88.4881 627.294L147.841 627.093L207.194 627.012L325.86 626.852L444.526 626.972L503.879 627.052L563.232 627.253C563.432 627.253 563.593 627.414 563.593 627.615C563.593 627.816 563.432 627.977 563.232 627.977L503.879 628.178L444.526 628.258L325.86 628.419L207.194 628.298L147.841 628.218L88.4881 628.017C88.2875 628.017 88.127 627.856 88.127 627.655C88.127 627.454 88.2875 627.294 88.4881 627.294Z" fill="#2C2C2D"/>
<path d="M100.966 622.834L157.189 622.593L213.412 622.513L325.858 622.352L438.303 622.473L494.526 622.553L550.749 622.754C550.749 622.754 551.03 622.874 551.03 623.035C551.03 623.196 550.91 623.316 550.749 623.316L494.526 623.557L438.303 623.638L325.858 623.799L213.412 623.678L157.189 623.598L100.966 623.397C100.966 623.397 100.686 623.276 100.686 623.116C100.686 622.955 100.806 622.834 100.966 622.834Z" fill="#2C2C2D"/>
<path d="M113.408 618.374L166.5 618.133L219.593 618.053L325.818 617.892L432.044 618.013L485.136 618.093L538.229 618.294C538.229 618.294 538.43 618.374 538.43 618.495C538.43 618.615 538.349 618.696 538.229 618.696L485.136 618.937L432.044 619.017L325.818 619.178L219.593 619.057L166.5 618.977L113.408 618.776C113.408 618.776 113.207 618.696 113.207 618.575C113.207 618.455 113.287 618.374 113.408 618.374Z" fill="#2C2C2D"/>
<path d="M125.851 613.913L175.853 613.672L225.856 613.592L325.821 613.431L425.786 613.552L475.789 613.632L525.791 613.833C525.791 613.833 525.912 613.873 525.912 613.954C525.912 614.034 525.872 614.074 525.791 614.074L475.789 614.315L425.786 614.396L325.821 614.556L225.856 614.436L175.853 614.355L125.851 614.154C125.851 614.154 125.73 614.114 125.73 614.034C125.73 613.954 125.771 613.913 125.851 613.913Z" fill="#2C2C2D"/>
<path d="M138.33 609.412L185.203 609.211L232.075 609.13L325.82 608.97L419.565 609.09H466.437L513.31 609.331C513.35 609.331 513.39 609.331 513.39 609.412C513.39 609.452 513.39 609.492 513.31 609.492L466.437 609.693L419.565 609.773L325.82 609.934L232.075 609.814H185.203L138.33 609.573C138.29 609.573 138.25 609.572 138.25 609.492C138.25 609.452 138.25 609.412 138.33 609.412Z" fill="#2C2C2D"/>
<path d="M150.771 604.912L194.514 604.711L238.256 604.631L325.781 604.47L413.305 604.551H457.047L500.79 604.752L457.047 604.952L413.305 605.033L325.781 605.194L238.256 605.113H194.514L150.771 604.912Z" fill="#2C2C2D"/>
<path d="M163.25 600.371L203.862 600.21L244.514 600.13L325.779 599.969L407.043 600.05L447.695 600.09L488.307 600.21L447.695 600.411L407.043 600.492L325.779 600.652L244.514 600.572L203.862 600.532L163.25 600.371Z" fill="#2C2C2D"/>
<path d="M0.84375 658.276L163.252 600.373L1.76675 660.767L0.84375 658.276Z" fill="#2C2C2D"/>
<path d="M72.8789 658.316L199.37 600.373L74.0427 660.727L72.8789 658.316Z" fill="#2C2C2D"/>
<path d="M144.871 658.397L235.486 600.333L146.356 660.647L144.871 658.397Z" fill="#2C2C2D"/>
<path d="M216.785 658.638L271.603 600.333L218.752 660.406L216.785 658.638Z" fill="#2C2C2D"/>
<path d="M288.619 659.12L307.721 600.333L291.188 659.924L288.619 659.12Z" fill="#2C2C2D"/>
<path d="M360.773 659.924L343.838 600.292L363.341 659.12L360.773 659.924Z" fill="#2C2C2D"/>
<path d="M433.208 660.406L379.955 600.292L435.175 658.638L433.208 660.406Z" fill="#2C2C2D"/>
<path d="M505.603 660.646L416.072 600.251L507.088 658.396L505.603 660.646Z" fill="#2C2C2D"/>
<path d="M577.92 660.727L452.191 600.251L579.044 658.316L577.92 660.727Z" fill="#2C2C2D"/>
<path d="M650.193 660.767L488.307 600.211L651.116 658.276L650.193 660.767Z" fill="#2C2C2D"/>
<path d="M651.96 1.32598C651.96 2.04927 651.358 2.65208 650.636 2.65208H1.32431C0.601965 2.65208 0 2.04927 0 1.32598C0 0.602689 0.601965 0 1.32431 0H650.676C651.398 0 652 0.602689 652 1.32598H651.96Z" fill="#2C2C2D"/>
<path d="M13.7634 24.1101L325.979 24.0298L638.194 24.1503C638.836 24.1503 639.358 24.6726 639.358 25.3155C639.358 25.9585 638.836 26.4809 638.194 26.4809L325.979 26.5613L13.7634 26.4407C13.1213 26.4407 12.5996 25.9184 12.5996 25.2754C12.5996 24.6325 13.1213 24.1101 13.7634 24.1101Z" fill="#2C2C2D"/>
<path d="M26.2064 48.2197L325.941 48.0991L625.676 48.3402C626.237 48.3402 626.679 48.7822 626.679 49.3448C626.679 49.9073 626.237 50.3494 625.676 50.3494L325.941 50.4699L26.2064 50.2288C25.6446 50.2288 25.2031 49.7868 25.2031 49.2242C25.2031 48.6617 25.6446 48.2197 26.2064 48.2197Z" fill="#2C2C2D"/>
<path d="M38.6845 72.289L182.312 72.1685H325.939L469.566 72.2489L613.193 72.4498C613.674 72.4498 614.035 72.8114 614.035 73.2936C614.035 73.7758 613.674 74.1375 613.193 74.1375L469.566 74.258H325.939L182.312 74.1776L38.6845 73.9767C38.203 73.9767 37.8418 73.6151 37.8418 73.1329C37.8418 72.6507 38.203 72.289 38.6845 72.289Z" fill="#2C2C2D"/>
<path d="M51.1247 96.3991L119.828 96.2786H188.531L325.938 96.1982L463.345 96.359L532.048 96.4393L600.752 96.6402C601.153 96.6402 601.474 96.9618 601.474 97.3636C601.474 97.7654 601.153 98.0868 600.752 98.0868L532.048 98.2074H463.345L325.938 98.2877L188.531 98.1271L119.828 98.0466L51.1247 97.8458C50.7234 97.8458 50.4023 97.5243 50.4023 97.1225C50.4023 96.7207 50.7234 96.3991 51.1247 96.3991Z" fill="#2C2C2D"/>
<path d="M63.6078 120.469L129.181 120.348H194.754L325.901 120.268L457.047 120.469L522.62 120.589L588.194 120.79C588.515 120.79 588.795 121.071 588.795 121.393C588.795 121.714 588.515 121.996 588.194 121.996L522.62 122.116H457.047L325.901 122.196L194.754 121.996L129.181 121.875L63.6078 121.674C63.2867 121.674 63.0059 121.393 63.0059 121.071C63.0059 120.75 63.2867 120.469 63.6078 120.469Z" fill="#2C2C2D"/>
<path d="M76.048 144.498L138.491 144.338H200.934L325.86 144.257L450.786 144.498L513.229 144.619L575.673 144.86C575.913 144.86 576.154 145.061 576.154 145.342C576.154 145.583 575.953 145.825 575.673 145.825L513.229 145.985H450.786L325.86 146.066L200.934 145.825L138.491 145.704L76.048 145.463C75.8072 145.463 75.5664 145.262 75.5664 144.981C75.5664 144.739 75.7671 144.498 76.048 144.498Z" fill="#2C2C2D"/>
<path d="M88.4881 168.568L147.841 168.407H207.194L325.86 168.327L444.526 168.568L503.879 168.688L563.232 168.969C563.432 168.969 563.593 169.13 563.593 169.331C563.593 169.532 563.432 169.693 563.232 169.693L503.879 169.854H444.526L325.86 169.934L207.194 169.693L147.841 169.572L88.4881 169.291C88.2875 169.291 88.127 169.13 88.127 168.929C88.127 168.728 88.2875 168.568 88.4881 168.568Z" fill="#2C2C2D"/>
<path d="M100.966 192.596L157.189 192.435H213.412L325.858 192.395L438.303 192.676L494.526 192.797L550.749 193.078C550.749 193.078 551.03 193.199 551.03 193.359C551.03 193.52 550.91 193.641 550.749 193.641L494.526 193.801H438.303L325.858 193.842L213.412 193.56L157.189 193.44L100.966 193.159C100.966 193.159 100.686 193.038 100.686 192.877C100.686 192.716 100.806 192.596 100.966 192.596Z" fill="#2C2C2D"/>
<path d="M113.408 216.626L166.5 216.465H219.593H325.818L432.044 216.747L485.136 216.907L538.229 217.189C538.229 217.189 538.43 217.269 538.43 217.39C538.43 217.51 538.349 217.59 538.229 217.59L485.136 217.751H432.044H325.818L219.593 217.47L166.5 217.309L113.408 217.028C113.408 217.028 113.207 216.948 113.207 216.827C113.207 216.706 113.287 216.626 113.408 216.626Z" fill="#2C2C2D"/>
<path d="M125.851 240.615L175.853 240.494H225.856H325.821L425.786 240.775L475.789 240.936L525.791 241.217C525.791 241.217 525.912 241.258 525.912 241.338C525.912 241.418 525.872 241.458 525.791 241.458L475.789 241.579H425.786H325.821L225.856 241.298L175.853 241.137L125.851 240.856C125.851 240.856 125.73 240.816 125.73 240.735C125.73 240.655 125.771 240.615 125.851 240.615Z" fill="#2C2C2D"/>
<path d="M138.33 264.645L185.203 264.524H232.075H325.82L419.565 264.846L466.437 265.007L513.31 265.288C513.31 265.288 513.39 265.288 513.39 265.368C513.39 265.409 513.39 265.449 513.31 265.449L466.437 265.569H419.565H325.82L232.075 265.248L185.203 265.087L138.33 264.806C138.33 264.806 138.25 264.806 138.25 264.725C138.25 264.685 138.25 264.645 138.33 264.645Z" fill="#2C2C2D"/>
<path d="M150.771 288.635L194.514 288.554H238.256L325.781 288.635L413.305 288.956L457.047 289.117L500.79 289.398L457.047 289.478H413.305L325.781 289.398L238.256 289.077L194.514 288.916L150.771 288.635Z" fill="#2C2C2D"/>
<path d="M163.25 312.623L203.862 312.542L244.514 312.583L325.779 312.663L407.043 312.985L447.695 313.145L488.307 313.386L447.695 313.467L407.043 313.427L325.779 313.346L244.514 313.025L203.862 312.864L163.25 312.623Z" fill="#2C2C2D"/>
<path d="M2.48879 0.683594L163.252 312.623L0.121094 1.92925L2.48879 0.683594Z" fill="#2C2C2D"/>
<path d="M74.6823 0.804688L199.368 312.704L72.2344 1.80926L74.6823 0.804688Z" fill="#2C2C2D"/>
<path d="M146.877 0.924805L235.485 312.784L144.309 1.68829L146.877 0.924805Z" fill="#2C2C2D"/>
<path d="M219.076 1.08545L271.607 312.864L216.428 1.52752L219.076 1.08545Z" fill="#2C2C2D"/>
<path d="M291.229 1.24658L307.722 312.945L288.58 1.36713L291.229 1.24658Z" fill="#2C2C2D"/>
<path d="M363.385 1.36713L343.842 313.025L360.737 1.24658L363.385 1.36713Z" fill="#2C2C2D"/>
<path d="M435.498 1.52752L379.957 313.146L432.889 1.08545L435.498 1.52752Z" fill="#2C2C2D"/>
<path d="M507.614 1.68829L416.076 313.226L505.086 0.924805L507.614 1.68829Z" fill="#2C2C2D"/>
<path d="M579.728 1.80926L452.193 313.307L577.28 0.804688L579.728 1.80926Z" fill="#2C2C2D"/>
<path d="M651.842 1.92974L488.311 313.387L649.475 0.684082L651.842 1.92974Z" fill="#2C2C2D"/>
<path d="M651.96 221.648C651.96 222.372 651.358 222.974 650.636 222.974H1.32431C0.601965 222.974 0 222.372 0 221.648C0 220.925 0.601965 220.322 1.32431 220.322H650.676C651.398 220.322 652 220.925 652 221.648H651.96Z" fill="#2C2C2D"/>
<path d="M13.7634 234.749L325.979 234.668L638.194 234.789C638.836 234.789 639.358 235.311 639.358 235.954C639.358 236.597 638.836 237.12 638.194 237.12L325.979 237.2L13.7634 237.079C13.1213 237.079 12.5996 236.557 12.5996 235.914C12.5996 235.271 13.1213 234.749 13.7634 234.749Z" fill="#2C2C2D"/>
<path d="M26.2064 249.173L325.941 249.012L625.676 249.213C626.237 249.213 626.679 249.655 626.679 250.218C626.679 250.78 626.237 251.222 625.676 251.222L325.941 251.383L26.2064 251.182C25.6446 251.182 25.2031 250.74 25.2031 250.178C25.2031 249.615 25.6446 249.173 26.2064 249.173Z" fill="#2C2C2D"/>
<path d="M38.6845 263.558L182.312 263.397H325.939L469.566 263.438L613.193 263.639C613.674 263.639 614.035 264 614.035 264.482C614.035 264.965 613.674 265.326 613.193 265.326L469.566 265.487H325.939L182.312 265.447L38.6845 265.246C38.203 265.246 37.8418 264.884 37.8418 264.402C37.8418 263.92 38.203 263.558 38.6845 263.558Z" fill="#2C2C2D"/>
<path d="M51.1247 277.945L119.828 277.824H188.531L325.938 277.704L463.345 277.864L532.048 277.945L600.752 278.105C601.153 278.105 601.474 278.427 601.474 278.829C601.474 279.231 601.153 279.552 600.752 279.552L532.048 279.673H463.345L325.938 279.793L188.531 279.632L119.828 279.552L51.1247 279.391C50.7234 279.391 50.4023 279.07 50.4023 278.668C50.4023 278.266 50.7234 277.945 51.1247 277.945Z" fill="#2C2C2D"/>
<path d="M63.6078 292.33L129.181 292.169H194.754L325.901 292.049L457.047 292.21L522.62 292.29L588.194 292.491C588.515 292.491 588.795 292.772 588.795 293.094C588.795 293.415 588.515 293.696 588.194 293.696L522.62 293.857H457.047L325.901 293.978L194.754 293.817L129.181 293.737L63.6078 293.536C63.2867 293.536 63.0059 293.254 63.0059 292.933C63.0059 292.611 63.2867 292.33 63.6078 292.33Z" fill="#2C2C2D"/>
<path d="M76.048 306.675L138.491 306.515H200.934L325.86 306.394L450.786 306.595L513.229 306.675L575.673 306.916C575.913 306.916 576.154 307.117 576.154 307.399C576.154 307.64 575.953 307.881 575.673 307.881L513.229 308.042H450.786L325.86 308.162L200.934 307.961L138.491 307.881L76.048 307.64C75.8072 307.64 75.5664 307.439 75.5664 307.158C75.5664 306.916 75.7671 306.675 76.048 306.675Z" fill="#2C2C2D"/>
<path d="M88.4881 321.021L147.841 320.86H207.194L325.86 320.739L444.526 320.94L503.879 321.061L563.232 321.302C563.432 321.302 563.593 321.462 563.593 321.663C563.593 321.864 563.432 322.025 563.232 322.025L503.879 322.186H444.526L325.86 322.306L207.194 322.105L147.841 321.985L88.4881 321.744C88.2875 321.744 88.127 321.583 88.127 321.382C88.127 321.181 88.2875 321.021 88.4881 321.021Z" fill="#2C2C2D"/>
<path d="M100.966 335.366L157.189 335.205H213.412L325.858 335.084L438.303 335.326L494.526 335.446L550.749 335.687C550.749 335.687 551.03 335.808 551.03 335.969C551.03 336.129 550.91 336.25 550.749 336.25L494.526 336.41H438.303L325.858 336.531L213.412 336.29L157.189 336.169L100.966 335.928C100.966 335.928 100.686 335.808 100.686 335.647C100.686 335.486 100.806 335.366 100.966 335.366Z" fill="#2C2C2D"/>
<path d="M113.408 349.71L166.5 349.549H219.593L325.818 349.428L432.044 349.669L485.136 349.79L538.229 350.031C538.229 350.031 538.43 350.111 538.43 350.232C538.43 350.352 538.349 350.433 538.229 350.433L485.136 350.594H432.044L325.818 350.714L219.593 350.473L166.5 350.352L113.408 350.111C113.408 350.111 113.207 350.031 113.207 349.91C113.207 349.79 113.287 349.71 113.408 349.71Z" fill="#2C2C2D"/>
<path d="M125.851 364.016L175.853 363.855H225.856L325.821 363.774L425.786 364.016L475.789 364.136L525.791 364.377C525.791 364.377 525.912 364.417 525.912 364.498C525.912 364.578 525.872 364.618 525.791 364.618L475.789 364.779H425.786L325.821 364.859L225.856 364.618L175.853 364.498L125.851 364.257C125.851 364.257 125.73 364.216 125.73 364.136C125.73 364.056 125.771 364.016 125.851 364.016Z" fill="#2C2C2D"/>
<path d="M138.33 378.322L185.203 378.161H232.075L325.82 378.081L419.565 378.322L466.437 378.442L513.31 378.683C513.31 378.683 513.39 378.683 513.39 378.764C513.39 378.804 513.39 378.844 513.31 378.844L466.437 379.005H419.565L325.82 379.085L232.075 378.844L185.203 378.724L138.33 378.482C138.33 378.482 138.25 378.482 138.25 378.402C138.25 378.362 138.25 378.322 138.33 378.322Z" fill="#2C2C2D"/>
<path d="M150.771 392.625L194.514 392.505H238.256H325.781L413.305 392.746L457.047 392.867L500.79 393.108L457.047 393.228H413.305H325.781L238.256 392.987L194.514 392.867L150.771 392.625Z" fill="#2C2C2D"/>
<path d="M163.25 406.892L203.862 406.771H244.514H325.779L407.043 407.012L447.695 407.133L488.307 407.374L447.695 407.454H407.043H325.779L244.514 407.213L203.862 407.092L163.25 406.892Z" fill="#2C2C2D"/>
<path d="M2.32879 220.805L163.252 406.892L0.322266 222.533L2.32879 220.805Z" fill="#2C2C2D"/>
<path d="M74.5646 220.926L199.37 406.932L72.3574 222.413L74.5646 220.926Z" fill="#2C2C2D"/>
<path d="M146.8 221.085L235.489 406.971L144.393 222.251L146.8 221.085Z" fill="#2C2C2D"/>
<path d="M219.035 221.288L271.606 407.053L216.467 222.051L219.035 221.288Z" fill="#2C2C2D"/>
<path d="M291.229 221.527L307.722 407.092L288.58 221.809L291.229 221.527Z" fill="#2C2C2D"/>
<path d="M363.381 221.809L343.838 407.132L360.733 221.527L363.381 221.809Z" fill="#2C2C2D"/>
<path d="M435.496 222.051L379.955 407.214L432.927 221.288L435.496 222.051Z" fill="#2C2C2D"/>
<path d="M507.53 222.251L416.072 407.253L505.162 221.085L507.53 222.251Z" fill="#2C2C2D"/>
<path d="M579.604 222.413L452.189 407.294L577.397 220.926L579.604 222.413Z" fill="#2C2C2D"/>
<path d="M651.638 222.533L488.307 407.374L649.631 220.805L651.638 222.533Z" fill="#2C2C2D"/>
<path d="M651.96 442.012C651.96 442.735 651.358 443.338 650.636 443.338H1.32431C0.601965 443.338 0 442.735 0 442.012C0 441.288 0.601965 440.686 1.32431 440.686H650.676C651.398 440.686 652 441.288 652 442.012H651.96Z" fill="#2C2C2D"/>
<path d="M13.7634 445.428L325.979 445.347L638.194 445.468C638.836 445.468 639.358 445.99 639.358 446.633C639.358 447.276 638.836 447.798 638.194 447.798L325.979 447.879L13.7634 447.758C13.1213 447.758 12.5996 447.236 12.5996 446.593C12.5996 445.95 13.1213 445.428 13.7634 445.428Z" fill="#2C2C2D"/>
<path d="M26.2064 450.128L325.941 449.967L625.676 450.168C626.237 450.168 626.679 450.61 626.679 451.173C626.679 451.735 626.237 452.177 625.676 452.177L325.941 452.338L26.2064 452.137C25.6446 452.137 25.2031 451.695 25.2031 451.133C25.2031 450.57 25.6446 450.128 26.2064 450.128Z" fill="#2C2C2D"/>
<path d="M38.6845 454.829L182.312 454.668L325.939 454.588L469.566 454.668L613.193 454.829C613.674 454.829 614.035 455.191 614.035 455.673C614.035 456.155 613.674 456.517 613.193 456.517L469.566 456.677L325.939 456.758L182.312 456.677L38.6845 456.517C38.203 456.517 37.8418 456.155 37.8418 455.673C37.8418 455.191 38.203 454.829 38.6845 454.829Z" fill="#2C2C2D"/>
<path d="M51.1247 459.531L119.828 459.371H188.531L325.938 459.21L463.345 459.331L532.048 459.411L600.752 459.572C601.153 459.572 601.474 459.893 601.474 460.295C601.474 460.697 601.153 461.018 600.752 461.018L532.048 461.179H463.345L325.938 461.34L188.531 461.219L119.828 461.139L51.1247 460.978C50.7234 460.978 50.4023 460.657 50.4023 460.255C50.4023 459.853 50.7234 459.531 51.1247 459.531Z" fill="#2C2C2D"/>
<path d="M63.6078 464.193L129.181 464.032H194.754L325.901 463.872L457.047 463.992L522.62 464.072L588.194 464.273C588.515 464.273 588.795 464.555 588.795 464.876C588.795 465.198 588.515 465.479 588.194 465.479L522.62 465.64H457.047L325.901 465.8L194.754 465.68L129.181 465.599L63.6078 465.399C63.2867 465.399 63.0059 465.117 63.0059 464.796C63.0059 464.474 63.2867 464.193 63.6078 464.193Z" fill="#2C2C2D"/>
<path d="M76.048 468.854L138.491 468.653L200.934 468.572L325.86 468.452L450.786 468.612L513.229 468.693L575.673 468.894C575.913 468.894 576.154 469.095 576.154 469.376C576.154 469.617 575.953 469.858 575.673 469.858L513.229 470.059L450.786 470.139L325.86 470.26L200.934 470.099L138.491 470.019L76.048 469.818C75.8072 469.818 75.5664 469.617 75.5664 469.336C75.5664 469.095 75.7671 468.854 76.048 468.854Z" fill="#2C2C2D"/>
<path d="M88.4881 473.514L147.841 473.313L207.194 473.233L325.86 473.112L444.526 473.273L503.879 473.353L563.232 473.554C563.432 473.554 563.593 473.715 563.593 473.916C563.593 474.117 563.432 474.278 563.232 474.278L503.879 474.479L444.526 474.559L325.86 474.679L207.194 474.519L147.841 474.438L88.4881 474.237C88.2875 474.237 88.127 474.077 88.127 473.876C88.127 473.675 88.2875 473.514 88.4881 473.514Z" fill="#2C2C2D"/>
<path d="M100.966 478.136L157.189 477.935L213.412 477.854L325.858 477.734L438.303 477.895L494.526 477.975L550.749 478.216C550.749 478.216 551.03 478.337 551.03 478.497C551.03 478.658 550.91 478.779 550.749 478.779L494.526 478.98L438.303 479.06L325.858 479.18L213.412 479.02L157.189 478.939L100.966 478.698C100.966 478.698 100.686 478.578 100.686 478.417C100.686 478.256 100.806 478.136 100.966 478.136Z" fill="#2C2C2D"/>
<path d="M113.408 482.757L166.5 482.556L219.593 482.476L325.818 482.355L432.044 482.516L485.136 482.596L538.229 482.837C538.229 482.837 538.43 482.917 538.43 483.038C538.43 483.159 538.349 483.239 538.229 483.239L485.136 483.44L432.044 483.52L325.818 483.641L219.593 483.48L166.5 483.4L113.408 483.159C113.408 483.159 113.207 483.078 113.207 482.958C113.207 482.837 113.287 482.757 113.408 482.757Z" fill="#2C2C2D"/>
<path d="M125.851 487.378L175.853 487.177L225.856 487.097L325.821 486.977L425.786 487.137L475.789 487.218L525.791 487.459C525.791 487.459 525.912 487.499 525.912 487.579C525.912 487.66 525.872 487.7 525.791 487.7L475.789 487.901L425.786 487.981L325.821 488.102L225.856 487.941L175.853 487.861L125.851 487.62C125.851 487.62 125.73 487.579 125.73 487.499C125.73 487.419 125.771 487.378 125.851 487.378Z" fill="#2C2C2D"/>
<path d="M138.33 491.999L185.203 491.798H232.075L325.82 491.638L419.565 491.798L466.437 491.879L513.31 492.08C513.31 492.08 513.39 492.08 513.39 492.16C513.39 492.2 513.39 492.24 513.31 492.24L466.437 492.441H419.565L325.82 492.602L232.075 492.441L185.203 492.361L138.33 492.16C138.33 492.16 138.25 492.16 138.25 492.08C138.25 492.039 138.25 491.999 138.33 491.999Z" fill="#2C2C2D"/>
<path d="M150.771 496.579L194.514 496.418H238.256L325.781 496.257L413.305 496.418L457.047 496.498L500.79 496.699L457.047 496.86H413.305L325.781 497.021L238.256 496.86L194.514 496.78L150.771 496.579Z" fill="#2C2C2D"/>
<path d="M163.25 501.16L203.862 501.039L244.514 500.999L325.779 500.919L407.043 501.039L447.695 501.12L488.307 501.321L447.695 501.481L407.043 501.522L325.779 501.602L244.514 501.441L203.862 501.361L163.25 501.16Z" fill="#2C2C2D"/>
<path d="M1.76675 440.765L163.252 501.16L0.84375 443.297L1.76675 440.765Z" fill="#2C2C2D"/>
<path d="M74.0427 440.805L199.37 501.2L72.8789 443.216L74.0427 440.805Z" fill="#2C2C2D"/>
<path d="M146.356 440.925L235.486 501.2L144.871 443.135L146.356 440.925Z" fill="#2C2C2D"/>
<path d="M218.752 441.126L271.603 501.199L216.785 442.934L218.752 441.126Z" fill="#2C2C2D"/>
<path d="M291.188 441.649L307.721 501.24L288.619 442.412L291.188 441.649Z" fill="#2C2C2D"/>
<path d="M363.341 442.412L343.838 501.24L360.773 441.649L363.341 442.412Z" fill="#2C2C2D"/>
<path d="M435.175 442.934L379.955 501.28L433.208 441.126L435.175 442.934Z" fill="#2C2C2D"/>
<path d="M507.09 443.135L416.074 501.28L505.605 440.925L507.09 443.135Z" fill="#2C2C2D"/>
<path d="M579.042 443.216L452.189 501.321L577.918 440.805L579.042 443.216Z" fill="#2C2C2D"/>
<path d="M651.118 443.297L488.309 501.321L650.195 440.766L651.118 443.297Z" fill="#2C2C2D"/>
<path d="M1.32812 550.786L21.6342 550.505L41.9402 550.304L82.5121 549.902C109.56 549.701 136.608 549.5 163.696 549.379C190.744 549.219 217.792 549.179 244.88 549.058L326.064 548.938L407.248 549.058C434.296 549.179 461.344 549.179 488.432 549.379C515.48 549.5 542.528 549.701 569.616 549.902L610.188 550.304L630.494 550.505L650.8 550.786L630.494 551.067L610.188 551.268L569.616 551.67C542.568 551.871 515.52 552.072 488.432 552.192C461.384 552.353 434.336 552.393 407.248 552.514L326.064 552.634L244.88 552.514C217.832 552.393 190.784 552.393 163.696 552.192C136.648 552.072 109.6 551.871 82.5121 551.67L41.9402 551.268L21.6342 551.067L1.32812 550.786Z" fill="#2C2C2D"/>
</svg>
