<svg width="841" height="837" viewBox="0 0 841 837" fill="none" xmlns="http://www.w3.org/2000/svg">
<path d="M825.632 451.326C825.131 451.293 824.73 451.46 824.363 451.794C823.995 452.128 823.795 452.596 823.761 453.13L822.959 464.324L817.078 463.923L817.88 452.73C817.914 452.161 817.78 451.694 817.479 451.326C817.179 450.959 816.778 450.725 816.276 450.691C815.976 450.691 815.642 450.725 815.241 450.892L805.116 455.87L802.543 450.524L812.668 445.612C813.369 445.345 813.737 444.844 813.77 444.109C813.804 443.44 813.503 442.906 812.868 442.471L803.546 436.089L806.854 431.244L816.176 437.526C816.544 437.727 816.844 437.86 817.179 437.86C817.68 437.86 818.081 437.76 818.448 437.459C818.816 437.158 819.016 436.724 819.05 436.156L819.852 424.862L825.733 425.263L824.931 436.557C824.897 437.092 825.031 437.559 825.332 437.927C825.632 438.295 826.033 438.495 826.535 438.528C826.835 438.528 827.169 438.495 827.57 438.328L837.695 433.416L840.268 438.662L830.143 443.641C829.442 443.975 829.074 444.443 829.041 445.144C829.007 445.813 829.275 446.347 829.943 446.782L839.265 453.064L835.957 457.976L826.635 451.593C826.267 451.393 825.967 451.259 825.632 451.259V451.326Z" fill="#EAEAEA"/>
<path d="M757.2 517.353L787.173 524.771C788.142 524.938 788.743 524.603 788.944 523.701L799.87 479.427L811.298 482.234L800.371 526.508C800.204 527.21 800.137 527.644 800.238 527.811C800.338 527.945 800.739 528.112 801.44 528.312L811.431 530.785C812.333 531.019 812.935 530.651 813.202 529.716L824.129 485.442L835.556 488.249L824.964 531.086C824.73 532.021 824.463 532.79 824.162 533.391C823.861 533.993 823.293 534.528 822.491 535.029L811.799 541.478C810.997 541.979 810.262 542.213 809.594 542.213C808.925 542.213 808.123 542.079 807.188 541.845L805.751 541.478C804.782 541.244 803.947 540.876 803.245 540.342C802.51 539.807 801.708 538.771 800.739 537.201L795.727 526.876C795.426 526.341 795.025 526.04 794.557 525.907C794.022 525.773 793.454 525.873 792.886 526.141L783.631 532.957C782.06 533.893 780.857 534.427 779.955 534.561C779.086 534.695 778.151 534.628 777.215 534.394L761.51 530.518C760.007 530.15 758.737 529.449 757.634 528.379C756.532 527.31 755.797 526.007 755.429 524.47L750.718 494.531C750.283 492.526 750.25 490.488 750.718 488.449L755.663 468.468L767.091 471.274L756.164 515.548C755.997 516.517 756.331 517.119 757.233 517.319L757.2 517.353Z" fill="#EAEAEA"/>
<path d="M771.769 600.754C771.368 601.256 770.699 601.69 769.797 602.024L758.035 606.234C757.133 606.569 756.365 606.635 755.73 606.502C755.095 606.368 754.326 606.101 753.424 605.666L732.139 595.609C730.736 594.94 729.633 594.005 728.765 592.735C727.896 591.465 727.428 590.062 727.361 588.458L728.664 558.151C728.631 556.113 728.998 554.108 729.834 552.204L732.975 545.554C733.342 544.652 733.108 543.984 732.273 543.583L712.325 534.16L717.337 523.534L791.784 558.753L772.905 598.649C772.47 599.552 772.069 600.253 771.668 600.754H771.769ZM743.667 550.6L729.834 579.837C729.433 580.673 729.667 581.307 730.536 581.809L759.773 595.642C760.608 596.043 761.243 595.809 761.744 594.94L775.578 565.703C775.945 564.801 775.712 564.133 774.876 563.732L745.639 549.898C744.737 549.531 744.068 549.764 743.667 550.6Z" fill="#EAEAEA"/>
<path d="M746.34 622.073C746.775 622.574 747.042 623.309 747.176 624.245L748.98 636.608C749.114 637.544 749.047 638.312 748.78 638.947C748.512 639.582 748.078 640.25 747.51 641.052L729.934 664.643C729.333 665.444 728.798 666.046 728.297 666.447C727.796 666.848 727.06 667.149 726.125 667.282L713.762 669.087C712.826 669.22 712.057 669.153 711.423 668.886C710.788 668.619 710.119 668.184 709.317 667.616L685.727 650.041C684.925 649.472 684.324 648.904 683.923 648.403C683.488 647.902 683.221 647.167 683.087 646.231L681.283 633.868C681.149 632.932 681.216 632.164 681.483 631.529C681.751 630.928 682.185 630.226 682.753 629.424L700.329 605.833C700.93 605.032 701.465 604.43 701.966 604.029C702.468 603.595 703.203 603.327 704.138 603.194L716.501 601.389C717.437 601.256 718.206 601.323 718.841 601.59C719.475 601.857 720.144 602.292 720.946 602.86L744.536 620.435C745.338 621.037 745.939 621.572 746.34 622.073ZM710.687 611.714L691.341 637.677C690.806 638.513 690.906 639.181 691.641 639.749L717.604 659.096C718.339 659.664 719.041 659.53 719.676 658.795L739.023 632.832C739.557 631.997 739.457 631.329 738.722 630.761L712.759 611.414C712.024 610.879 711.322 610.979 710.687 611.714Z" fill="#EAEAEA"/>
<path d="M665.879 713.026L689.937 691.374C690.639 690.672 690.672 689.971 690.037 689.302L659.53 655.42L668.285 647.534L707.68 691.24L674.901 720.779C674.166 721.447 673.531 721.915 672.929 722.249C672.328 722.583 671.593 722.683 670.624 722.65L658.16 722.015C657.191 721.948 656.456 721.748 655.921 721.38C655.387 721.012 654.785 720.444 654.117 719.709L624.579 686.93L633.333 679.044L663.841 712.926C664.442 713.594 665.144 713.628 665.912 713.026H665.879Z" fill="#EAEAEA"/>
<path d="M649.606 768.828L638.346 749.849C637.844 749.014 637.176 748.846 636.341 749.348L597.112 772.604L591.098 762.48L630.326 739.223C631.162 738.722 631.329 738.054 630.827 737.218L614.321 709.384C613.753 708.582 613.084 708.415 612.316 708.883L573.088 732.139L567.073 722.015L584.783 711.523C586.62 710.52 588.525 709.919 590.597 709.785L620.636 705.642C622.24 705.542 623.677 705.876 625.013 706.611C626.35 707.346 627.386 708.382 628.188 709.685L659.697 762.814L649.573 768.828H649.606Z" fill="#EAEAEA"/>
<path d="M574.591 769.597C574.658 770.265 574.491 771 574.057 771.869L568.643 783.13C568.242 783.998 567.741 784.6 567.173 784.967C566.605 785.335 565.87 785.669 564.935 786.003L537.167 795.727C536.232 796.061 535.463 796.261 534.795 796.328C534.127 796.395 533.391 796.228 532.523 795.794L521.262 790.38C520.393 789.979 519.792 789.478 519.424 788.91C519.057 788.342 518.723 787.607 518.388 786.671L508.665 758.904C508.331 757.969 508.13 757.2 508.063 756.532C507.997 755.864 508.164 755.128 508.598 754.26L514.011 742.999C514.412 742.13 514.913 741.529 515.481 741.161C516.049 740.794 516.785 740.46 517.72 740.125L545.487 730.402C546.423 730.068 547.192 729.867 547.86 729.8C548.528 729.734 549.263 729.901 550.132 730.335L561.393 735.748C562.261 736.149 562.863 736.65 563.23 737.218C563.598 737.786 563.932 738.522 564.266 739.457L573.99 767.224C574.324 768.16 574.524 768.929 574.591 769.597ZM550.834 741.028L520.293 751.72C519.391 752.088 519.09 752.723 519.391 753.591L530.083 784.132C530.384 785.001 531.019 785.301 531.955 785.034L562.495 774.342C563.397 773.974 563.698 773.339 563.397 772.47L552.705 741.93C552.404 741.061 551.769 740.76 550.834 741.028Z" fill="#EAEAEA"/>
<path d="M488.416 783.998C488.115 783.764 487.748 783.664 487.313 783.731L456.706 787.941C455.737 788.075 454.935 788.108 454.267 788.041C453.598 787.975 452.897 787.64 452.128 787.072L442.171 779.521C441.402 778.953 440.901 778.385 440.7 777.817C440.466 777.249 440.266 776.447 440.132 775.344L439.33 769.53C439.197 768.561 439.163 767.759 439.23 767.091C439.297 766.422 439.631 765.721 440.199 764.952L447.751 754.995C448.319 754.226 448.92 753.725 449.555 753.491C450.157 753.257 450.959 753.057 451.928 752.923L495.633 746.908L497.237 758.57L452.061 764.785C451.159 764.919 450.725 765.453 450.791 766.456L451.994 775.21C452.128 776.112 452.663 776.547 453.665 776.48L484.272 772.27C485.241 772.136 486.043 772.103 486.712 772.17C487.38 772.236 488.082 772.537 488.85 773.139L498.808 780.69C499.844 781.492 500.545 782.862 500.879 784.867C501.08 786.437 500.879 787.941 500.311 789.311C499.743 790.681 498.774 791.851 497.505 792.753L471.408 808.224C469.704 809.393 467.833 810.128 465.794 810.496L445.412 813.303L443.808 801.641L488.984 795.426C489.418 795.359 489.752 795.192 489.986 794.858C490.22 794.557 490.32 794.19 490.254 793.755L489.051 785.001C488.984 784.566 488.817 784.232 488.483 783.998H488.416Z" fill="#EAEAEA"/>
<path d="M400.269 822.391C400.269 821.89 400.102 821.489 399.768 821.121C399.4 820.787 398.966 820.587 398.398 820.553L387.204 820.186L387.405 814.305L398.598 814.673C399.167 814.673 399.601 814.539 400.002 814.205C400.369 813.871 400.57 813.47 400.603 812.968C400.603 812.668 400.536 812.334 400.369 811.966L394.99 802.042L400.236 799.269L405.515 809.193C405.783 809.861 406.317 810.228 407.052 810.262C407.721 810.262 408.255 809.961 408.656 809.293L414.671 799.736L419.616 802.844L413.702 812.4C413.501 812.768 413.401 813.102 413.401 813.403C413.401 813.904 413.535 814.305 413.869 814.673C414.203 815.007 414.637 815.207 415.172 815.207L426.466 815.575L426.265 821.456L414.971 821.088C414.403 821.088 413.969 821.222 413.635 821.556C413.301 821.89 413.1 822.291 413.1 822.792C413.1 823.093 413.167 823.427 413.334 823.795L418.614 833.719L413.468 836.492L408.088 826.568C407.754 825.866 407.219 825.532 406.551 825.499C405.883 825.499 405.348 825.799 404.947 826.468L399.033 836.024L393.987 832.917L400.002 823.36C400.202 822.993 400.303 822.659 400.303 822.358L400.269 822.391Z" fill="#EAEAEA"/>
<path d="M331.636 756.665L325.421 786.939C325.288 787.908 325.655 788.476 326.557 788.676L371.232 797.832L368.86 809.36L324.185 800.204C323.45 800.07 323.049 800.037 322.882 800.137C322.748 800.237 322.581 800.638 322.447 801.374L320.376 811.465C320.175 812.367 320.576 812.935 321.512 813.202L366.187 822.358L363.814 833.886L320.576 825.031C319.607 824.83 318.839 824.596 318.237 824.329C317.636 824.062 317.068 823.494 316.566 822.725L309.683 812.3C309.149 811.498 308.881 810.763 308.848 810.128C308.848 809.46 308.915 808.658 309.115 807.689L309.416 806.252C309.616 805.283 309.95 804.448 310.452 803.713C310.953 802.977 311.955 802.109 313.492 801.106L323.617 795.66C324.118 795.326 324.419 794.925 324.519 794.423C324.619 793.889 324.519 793.321 324.218 792.753L317.034 783.764C316.032 782.227 315.464 781.058 315.297 780.155C315.13 779.287 315.163 778.351 315.33 777.382L318.571 761.544C318.872 760.04 319.54 758.737 320.543 757.601C321.545 756.465 322.815 755.663 324.352 755.229L354.091 749.314C356.062 748.78 358.1 748.679 360.139 749.047L380.321 753.19L377.948 764.718L333.274 755.563C332.305 755.429 331.737 755.797 331.536 756.699L331.636 756.665Z" fill="#EAEAEA"/>
<path d="M248.836 774.509C248.301 774.108 247.867 773.473 247.499 772.604L242.821 761.043C242.454 760.174 242.353 759.405 242.454 758.737C242.554 758.069 242.821 757.3 243.189 756.398L252.411 734.746C253.013 733.342 253.915 732.173 255.151 731.271C256.387 730.368 257.791 729.834 259.361 729.7L289.701 729.8C291.74 729.667 293.745 730.001 295.683 730.736L302.466 733.61C303.401 733.944 304.036 733.676 304.404 732.841L313.025 712.525L323.851 717.136L291.606 792.953L251.008 775.678C250.106 775.311 249.37 774.91 248.869 774.509H248.836ZM297.855 744.469L268.082 731.805C267.247 731.438 266.579 731.705 266.144 732.574L253.48 762.346C253.113 763.181 253.38 763.849 254.249 764.284L284.021 776.948C284.957 777.282 285.592 777.015 285.959 776.179L298.623 746.407C298.957 745.472 298.69 744.837 297.855 744.469Z" fill="#EAEAEA"/>
<path d="M226.515 749.949C226.014 750.383 225.312 750.684 224.377 750.885L212.114 753.19C211.178 753.357 210.409 753.324 209.775 753.09C209.173 752.856 208.438 752.455 207.636 751.887L183.377 735.247C182.575 734.679 181.94 734.178 181.506 733.676C181.072 733.175 180.738 732.473 180.57 731.538L178.298 719.275C178.131 718.339 178.165 717.571 178.399 716.936C178.632 716.334 179.033 715.599 179.601 714.797L196.242 690.539C196.81 689.737 197.311 689.102 197.812 688.667C198.313 688.233 199.015 687.899 199.951 687.732L212.214 685.426C213.149 685.259 213.918 685.293 214.553 685.526C215.188 685.76 215.889 686.161 216.691 686.729L240.95 703.37C241.752 703.938 242.387 704.439 242.821 704.94C243.256 705.441 243.59 706.143 243.757 707.079L246.062 719.342C246.229 720.277 246.196 721.046 245.962 721.681C245.728 722.282 245.327 723.017 244.759 723.819L228.119 748.078C227.551 748.88 227.05 749.515 226.548 749.949H226.515ZM235.437 713.895L208.739 695.618C207.903 695.116 207.202 695.25 206.7 695.985L188.389 722.683C187.855 723.452 187.988 724.12 188.757 724.721L215.455 742.999C216.29 743.5 216.992 743.366 217.493 742.631L235.804 715.933C236.339 715.165 236.205 714.497 235.437 713.895Z" fill="#EAEAEA"/>
<path d="M132.487 673.163L155.076 696.353C155.811 697.021 156.512 697.021 157.147 696.353L189.793 664.542L198.013 672.963L155.877 714.029L125.07 682.419C124.368 681.717 123.867 681.082 123.532 680.514C123.198 679.946 123.031 679.178 123.031 678.242L123.198 665.745C123.198 664.776 123.399 664.041 123.733 663.473C124.101 662.905 124.602 662.304 125.303 661.602L156.913 630.794L165.133 639.214L132.487 671.025C131.819 671.66 131.819 672.361 132.487 673.096V673.163Z" fill="#EAEAEA"/>
<path d="M76.1177 659.096L94.6292 647.1C95.4645 646.566 95.5982 645.897 95.0636 645.062L70.2702 606.803L80.1608 600.387L104.954 638.646C105.489 639.482 106.157 639.615 106.992 639.081L134.158 621.471C134.96 620.903 135.094 620.202 134.593 619.433L109.799 581.174L119.69 574.758L130.884 592.033C131.953 593.804 132.621 595.742 132.855 597.781L138.168 627.62C138.302 629.19 138.034 630.66 137.366 632.03C136.664 633.4 135.695 634.47 134.392 635.305L82.5332 668.886L76.1177 658.996V659.096Z" fill="#EAEAEA"/>
<path d="M72.3418 584.114C71.6735 584.215 70.9384 584.081 70.0362 583.68L58.5751 578.701C57.7064 578.334 57.0715 577.866 56.7039 577.331C56.3364 576.797 55.9688 576.061 55.6013 575.159L44.8085 547.793C44.4409 546.891 44.207 546.089 44.1402 545.454C44.0399 544.786 44.1736 544.051 44.5746 543.148L49.5533 531.687C49.9208 530.819 50.3886 530.184 50.9233 529.816C51.4579 529.449 52.193 529.081 53.0952 528.713L80.4615 517.921C81.3636 517.553 82.1656 517.319 82.8005 517.252C83.4687 517.152 84.2038 517.319 85.106 517.687L96.5671 522.665C97.4359 523.033 98.0708 523.501 98.4383 524.035C98.8059 524.57 99.1734 525.305 99.541 526.207L110.334 553.574C110.701 554.476 110.935 555.278 111.002 555.913C111.102 556.581 110.969 557.349 110.568 558.218L105.589 569.679C105.221 570.548 104.754 571.183 104.219 571.551C103.684 571.918 102.949 572.286 102.047 572.653L74.6808 583.446C73.7786 583.814 72.9767 584.047 72.3418 584.114ZM99.9085 559.254L88.0131 529.148C87.6121 528.246 86.9438 527.978 86.1085 528.312L56.0022 540.208C55.1335 540.542 54.8661 541.177 55.1669 542.113L67.0623 572.219C67.4633 573.121 68.0982 573.388 68.967 573.054L99.0732 561.159C99.942 560.825 100.209 560.19 99.9085 559.254Z" fill="#EAEAEA"/>
<path d="M54.5321 498.674C54.766 498.34 54.8328 497.972 54.766 497.571L49.3529 467.164C49.1858 466.195 49.119 465.393 49.1524 464.725C49.1858 464.057 49.4866 463.355 50.0212 462.553L57.1718 452.328C57.7065 451.56 58.2745 451.025 58.8091 450.791C59.3438 450.524 60.1791 450.324 61.2484 450.123L67.029 449.087C67.998 448.92 68.8 448.853 69.4683 448.887C70.1366 448.92 70.8383 449.221 71.6402 449.756L81.865 456.906C82.6335 457.441 83.1681 458.009 83.4354 458.644C83.7027 459.279 83.9032 460.047 84.1037 461.016L91.8558 504.455L80.2611 506.526L72.2751 461.651C72.108 460.749 71.54 460.348 70.5709 460.448L61.8832 461.985C60.9811 462.152 60.5801 462.72 60.6803 463.689L66.0934 494.096C66.2605 495.065 66.3273 495.867 66.2939 496.536C66.2605 497.204 65.9598 497.906 65.4251 498.707L58.2745 508.932C57.5394 510.001 56.1694 510.737 54.198 511.171C52.6275 511.438 51.1573 511.338 49.7539 510.803C48.3505 510.269 47.181 509.4 46.212 508.13L29.7387 482.669C28.5024 481.031 27.6671 479.16 27.2661 477.122L23.6573 456.839L35.2521 454.768L43.2381 499.643C43.3049 500.077 43.5054 500.378 43.8395 500.612C44.1737 500.846 44.5412 500.913 44.9422 500.846L53.6299 499.309C54.0643 499.242 54.365 499.042 54.5989 498.707L54.5321 498.674Z" fill="#EAEAEA"/>
<path d="M14.6354 385.199C15.1366 385.233 15.5376 385.066 15.9052 384.732C16.2727 384.397 16.4732 383.93 16.5066 383.395L17.3086 372.201L23.1895 372.602L22.3875 383.796C22.3541 384.364 22.4878 384.832 22.7885 385.199C23.0892 385.567 23.4902 385.801 23.9914 385.834C24.2921 385.834 24.6263 385.801 25.0273 385.634L35.1518 380.655L37.7247 386.001L27.6002 390.913C26.8985 391.18 26.5309 391.682 26.4975 392.417C26.4641 393.085 26.7648 393.62 27.3997 394.054L36.7222 400.436L33.4142 405.281L24.0917 398.999C23.7241 398.799 23.4234 398.665 23.0892 398.665C22.588 398.632 22.1871 398.766 21.8195 399.066C21.4519 399.367 21.2515 399.801 21.218 400.369L20.4161 411.663L14.5352 411.262L15.3371 399.968C15.3705 399.434 15.2369 398.966 14.9362 398.598C14.6354 398.231 14.2345 398.03 13.7333 397.997C13.4325 397.997 13.0984 398.03 12.6974 398.197L2.5729 403.109L0 397.863L10.1245 392.885C10.8262 392.55 11.1938 392.083 11.2272 391.381C11.2606 390.713 10.9933 390.178 10.325 389.744L1.00243 383.462L4.31044 378.55L13.633 384.932C14.0006 385.133 14.3013 385.266 14.6354 385.266V385.199Z" fill="#EAEAEA"/>
<path d="M83.0344 319.173L53.0618 311.755C52.0928 311.588 51.4913 311.922 51.2908 312.824L40.3644 357.098L28.9367 354.291L39.8632 310.017C40.0302 309.316 40.0971 308.881 39.9968 308.714C39.8966 308.58 39.4956 308.413 38.7939 308.213L28.8031 305.74C27.9009 305.506 27.3328 305.874 27.0321 306.81L16.1056 351.083L4.67798 348.277L15.2703 305.44C15.5042 304.471 15.7715 303.702 16.0722 303.134C16.373 302.566 16.941 301.998 17.7429 301.497L28.4355 295.048C29.2709 294.547 30.006 294.313 30.6408 294.313C31.3091 294.313 32.1111 294.446 33.0467 294.68L34.4835 295.048C35.4525 295.282 36.2878 295.649 36.9895 296.184C37.7247 296.718 38.56 297.754 39.4956 299.325L44.5078 309.65C44.8085 310.184 45.2095 310.485 45.6773 310.619C46.2119 310.752 46.7799 310.652 47.348 310.351L56.6037 303.535C58.1742 302.599 59.3771 302.065 60.2793 301.931C61.148 301.797 62.0836 301.864 63.0192 302.098L78.7239 305.974C80.2276 306.342 81.4973 307.043 82.6 308.113C83.7027 309.182 84.4378 310.485 84.8053 312.022L89.5167 341.961C89.9511 343.966 89.9845 346.004 89.5167 348.043L84.5714 368.024L73.1438 365.218L84.0702 320.944C84.2373 319.975 83.9031 319.373 83.001 319.173H83.0344Z" fill="#EAEAEA"/>
<path d="M68.4992 235.804C68.9002 235.303 69.5685 234.869 70.4706 234.535L82.2324 230.324C83.1346 229.99 83.9032 229.923 84.538 230.057C85.1729 230.191 85.9414 230.458 86.8436 230.892L108.128 240.95C109.532 241.618 110.635 242.554 111.503 243.824C112.372 245.093 112.84 246.497 112.907 248.101L111.604 278.407C111.637 280.446 111.269 282.451 110.434 284.355L107.293 291.005C106.926 291.907 107.159 292.575 107.995 292.976L127.943 302.399L122.931 313.025L48.4841 277.806L67.3631 237.909C67.7975 237.007 68.1985 236.305 68.5994 235.804H68.4992ZM96.6006 285.926L110.434 256.688C110.835 255.853 110.601 255.218 109.732 254.717L80.4949 240.883C79.6596 240.482 79.0247 240.716 78.5235 241.585L64.69 270.822C64.3224 271.725 64.5563 272.393 65.3917 272.794L94.6291 286.627C95.5313 286.995 96.1996 286.761 96.6006 285.926Z" fill="#EAEAEA"/>
<path d="M93.8941 214.453C93.4597 213.951 93.1924 213.216 93.0587 212.281L91.2543 199.917C91.1207 198.982 91.1875 198.213 91.4548 197.578C91.7221 196.977 92.1565 196.275 92.7246 195.473L110.3 171.883C110.868 171.081 111.437 170.479 111.938 170.079C112.439 169.644 113.174 169.377 114.11 169.243L126.473 167.439C127.409 167.305 128.177 167.372 128.812 167.639C129.413 167.907 130.115 168.341 130.884 168.909L154.474 186.485C155.276 187.086 155.877 187.621 156.278 188.122C156.713 188.623 156.98 189.359 157.114 190.294L158.918 202.657C159.052 203.593 158.985 204.362 158.718 204.996C158.45 205.598 158.016 206.3 157.448 207.101L139.872 230.692C139.271 231.494 138.736 232.095 138.235 232.496C137.734 232.931 136.998 233.198 136.063 233.332L123.7 235.136C122.764 235.27 121.995 235.203 121.361 234.936C120.726 234.668 120.057 234.234 119.255 233.666L95.665 216.09C94.8631 215.522 94.2616 214.954 93.8606 214.453H93.8941ZM129.58 224.811L148.927 198.848C149.462 198.013 149.362 197.345 148.627 196.776L122.664 177.43C121.929 176.862 121.227 176.995 120.592 177.73L101.245 203.693C100.711 204.529 100.811 205.197 101.546 205.765L127.509 225.112C128.244 225.646 128.946 225.546 129.58 224.811Z" fill="#EAEAEA"/>
<path d="M174.355 123.499L150.297 145.151C149.596 145.853 149.562 146.555 150.197 147.223L180.704 181.105L171.95 188.991L132.554 145.285L165.334 115.747C166.069 115.079 166.704 114.611 167.305 114.277C167.907 113.943 168.642 113.842 169.611 113.876L182.074 114.511C183.043 114.577 183.778 114.778 184.313 115.145C184.848 115.513 185.449 116.081 186.117 116.816L215.655 149.596L206.901 157.481L176.394 123.599C175.792 122.931 175.091 122.898 174.322 123.499H174.355Z" fill="#EAEAEA"/>
<path d="M190.662 67.6973L201.922 86.6765C202.423 87.5119 203.092 87.679 203.927 87.1778L243.155 63.9214L249.17 74.046L209.942 97.3023C209.106 97.8035 208.939 98.4718 209.44 99.3071L225.947 127.141C226.515 127.943 227.183 128.11 227.952 127.642L267.18 104.386L273.195 114.511L255.485 125.003C253.681 126.005 251.743 126.607 249.671 126.74L219.632 130.884C218.028 130.984 216.591 130.65 215.255 129.915C213.918 129.179 212.882 128.144 212.08 126.84L180.571 73.7118L190.695 67.6973H190.662Z" fill="#EAEAEA"/>
<path d="M265.643 66.9621C265.576 66.2938 265.743 65.5587 266.178 64.6899L271.591 53.4293C271.992 52.5606 272.493 51.9591 273.061 51.5916C273.629 51.224 274.364 50.8899 275.3 50.5557L303.067 40.8322C304.003 40.498 304.771 40.2975 305.44 40.2307C306.108 40.1639 306.843 40.331 307.712 40.7653L318.972 46.1784C319.841 46.5794 320.443 47.0806 320.777 47.6487C321.144 48.2167 321.478 48.9518 321.812 49.8874L331.536 77.6547C331.87 78.5903 332.037 79.3588 332.104 80.0271C332.171 80.6954 332.004 81.4305 331.569 82.2992L326.156 93.5264C325.755 94.3952 325.254 94.9966 324.686 95.3642C324.118 95.7318 323.383 96.0659 322.447 96.4L294.68 106.124C293.745 106.458 292.976 106.658 292.308 106.725C291.639 106.792 290.904 106.625 290.036 106.19L278.775 100.777C277.906 100.376 277.305 99.8751 276.937 99.3071C276.57 98.739 276.235 98.0039 275.901 97.0683L266.178 69.3011C265.844 68.3655 265.643 67.597 265.576 66.9287L265.643 66.9621ZM289.401 95.4979L319.941 84.8053C320.843 84.4377 321.144 83.8029 320.843 82.9341L310.151 52.3935C309.85 51.5247 309.215 51.224 308.28 51.4913L277.739 62.1839C276.837 62.5514 276.536 63.1863 276.837 64.0551L287.53 94.5957C287.83 95.4644 288.465 95.7652 289.401 95.4979Z" fill="#EAEAEA"/>
<path d="M351.819 52.5272C352.119 52.7611 352.487 52.8613 352.921 52.7945L383.529 48.5843C384.498 48.4507 385.3 48.4172 385.968 48.4841C386.636 48.5509 387.338 48.8516 388.106 49.4531L398.064 57.0047C398.832 57.5727 399.334 58.1408 399.534 58.7088C399.768 59.2769 399.968 60.0788 400.102 61.1815L400.904 66.9956C401.038 67.9646 401.071 68.7999 401.004 69.4348C400.937 70.1031 400.603 70.8048 400.035 71.5733L392.484 81.5308C391.916 82.2993 391.314 82.8005 390.679 83.0344C390.078 83.2683 389.276 83.4688 388.307 83.6024L344.601 89.617L342.997 77.9554L388.173 71.7404C389.075 71.6067 389.51 71.0721 389.443 70.0697L388.24 61.3151C388.106 60.413 387.572 59.9786 386.569 60.0454L355.962 64.2556C354.993 64.3892 354.191 64.4227 353.523 64.3558C352.854 64.289 352.153 63.9883 351.384 63.3868L341.427 55.8352C340.391 55.0333 339.689 53.6633 339.355 51.6584C339.155 50.0879 339.355 48.5843 339.923 47.2143C340.491 45.8443 341.46 44.6748 342.73 43.7727L368.826 28.3019C370.53 27.1324 372.402 26.3973 374.44 26.0297L394.856 23.2229L396.46 34.8845L351.284 41.0995C350.85 41.1663 350.515 41.3334 350.281 41.6676C350.048 41.9683 349.947 42.3358 350.014 42.7702L351.217 51.5248C351.284 51.9591 351.451 52.2933 351.785 52.5272H351.819Z" fill="#EAEAEA"/>
<path d="M439.965 14.1342C439.965 14.6354 440.132 15.0364 440.467 15.404C440.801 15.7715 441.268 15.9386 441.836 15.9386L453.064 16.3061L452.863 22.1871L441.669 21.8195C441.101 21.8195 440.667 21.9532 440.266 22.2873C439.865 22.6214 439.698 23.0224 439.665 23.5236C439.665 23.8244 439.731 24.1585 439.898 24.5595L445.278 34.4835L440.032 37.2569L434.753 27.3328C434.452 26.6646 433.951 26.297 433.216 26.2636C432.547 26.2636 432.013 26.5643 431.612 27.2326L425.597 36.7891L420.652 33.6815L426.566 24.1251C426.767 23.7575 426.867 23.4234 426.867 23.1227C426.867 22.6214 426.733 22.2205 426.399 21.8529C426.065 21.5188 425.631 21.3183 425.096 21.3183L413.802 20.9507L414.002 15.0698L425.296 15.4374C425.864 15.4374 426.299 15.3037 426.633 14.9696C426.967 14.6354 427.168 14.2345 427.168 13.7333C427.168 13.4325 427.101 13.0984 426.934 12.6974L421.654 2.77338L426.8 0L432.18 9.92403C432.514 10.6257 433.049 10.9599 433.717 10.9933C434.385 10.9933 434.92 10.6926 435.321 10.0243L441.235 0.467799L446.281 3.57532L440.266 13.1318C440.066 13.4994 439.965 13.8335 439.965 14.1342Z" fill="#EAEAEA"/>
<path d="M508.631 79.86L514.847 49.5867C514.98 48.6177 514.613 48.0497 513.71 47.8492L469.036 38.6937L471.408 27.1658L516.083 36.3213C516.818 36.4549 517.219 36.4883 517.386 36.3881C517.52 36.2878 517.687 35.8869 517.82 35.1518L519.892 25.0607C520.059 24.1585 519.692 23.5904 518.756 23.3231L474.081 14.1676L476.454 2.63971L519.692 11.4945C520.661 11.695 521.429 11.9289 522.031 12.1962C522.632 12.4635 523.2 12.9981 523.701 13.8001L530.585 24.2253C531.119 25.0272 531.387 25.7624 531.42 26.3972C531.42 27.0655 531.353 27.8675 531.153 28.8365L530.852 30.2733C530.651 31.2423 530.317 32.0777 529.816 32.8128C529.315 33.5479 528.312 34.4167 526.775 35.4191L516.651 40.8656C516.15 41.1997 515.849 41.6007 515.749 42.1019C515.648 42.6366 515.749 43.2046 516.049 43.7726L523.233 52.7611C524.236 54.2647 524.804 55.4676 524.971 56.3698C525.138 57.2386 525.105 58.1742 524.938 59.1432L521.696 74.9815C521.396 76.4852 520.727 77.7883 519.725 78.9244C518.723 80.0605 517.453 80.8624 515.916 81.2968L486.177 87.2111C484.206 87.7458 482.167 87.846 480.129 87.4785L459.947 83.3351L462.319 71.8072L506.994 80.9627C507.963 81.0963 508.531 80.7288 508.732 79.8266L508.631 79.86Z" fill="#EAEAEA"/>
<path d="M591.399 62.0169C591.933 62.4178 592.368 63.0527 592.735 63.9215L597.413 75.4828C597.781 76.3516 597.881 77.1201 597.781 77.7884C597.68 78.4567 597.413 79.2252 597.046 80.1274L587.823 101.78C587.222 103.183 586.32 104.353 585.083 105.255C583.847 106.157 582.443 106.692 580.873 106.825L550.533 106.725C548.495 106.859 546.49 106.525 544.552 105.79L537.769 102.916C536.833 102.582 536.198 102.849 535.831 103.684L527.21 124L516.384 119.389L548.628 43.5722L589.227 60.8474C590.129 61.2149 590.83 61.6159 591.365 62.0169H591.399ZM542.413 92.0897L572.185 104.754C573.021 105.121 573.689 104.854 574.123 103.985L586.787 74.2131C587.155 73.3777 586.888 72.7094 586.019 72.275L556.247 59.611C555.311 59.2769 554.676 59.5442 554.309 60.3796L541.645 90.1516C541.311 91.0872 541.578 91.7221 542.413 92.0897Z" fill="#EAEAEA"/>
<path d="M613.753 86.5763C614.254 86.1419 614.956 85.8078 615.891 85.6407L628.154 83.3351C629.09 83.168 629.858 83.2014 630.493 83.4353C631.095 83.6692 631.83 84.0702 632.632 84.6383L656.89 101.279C657.692 101.847 658.327 102.348 658.762 102.849C659.196 103.35 659.53 104.052 659.697 104.988L661.969 117.251C662.136 118.186 662.103 118.955 661.869 119.59C661.635 120.191 661.234 120.926 660.666 121.728L644.026 145.987C643.458 146.789 642.957 147.424 642.455 147.858C641.954 148.292 641.253 148.627 640.317 148.794L628.054 151.099C627.118 151.266 626.35 151.233 625.715 150.999C625.08 150.765 624.378 150.364 623.576 149.796L599.318 133.156C598.516 132.588 597.881 132.086 597.446 131.585C597.012 131.084 596.678 130.382 596.511 129.447L594.205 117.184C594.038 116.248 594.072 115.48 594.306 114.845C594.539 114.243 594.94 113.508 595.508 112.706L612.149 88.4475C612.717 87.6455 613.218 87.0107 613.719 86.5763H613.753ZM604.798 122.63L631.496 140.941C632.331 141.442 633.033 141.309 633.534 140.574L651.845 113.876C652.379 113.107 652.246 112.439 651.477 111.837L624.779 93.5599C623.944 93.0586 623.242 93.1923 622.741 93.9274L604.43 120.625C603.895 121.394 604.029 122.062 604.798 122.664V122.63Z" fill="#EAEAEA"/>
<path d="M707.78 163.396L685.192 140.206C684.457 139.538 683.755 139.538 683.121 140.206L650.475 172.017L642.255 163.596L684.39 122.53L715.198 154.14C715.9 154.842 716.401 155.476 716.735 156.045C717.069 156.613 717.237 157.381 717.237 158.317L717.069 170.78C717.069 171.749 716.869 172.484 716.535 173.052C716.167 173.62 715.666 174.222 714.964 174.924L683.354 205.731L675.135 197.311L707.78 165.501C708.449 164.866 708.449 164.164 707.78 163.429V163.396Z" fill="#EAEAEA"/>
<path d="M764.15 177.43L745.639 189.425C744.803 189.96 744.67 190.628 745.204 191.464L769.998 229.723L760.107 236.138L735.314 197.879C734.779 197.044 734.111 196.91 733.275 197.445L706.11 215.054C705.308 215.622 705.174 216.324 705.675 217.092L730.469 255.352L720.578 261.767L709.384 244.492C708.315 242.721 707.647 240.783 707.413 238.745L702.1 208.906C701.966 207.335 702.234 205.865 702.902 204.495C703.604 203.125 704.573 202.056 705.876 201.221L757.735 167.639L764.15 177.53V177.43Z" fill="#EAEAEA"/>
<path d="M767.926 252.411C768.594 252.311 769.329 252.445 770.232 252.846L781.693 257.824C782.561 258.192 783.196 258.66 783.564 259.194C783.931 259.729 784.299 260.464 784.667 261.366L795.459 288.732C795.827 289.635 796.061 290.437 796.128 291.071C796.194 291.706 796.094 292.475 795.693 293.377L790.715 304.838C790.347 305.707 789.879 306.342 789.345 306.709C788.81 307.077 788.075 307.444 787.173 307.812L759.806 318.605C758.904 318.972 758.102 319.173 757.467 319.273C756.832 319.373 756.064 319.24 755.162 318.839L743.701 313.86C742.832 313.492 742.197 313.025 741.829 312.49C741.462 311.955 741.094 311.22 740.727 310.318L729.934 282.952C729.566 282.05 729.333 281.248 729.266 280.613C729.165 279.945 729.299 279.176 729.7 278.307L734.679 266.846C735.046 265.977 735.514 265.342 736.049 264.975C736.583 264.607 737.319 264.24 738.221 263.872L765.587 253.079C766.489 252.712 767.291 252.478 767.926 252.411ZM740.326 277.305L752.221 307.411C752.622 308.313 753.291 308.581 754.126 308.246L784.232 296.351C785.101 296.017 785.368 295.382 785.067 294.446L773.172 264.34C772.771 263.438 772.136 263.171 771.267 263.505L741.161 275.4C740.292 275.734 740.025 276.369 740.326 277.305Z" fill="#EAEAEA"/>
<path d="M785.736 337.885C785.502 338.219 785.435 338.586 785.502 338.987L790.915 369.394C791.082 370.363 791.149 371.165 791.115 371.834C791.082 372.502 790.781 373.204 790.247 374.006L783.096 384.23C782.561 384.999 781.993 385.533 781.459 385.767C780.924 386.035 780.089 386.235 779.02 386.436L773.239 387.472C772.27 387.639 771.468 387.705 770.8 387.672C770.131 387.639 769.43 387.338 768.628 386.803L758.403 379.653C757.634 379.118 757.1 378.55 756.832 377.915C756.565 377.28 756.365 376.512 756.164 375.543L748.412 332.104L760.007 330.032L767.993 374.908C768.16 375.81 768.728 376.211 769.697 376.111L778.385 374.574C779.287 374.407 779.688 373.839 779.588 372.869L774.174 342.463C774.007 341.494 773.941 340.692 773.974 340.023C774.007 339.355 774.308 338.653 774.843 337.851L781.993 327.627C782.728 326.557 784.098 325.822 786.07 325.388C787.64 325.121 789.111 325.221 790.514 325.755C791.917 326.29 793.087 327.192 794.056 328.429L810.529 353.89C811.765 355.528 812.601 357.399 813.002 359.437L816.611 379.719L805.016 381.791L797.03 336.916C796.963 336.481 796.762 336.181 796.428 335.947C796.094 335.713 795.727 335.646 795.326 335.713L786.638 337.25C786.204 337.317 785.903 337.517 785.669 337.851L785.736 337.885Z" fill="#EAEAEA"/>
</svg>
