<svg width="82" height="33" viewBox="0 0 82 33" fill="none" xmlns="http://www.w3.org/2000/svg">
<path d="M14.2617 20.9434V11.5853C14.2432 11.289 14.095 11.1408 13.8172 11.1408H0V7.57536H13.8125C14.0348 7.57536 14.1644 7.55684 14.2015 7.51979C14.2385 7.48275 14.257 7.3531 14.257 7.13084V4.00994C14.257 3.73211 14.1089 3.58394 13.8125 3.56542H0V0H13.368C13.6644 0 13.9098 0.0231521 14.1042 0.0694562C14.2987 0.11576 14.4978 0.240782 14.7016 0.44452L17.3733 3.11627C17.5771 3.32001 17.7021 3.51912 17.7484 3.71359C17.7947 3.90807 17.8178 4.15348 17.8178 4.44983V4.89435C17.8178 5.19069 17.7669 5.46389 17.665 5.71393C17.5632 5.96397 17.3177 6.28347 16.9288 6.67706L14.257 8.90429C14.1274 9.03394 14.0626 9.17285 14.0626 9.32102C14.0626 9.48772 14.1274 9.64515 14.257 9.79333L16.9288 12.0206C17.3177 12.4095 17.5632 12.729 17.665 12.9837C17.7669 13.2337 17.8178 13.5069 17.8178 13.8033V18.7069C17.8178 19.1699 17.7021 19.6005 17.4706 20.0034C17.239 20.4016 16.9103 20.7118 16.4796 20.9341L8.01062 24.4995C7.45497 24.7773 6.85764 24.9255 6.22791 24.944H0V21.3786H13.8125C14.1089 21.3601 14.257 21.2119 14.257 20.9341L14.2617 20.9434Z" fill="#FDFDFD"/>
<path d="M35.4963 7.20032C35.6908 7.24662 35.8899 7.37164 36.0936 7.57538L38.7654 10.2471C38.9691 10.4509 39.0941 10.65 39.1404 10.8445C39.1868 11.0389 39.2099 11.2843 39.2099 11.5807V18.7115C39.2099 19.1746 39.0941 19.6052 38.8626 20.008C38.6311 20.4063 38.3023 20.7165 37.8717 20.9388L29.4027 24.5042C28.847 24.782 28.2497 24.9302 27.62 24.9487H25.3928C25.0964 24.9672 24.9482 25.1154 24.9482 25.3932V32.0795H21.3828V7.13086H34.7508C35.0472 7.13086 35.2926 7.15401 35.4871 7.20032H35.4963ZM25.402 21.3925H35.2046C35.4824 21.3925 35.6306 21.2444 35.6491 20.948V11.1454C35.6491 10.8676 35.5009 10.7194 35.2046 10.7009H25.402C25.1057 10.7194 24.9575 10.8676 24.9575 11.1454V20.948C24.976 21.2444 25.1242 21.3925 25.402 21.3925Z" fill="#FDFDFD"/>
<path d="M46.3457 0V6.68632C46.3457 6.98266 46.4939 7.13084 46.7902 7.13084H60.6027V10.6963H46.7902C46.4939 10.6963 46.3457 10.8444 46.3457 11.1408V20.9434C46.3642 21.2397 46.5124 21.3879 46.7902 21.3879H60.6027V24.9533H54.3656C53.7358 24.9348 53.1385 24.7866 52.5829 24.5088L44.1138 20.9434C43.6878 20.7211 43.3591 20.4109 43.1276 20.0126C42.896 19.6144 42.7803 19.1838 42.7803 18.7161V0H46.3457Z" fill="#FDFDFD"/>
<path d="M67.8633 14.1362C67.9466 14.2195 68.0531 14.2612 68.1828 14.2612H77.5409C77.8372 14.2612 78.0826 14.2843 78.2771 14.3306C78.4716 14.377 78.6707 14.502 78.8744 14.7057L81.5462 17.3775C81.7499 17.5812 81.8749 17.771 81.9212 17.947C81.9675 18.123 81.9907 18.3776 81.9907 18.711V20.4937C81.9907 20.7901 81.9675 21.0355 81.9212 21.23C81.8749 21.4244 81.7499 21.6235 81.5462 21.8273L78.8744 24.499C78.6707 24.7028 78.4716 24.8278 78.2771 24.8741C78.0826 24.9204 77.8372 24.9436 77.5409 24.9436H64.1729V21.3781H77.9854C78.2632 21.3781 78.4114 21.23 78.4299 20.9336V18.2619C78.4299 17.984 78.2817 17.8359 77.9854 17.8173H68.6273C68.331 17.8173 68.0856 17.7942 67.8911 17.7479C67.6966 17.7016 67.4975 17.5766 67.2938 17.3728L64.622 14.7011C64.3442 14.4233 64.196 13.9787 64.1775 13.3629C64.1775 12.8813 64.2932 12.4414 64.5248 12.0525C64.7563 11.6635 65.085 11.3579 65.511 11.131L73.9801 7.56561C74.5357 7.28779 75.133 7.13962 75.7628 7.12109H81.9999V10.6865H68.1874C68.0578 10.6865 67.9513 10.7282 67.8679 10.8115C67.7846 10.8949 67.7429 11.0014 67.7429 11.131V13.8028C67.7429 13.9324 67.7846 14.0389 67.8679 14.1223L67.8633 14.1362Z" fill="#FDFDFD"/>
</svg>
