<svg width="134" height="30" viewBox="0 0 134 30" fill="none" xmlns="http://www.w3.org/2000/svg">
<path d="M13.0098 19.0477V10.5371C12.9911 10.2698 12.8539 10.1331 12.6044 10.1331H0V6.888H12.6044C12.8102 6.888 12.9287 6.86935 12.9599 6.83826C12.9911 6.80718 13.0098 6.68906 13.0098 6.48392V3.64915C13.0098 3.39426 12.8726 3.26372 12.6044 3.24507H0V0H12.199C12.4672 0 12.6917 0.0186498 12.8726 0.062166C13.0534 0.105682 13.2343 0.217581 13.4214 0.404079L15.86 2.83477C16.0471 3.02127 16.1593 3.20155 16.203 3.38183C16.2466 3.56211 16.2654 3.78591 16.2654 4.05322V4.4573C16.2654 4.72462 16.2217 4.97328 16.1282 5.2033C16.0346 5.43331 15.8101 5.71927 15.4546 6.07984L13.016 8.10645C12.8975 8.22456 12.8352 8.3489 12.8352 8.48566C12.8352 8.63486 12.8913 8.78406 13.016 8.91461L15.4546 10.9412C15.8101 11.2956 16.0346 11.5877 16.1282 11.8178C16.2217 12.0478 16.2654 12.2964 16.2654 12.5638V17.0211C16.2654 17.4438 16.1593 17.8354 15.9473 18.2022C15.7352 18.5628 15.4359 18.8487 15.043 19.0477L7.31567 22.2927C6.8105 22.5476 6.2679 22.6844 5.68789 22.6968H0V19.4517H12.6044C12.8726 19.4331 13.0098 19.3025 13.0098 19.0477Z" fill="#EAEAEA"/>
<path d="M32.3866 6.54605C32.5675 6.58957 32.7484 6.70147 32.9355 6.88797L35.374 9.31866C35.5611 9.50516 35.6734 9.68544 35.717 9.86572C35.7607 10.046 35.7794 10.2698 35.7794 10.5371V17.021C35.7794 17.4438 35.6734 17.8354 35.4613 18.2022C35.2493 18.569 34.9499 18.8487 34.557 19.0476L26.8297 22.2927C26.3245 22.5476 25.7819 22.6844 25.2019 22.6968H23.1688C22.8944 22.7154 22.7634 22.846 22.7634 23.1009V29.1807H19.5078V6.48389H31.7068C31.975 6.48389 32.1995 6.50254 32.3804 6.54605H32.3866ZM23.175 19.4517H32.1185C32.3742 19.4517 32.5051 19.315 32.5238 19.0476V10.133C32.5238 9.87815 32.3866 9.7476 32.1185 9.72895H23.175C22.9006 9.7476 22.7696 9.87815 22.7696 10.133V19.0476C22.7883 19.3212 22.9193 19.4517 23.175 19.4517Z" fill="#EAEAEA"/>
<path d="M39.0975 9.86572C39.1412 9.68544 39.2534 9.50516 39.4405 9.31866L41.8791 6.88797C42.0662 6.70147 42.2471 6.58957 42.4279 6.54605C42.6088 6.50254 42.8333 6.48389 43.1015 6.48389H51.2342C51.5024 6.48389 51.7269 6.50254 51.9077 6.54605C52.0886 6.58957 52.2695 6.70147 52.4566 6.88797L54.8951 9.31866C55.0822 9.50516 55.1945 9.68544 55.2381 9.86572C55.2818 10.046 55.3005 10.2698 55.3005 10.5371V18.6436C55.3005 18.9109 55.2756 19.1347 55.2381 19.315C55.1945 19.4952 55.0822 19.6755 54.8951 19.862L52.4566 22.2927C52.2695 22.4792 52.0886 22.5911 51.9077 22.6346C51.7269 22.6781 51.5024 22.6968 51.2342 22.6968H43.1015C42.8333 22.6968 42.6088 22.6781 42.4279 22.6346C42.2471 22.5911 42.0662 22.4792 41.8791 22.2927L39.4405 19.862C39.2534 19.6755 39.1412 19.4952 39.0975 19.315C39.0539 19.1347 39.0352 18.9109 39.0352 18.6436V10.5371C39.0352 10.2698 39.0539 10.046 39.0975 9.86572ZM42.6961 19.4517H51.6396C51.9077 19.4331 52.0449 19.3025 52.0449 19.0476V10.133C52.0449 9.87815 51.9077 9.7476 51.6396 9.72895H42.6961C42.4279 9.7476 42.2907 9.87815 42.2907 10.133V19.0476C42.2907 19.3025 42.4279 19.4393 42.6961 19.4517Z" fill="#EAEAEA"/>
<path d="M71.1552 9.72895H62.2117C61.9436 9.7476 61.8063 9.87815 61.8063 10.133V22.6968H58.5508V6.48389H70.7498C71.0242 6.48389 71.2425 6.50254 71.4234 6.54605C71.6042 6.58957 71.7851 6.70147 71.9722 6.88797L74.4108 9.31866C74.5979 9.50516 74.7101 9.68544 74.7538 9.86572C74.7974 10.046 74.8161 10.2698 74.8161 10.5371V22.6968H71.5606V10.133C71.5606 9.87815 71.4234 9.7476 71.1552 9.72895Z" fill="#EAEAEA"/>
<path d="M81.3204 0V6.07984C81.3204 6.34715 81.4576 6.48392 81.7258 6.48392H94.3302V9.72898H81.7258C81.4514 9.72898 81.3204 9.86575 81.3204 10.1331V19.0477C81.3391 19.3212 81.4701 19.4517 81.7258 19.4517H94.3302V22.6968H88.6361C88.0623 22.6782 87.5197 22.5476 87.0083 22.2927L79.281 19.0477C78.8943 18.8425 78.5887 18.5628 78.3767 18.2022C78.1646 17.8417 78.0586 17.4438 78.0586 17.0211V0H81.3142H81.3204Z" fill="#EAEAEA"/>
<path d="M97.6483 9.86572C97.692 9.68544 97.8042 9.50516 97.9913 9.31866L100.43 6.88797C100.617 6.70147 100.798 6.58957 100.979 6.54605C101.16 6.50254 101.384 6.48389 101.652 6.48389H109.785C110.053 6.48389 110.278 6.50254 110.459 6.54605C110.639 6.58957 110.82 6.70147 111.007 6.88797L113.446 9.31866C113.633 9.50516 113.745 9.68544 113.789 9.86572C113.833 10.046 113.851 10.2698 113.851 10.5371V18.6436C113.851 18.9109 113.826 19.1347 113.789 19.315C113.745 19.4952 113.633 19.6755 113.446 19.862L111.007 22.2927C110.82 22.4792 110.639 22.5911 110.459 22.6346C110.278 22.6781 110.053 22.6968 109.785 22.6968H101.652C101.384 22.6968 101.16 22.6781 100.979 22.6346C100.798 22.5911 100.617 22.4792 100.43 22.2927L97.9913 19.862C97.8042 19.6755 97.692 19.4952 97.6483 19.315C97.6047 19.1347 97.5859 18.9109 97.5859 18.6436V10.5371C97.5859 10.2698 97.6047 10.046 97.6483 9.86572ZM101.247 19.4517H110.19C110.459 19.4331 110.596 19.3025 110.596 19.0476V10.133C110.596 9.87815 110.459 9.7476 110.19 9.72895H101.247C100.979 9.7476 100.842 9.87815 100.842 10.133V19.0476C100.842 19.3025 100.979 19.4393 101.247 19.4517Z" fill="#EAEAEA"/>
<path d="M120.469 12.8559C120.544 12.9305 120.644 12.9678 120.763 12.9678H129.301C129.575 12.9678 129.793 12.9865 129.974 13.03C130.155 13.0735 130.336 13.1854 130.523 13.3719L132.962 15.8026C133.149 15.9891 133.261 16.1631 133.305 16.3248C133.348 16.4864 133.367 16.7164 133.367 17.021V18.6436C133.367 18.9109 133.348 19.1347 133.305 19.315C133.261 19.4952 133.149 19.6755 132.962 19.862L130.523 22.2927C130.336 22.4792 130.155 22.5911 129.974 22.6346C129.793 22.6781 129.575 22.6968 129.301 22.6968H117.102V19.4517H129.706C129.962 19.4517 130.093 19.315 130.111 19.0476V16.6169C130.111 16.3621 129.974 16.2315 129.706 16.2129H121.168C120.9 16.2129 120.675 16.1942 120.494 16.1507C120.313 16.1072 120.133 15.9953 119.946 15.8088L117.507 13.3781C117.251 13.1232 117.12 12.7191 117.102 12.1596C117.102 11.7183 117.208 11.3266 117.42 10.9661C117.632 10.6117 117.931 10.332 118.324 10.133L126.051 6.88797C126.556 6.63308 127.099 6.50254 127.679 6.48389H133.373V9.72895H120.769C120.65 9.72895 120.55 9.76625 120.476 9.84085C120.401 9.91545 120.363 10.0149 120.363 10.133V12.5637C120.363 12.6818 120.401 12.7813 120.476 12.8559H120.469Z" fill="#EAEAEA"/>
</svg>
