<svg width="977" height="636" viewBox="0 0 977 636" fill="none" xmlns="http://www.w3.org/2000/svg">
<path d="M556.267 128.481C537.802 133.428 521.31 133.678 496.305 134.063C484.931 134.24 472.049 134.428 456.365 135.096C446.956 135.502 437.184 137.486 427.318 141.036L426.932 139.931C436.91 136.35 446.787 134.308 456.324 133.928C472.044 133.281 484.918 133.065 496.292 132.888C539.141 132.224 556.891 131.939 602.641 107.595L603.189 108.626C583.907 118.869 569.566 124.887 556.259 128.453L556.267 128.481Z" fill="#2C2C2D"/>
<path d="M49.2799 365.487L48.2509 364.917C48.3541 364.738 58.6792 345.987 75.0835 325.004C90.2546 305.619 113.835 280.296 140.164 269.736C163.735 260.278 188.205 261.275 209.806 262.165C226.454 262.84 242.188 263.489 255.579 259.448C266.765 256.088 278.966 249.525 292.877 239.422L293.551 240.36C279.542 250.549 267.2 257.15 255.902 260.54C242.314 264.634 226.515 263.972 209.747 263.298C188.266 262.407 163.925 261.436 140.571 270.805C114.489 281.269 91.0471 306.434 75.9943 325.696C59.6312 346.609 49.3398 365.259 49.2442 365.466L49.2799 365.487Z" fill="#2C2C2D"/>
<path d="M63.8743 376.202L67.1968 368.755L68.8619 365.045L70.5908 361.349C71.7459 358.894 72.8935 356.411 74.0844 353.977L77.6853 346.667C82.5768 336.956 87.7749 327.375 93.4809 318.111L95.6594 314.627L96.7703 312.909L97.917 311.212L100.21 307.818C100.604 307.259 100.963 306.679 101.357 306.12L102.575 304.465L104.983 301.16C105.184 300.895 105.377 300.602 105.578 300.336L106.209 299.533L107.47 297.926C108.33 296.849 109.162 295.78 110.057 294.725L112.766 291.642L114.135 290.097C114.601 289.579 115.081 289.118 115.555 288.629L118.422 285.685C118.895 285.196 119.404 284.727 119.913 284.258L121.447 282.88C122.473 281.971 123.455 281.013 124.531 280.181L127.737 277.599C128.806 276.739 129.969 276.004 131.081 275.192L132.76 274.017C133.32 273.626 133.923 273.283 134.49 272.919C135.661 272.213 136.823 271.478 138.001 270.8L138.451 271.465C137.375 272.297 136.335 273.15 135.251 273.954C134.727 274.366 134.167 274.758 133.651 275.199L132.094 276.492L130.537 277.786C130.02 278.226 129.489 278.61 129.015 279.1L126.031 281.833C124.998 282.714 124.08 283.685 123.126 284.636L121.692 286.048C121.218 286.537 120.73 286.97 120.293 287.48L117.553 290.45C117.108 290.932 116.635 291.421 116.198 291.931L114.885 293.461L112.261 296.521C111.422 297.562 110.59 298.631 109.751 299.671L108.482 301.25L107.844 302.026C107.643 302.291 107.442 302.556 107.241 302.821L104.846 306.062C101.663 310.42 98.7016 314.93 95.7761 319.46L94.6934 321.17C94.335 321.75 93.9766 322.329 93.6464 322.901L91.5525 326.363L90.5055 328.094C90.1471 328.673 89.8169 329.245 89.4661 329.853L87.4436 333.356L85.4211 336.859L83.4702 340.403L81.5192 343.948L80.5437 345.72L79.5758 347.52C74.4266 357.058 69.5557 366.733 64.621 376.394L63.893 376.045L63.8743 376.202Z" fill="#2C2C2D"/>
<path d="M98.3021 401.058C99.4668 398.752 100.647 396.502 101.89 394.265C103.134 392.028 104.378 389.791 105.622 387.555C108.145 383.102 110.776 378.711 113.442 374.34C118.846 365.64 124.536 357.106 130.634 348.855C133.701 344.739 136.804 340.645 140.101 336.71C140.919 335.705 141.745 334.728 142.571 333.751C143.397 332.775 144.223 331.798 145.085 330.842L147.635 327.953L150.263 325.134C153.825 321.399 157.517 317.812 161.41 314.412C165.311 311.04 169.449 307.876 173.805 305.078C178.126 302.258 182.599 299.669 187.153 297.271C191.708 294.872 196.335 292.635 201.08 290.608C210.534 286.534 220.232 283.15 230.029 280.132C234.91 278.613 239.834 277.142 244.709 275.715C249.604 274.252 254.5 272.789 259.294 271.172C264.116 269.548 268.865 267.762 273.436 265.54C274.596 265.018 275.689 264.362 276.805 263.791C277.359 263.492 277.899 263.136 278.453 262.836C278.999 262.508 279.554 262.209 280.057 261.832L281.618 260.779C282.129 260.431 282.625 260.026 283.128 259.649L283.883 259.085C284.135 258.896 284.379 258.68 284.595 258.471L286.019 257.243L286.689 257.94L285.26 259.26C285.016 259.476 284.807 259.713 284.527 259.909L283.787 260.531C283.292 260.935 282.803 261.368 282.272 261.752L280.705 262.897C280.174 263.282 279.627 263.609 279.088 263.965C278.541 264.293 278.009 264.677 277.463 265.005C276.334 265.64 275.248 266.324 274.068 266.882C269.478 269.26 264.718 271.23 259.905 273.003C250.237 276.5 240.43 279.369 230.735 282.541C225.898 284.109 221.055 285.77 216.299 287.528C211.515 289.293 206.796 291.192 202.172 293.216C201.012 293.738 199.845 294.232 198.694 294.783L195.259 296.398C192.991 297.519 190.695 298.648 188.478 299.847C184.008 302.223 179.62 304.789 175.376 307.557C174.837 307.913 174.318 308.233 173.779 308.589L172.226 309.67L170.672 310.751C170.161 311.1 169.666 311.505 169.162 311.881L167.66 313.039L166.905 313.604C166.653 313.793 166.409 314.009 166.157 314.197L163.238 316.611C159.415 319.932 155.764 323.448 152.272 327.103C145.23 334.429 138.75 342.269 132.586 350.386C129.496 354.417 126.5 358.574 123.597 362.736C120.665 366.905 117.813 371.144 115.024 375.397C109.426 383.937 104.114 392.642 99.096 401.54L98.2533 401.102L98.3021 401.058Z" fill="#2C2C2D"/>
<path d="M32.9026 353.982L32.2491 353.009C56.912 336.46 73.9181 323.473 85.7487 312.145L86.5487 312.988C74.6694 324.36 57.6068 337.362 32.8951 353.954L32.9026 353.982Z" fill="#2C2C2D"/>
<path d="M142.111 432.287C155.498 423.835 168.71 415.068 181.748 406.105C188.278 401.606 194.728 397.038 201.128 392.392C207.528 387.746 213.876 383.023 220.095 378.154C223.219 375.716 226.307 373.257 229.359 370.777C230.895 369.52 232.411 368.298 233.911 367.019C235.42 365.769 236.948 364.483 238.413 363.184C244.372 358.022 250.166 352.693 255.572 347.045L259.541 342.688L261.529 340.523C262.182 339.804 262.792 339.037 263.438 338.289L267.221 333.801L270.81 329.153L271.711 328.005L272.162 327.431L272.577 326.837L274.256 324.423C275.369 322.825 276.546 321.241 277.552 319.581L279.096 317.113L279.882 315.875C280.137 315.474 280.421 315.066 280.633 314.616L283.492 309.499C287.142 302.599 290.2 295.404 292.823 288.054L293.775 285.291C294.099 284.358 294.431 283.454 294.691 282.508L296.451 276.899C297.52 273.108 298.625 269.337 299.622 265.504C301.661 257.888 303.528 250.197 305.423 242.497C306.356 238.652 307.346 234.791 308.4 230.943C309.426 227.103 310.544 223.268 311.725 219.447C314.061 211.811 316.815 204.274 320.012 196.921C320.428 195.994 320.816 195.074 321.24 194.175L322.504 191.45L323.867 188.758C324.319 187.851 324.807 186.965 325.267 186.086C327.189 182.55 329.248 179.067 331.464 175.724C333.708 172.373 336.139 169.153 338.792 166.086C340.104 164.556 341.46 163.074 342.887 161.634C343.569 160.908 344.322 160.223 345.039 159.517C345.756 158.811 346.517 158.154 347.27 157.469C353.268 152.115 360.01 147.619 367.15 144.044L367.792 145.201C364.415 147.255 361.174 149.483 358.064 151.857C354.961 154.26 352.016 156.801 349.224 159.574C348.535 160.272 347.838 160.942 347.185 161.661C346.531 162.38 345.842 163.078 345.196 163.826C343.89 165.264 342.634 166.778 341.434 168.278C340.852 169.038 340.242 169.806 339.668 170.595L337.945 172.96L336.301 175.395L334.721 177.842C330.598 184.446 327.162 191.47 324.148 198.714C321.126 205.929 318.653 213.39 316.344 220.898C315.204 224.648 314.135 228.439 313.13 232.244C312.125 236.048 311.184 239.866 310.222 243.719C308.291 251.398 306.396 259.097 304.352 266.805C303.355 270.638 302.237 274.473 301.119 278.307L299.325 284.015C299.036 284.969 298.684 285.909 298.368 286.871L297.375 289.705C294.684 297.254 291.446 304.679 287.629 311.745L284.623 316.992C284.383 317.449 284.1 317.857 283.824 318.294L283.017 319.567L281.403 322.115C280.356 323.846 279.151 325.438 277.989 327.078L276.233 329.543L275.79 330.145L275.311 330.727L274.389 331.91L270.674 336.653L266.758 341.207C266.112 341.954 265.474 342.729 264.8 343.484L262.755 345.664L258.638 350.03C253.014 355.767 247.072 361.106 240.985 366.242C234.898 371.378 228.63 376.29 222.268 381.077C215.906 385.864 209.471 390.489 202.957 395.044C196.442 399.6 189.854 403.994 183.231 408.367C176.607 412.74 169.889 416.988 163.156 421.179C156.423 425.37 149.632 429.456 142.761 433.472L142.09 432.323L142.111 432.287Z" fill="#2C2C2D"/>
<path d="M164.539 448.666C170.872 445.126 177.155 441.508 183.422 437.835C189.697 434.19 195.929 430.495 202.153 426.773C214.593 419.3 226.947 411.73 239.126 403.843C251.276 395.965 263.31 387.876 274.888 379.214C280.641 374.862 286.293 370.357 291.585 365.524C292.276 364.946 292.888 364.299 293.536 363.672L295.452 361.799L297.26 359.864L298.178 358.893C298.484 358.569 298.754 358.225 299.025 357.881L300.69 355.863L302.309 353.677C303.368 352.215 304.498 350.794 305.521 349.311C309.755 343.463 313.811 337.512 317.31 331.286C320.837 325.054 323.743 318.534 326.2 311.803C328.684 305.064 330.763 298.161 332.826 291.203L338.889 270.301C342.952 256.371 347.077 242.334 352.781 228.779C353.475 227.083 354.232 225.399 354.99 223.716L356.166 221.225L356.768 219.976L357.405 218.748C359.028 215.443 360.849 212.205 362.75 209.037L364.204 206.683L365.73 204.371C365.993 203.998 366.248 203.597 366.511 203.225L367.327 202.1C367.881 201.347 368.399 200.573 368.96 199.849C371.182 196.867 373.563 194.023 376.094 191.29L378.035 189.289C378.37 188.958 378.668 188.606 379.01 188.303L380.02 187.338C380.696 186.703 381.365 186.041 382.048 185.434L384.156 183.601C387.018 181.202 389.974 178.929 393.091 176.916C394.624 175.871 396.243 174.923 397.827 173.955C398.633 173.467 399.461 173.064 400.275 172.604L401.517 171.939L402.12 171.596L402.766 171.302C404.452 170.488 406.129 169.645 407.853 168.972L409.16 168.44C409.596 168.263 410.032 168.086 410.476 167.937L413.122 166.986C416.677 165.822 420.299 164.791 423.97 164.17L425.353 163.92L426.752 163.727C427.684 163.598 428.609 163.441 429.521 163.348L432.32 163.081C432.786 163.016 433.239 163.016 433.713 162.98L435.113 162.907C438.848 162.752 442.56 162.845 446.247 163.187C449.934 163.528 453.602 164.026 457.226 164.807C460.842 165.56 464.412 166.477 467.934 167.558C471.449 168.61 474.897 169.862 478.303 171.185C481.709 172.508 485.09 173.959 488.393 175.461C491.724 176.956 495.014 178.522 498.268 180.067C499.924 180.832 501.551 181.605 503.191 182.313C504.839 183.05 506.515 183.779 508.155 184.488C511.492 185.89 514.842 187.229 518.291 188.148C521.747 189.095 525.277 189.751 528.862 189.938C529.302 190.001 529.748 189.973 530.201 189.972L531.54 190.006L532.871 190.012L534.207 189.926L536.888 189.782L539.58 189.453C546.736 188.533 553.697 186.547 560.575 184.251L561.857 183.847L563.123 183.386L565.685 182.458C567.395 181.849 569.097 181.212 570.807 180.602L575.923 178.718C577.625 178.081 579.343 177.5 581.053 176.89C582.763 176.281 584.473 175.672 586.191 175.091L591.344 173.347C593.061 172.766 594.779 172.185 596.532 171.625L601.736 169.958C608.673 167.767 615.647 165.717 622.651 163.78C629.656 161.843 636.691 160.018 643.748 158.278L654.316 155.658C656.064 155.19 657.835 154.806 659.582 154.338L662.204 153.635L664.826 152.933C671.789 151.067 678.624 148.722 685.319 146.082C688.674 144.73 691.984 143.329 695.258 141.787C696.894 141.016 698.531 140.245 700.152 139.418C701.774 138.591 703.367 137.771 704.938 136.867L705.25 137.357C702.241 139.432 699.071 141.249 695.887 143.008C692.667 144.747 689.416 146.374 686.072 147.874C682.755 149.367 679.395 150.811 675.955 152.066C675.103 152.384 674.252 152.703 673.365 153.001C672.506 153.292 671.655 153.611 670.768 153.909C669.015 154.469 667.297 155.05 665.528 155.554L662.894 156.321L660.244 157.031C658.511 157.556 656.735 158.031 654.987 158.5L644.449 161.233C637.414 163.057 630.4 164.846 623.401 166.691C619.906 167.628 616.41 168.565 612.914 169.501C609.418 170.438 605.945 171.459 602.457 172.424C595.511 174.466 588.565 176.509 581.672 178.749C579.947 179.302 578.221 179.855 576.504 180.436L571.351 182.179L566.198 183.922L563.621 184.794L562.319 185.234L561.009 185.645C559.276 186.17 557.523 186.73 555.783 187.227C554.035 187.695 552.259 188.171 550.511 188.639L547.831 189.237C546.949 189.443 546.047 189.684 545.143 189.806L542.433 190.29C541.974 190.383 541.544 190.468 541.077 190.532L539.707 190.718L536.987 191.054L534.25 191.214L532.885 191.307L531.498 191.317L530.11 191.326C529.657 191.326 529.176 191.334 528.744 191.299L526 191.098C525.54 191.07 525.092 190.978 524.624 190.923L523.268 190.712C522.828 190.648 522.36 190.593 521.913 190.501L520.57 190.226C519.675 190.043 518.751 189.867 517.898 189.613C517.016 189.366 516.113 189.154 515.252 188.871L512.639 188.03C511.778 187.748 510.901 187.408 510.068 187.118L508.793 186.644L507.51 186.141C505.793 185.484 504.125 184.782 502.435 184.117C500.739 183.424 499.07 182.722 497.423 181.986C490.734 179.125 484.109 176.277 477.267 173.971C470.445 171.629 463.511 169.77 456.469 168.636C449.427 167.501 442.318 167.019 435.261 167.52C431.754 167.735 428.257 168.218 424.786 168.907C421.335 169.559 417.946 170.558 414.624 171.69L412.147 172.595C411.724 172.709 411.324 172.906 410.916 173.076L409.693 173.585C408.054 174.236 406.482 175.02 404.909 175.804L404.319 176.083L403.737 176.39L402.572 177.004C401.807 177.421 401.007 177.816 400.257 178.289C398.75 179.207 397.201 180.075 395.745 181.07C392.782 182.981 389.972 185.124 387.256 187.393L385.247 189.14C384.584 189.71 383.964 190.329 383.309 190.928L382.34 191.822C382.026 192.118 381.72 192.442 381.414 192.765L379.563 194.651C377.178 197.254 374.88 199.955 372.74 202.794C372.2 203.483 371.703 204.221 371.169 204.937L370.402 206.019C370.139 206.392 369.905 206.757 369.67 207.122L368.206 209.327L366.793 211.609C364.947 214.642 363.215 217.765 361.627 220.97L361.01 222.163L360.428 223.376L359.266 225.803C358.529 227.451 357.784 229.07 357.104 230.703C351.485 243.902 347.244 257.729 343.117 271.646L336.898 292.529C334.771 299.474 332.623 306.456 330.055 313.338C327.488 320.22 324.366 326.948 320.664 333.318C316.998 339.709 312.809 345.727 308.455 351.577C307.404 353.067 306.245 354.495 305.151 355.937L303.495 358.103L301.684 360.25C301.385 360.602 301.094 360.982 300.76 361.313L299.793 362.328L297.852 364.328L295.852 366.224C295.176 366.858 294.535 367.513 293.816 368.099C288.327 372.984 282.547 377.464 276.658 381.761C270.77 386.058 264.772 390.173 258.715 394.183C257.203 395.193 255.691 396.202 254.171 397.183L249.584 400.135C246.508 402.077 243.441 404.047 240.35 405.932C234.185 409.76 227.976 413.539 221.716 417.241C215.456 420.942 209.189 424.616 202.899 428.205C190.291 435.39 177.573 442.394 164.739 449.186L164.455 448.688L164.539 448.666Z" fill="#2C2C2D"/>
<path d="M186.068 464.169C209.6 449.827 233.175 435.533 256.663 421.142C268.386 413.921 280.152 406.75 291.816 399.425C303.481 392.099 315.203 384.879 326.389 376.896C337.554 368.949 348.239 360.225 357.4 350.095C359.679 347.551 361.887 344.965 363.972 342.261C366.03 339.564 367.993 336.742 369.792 333.873C373.404 328.071 376.68 322.026 379.891 315.969C386.327 303.79 392.548 291.487 399.49 279.505C402.964 273.528 406.61 267.626 410.514 261.897C414.417 256.167 418.579 250.611 423.148 245.337C427.726 240.092 432.69 235.166 438.167 230.798C438.517 230.523 438.838 230.256 439.187 229.981L440.25 229.213L442.369 227.648C443.083 227.154 443.833 226.682 444.546 226.188L445.653 225.469L446.192 225.113L446.767 224.777C448.289 223.916 449.788 222.971 451.368 222.215L453.705 221.015L456.065 219.899L457.245 219.341L458.44 218.84L460.859 217.829C461.682 217.518 462.505 217.207 463.3 216.903L464.538 216.45C464.953 216.309 465.369 216.167 465.784 216.026L468.283 215.205L470.806 214.469L472.074 214.129L473.343 213.789C474.189 213.562 475.034 213.336 475.888 213.137C479.301 212.343 482.723 211.698 486.148 211.173C489.581 210.677 493.051 210.321 496.515 210.057C503.452 209.558 510.389 209.513 517.293 209.566C520.748 209.607 524.175 209.656 527.608 209.612C531.041 209.569 534.431 209.476 537.788 209.151C538.643 209.073 539.455 208.946 540.303 208.839C541.143 208.705 541.948 208.55 542.752 208.395L543.964 208.07L544.572 207.968L545.164 207.809L546.332 207.435L547.514 206.998C550.673 205.819 553.772 204.415 556.804 202.877C562.898 199.794 568.778 196.254 574.686 192.707C580.595 189.16 586.488 185.557 592.49 182.135C598.493 178.714 604.597 175.447 610.877 172.495C614.016 171.019 617.171 169.6 620.392 168.314C623.605 167 626.849 165.798 630.143 164.674C631.784 164.143 633.445 163.577 635.101 163.104C635.947 162.877 636.749 162.601 637.595 162.375L640.104 161.703C640.949 161.476 641.767 161.257 642.613 161.03L645.137 160.414L647.661 159.799L650.2 159.239C656.965 157.759 663.784 156.596 670.635 155.667C677.479 154.709 684.32 153.964 691.136 153.014C697.952 152.064 704.722 150.945 711.451 149.444C718.159 147.979 724.804 146.168 731.389 144.132L731.601 144.921C725.067 147.035 718.451 148.958 711.717 150.551C704.983 152.144 698.179 153.363 691.35 154.377C684.529 155.419 677.682 156.256 670.889 157.291C664.089 158.297 657.328 159.565 650.627 161.058L648.116 161.61L645.635 162.275L643.132 162.855C642.314 163.074 641.461 163.273 640.651 163.52L638.17 164.185C637.36 164.432 636.53 164.715 635.72 164.962C634.071 165.464 632.467 166.015 630.826 166.545C627.596 167.683 624.38 168.877 621.231 170.204C618.074 171.503 614.947 172.915 611.843 174.411C605.656 177.369 599.644 180.642 593.685 184.112C587.746 187.546 581.889 191.17 576.023 194.766C570.13 198.37 564.229 201.945 558.038 205.115C554.929 206.703 551.753 208.158 548.461 209.403L547.223 209.856L545.941 210.26L545.293 210.433L544.644 210.607L543.347 210.955C542.479 211.097 541.59 211.274 540.722 211.416C539.846 211.53 538.977 211.672 538.094 211.758C534.595 212.121 531.121 212.236 527.66 212.287C524.199 212.339 520.744 212.298 517.296 212.285C510.42 212.224 503.555 212.311 496.767 212.8C493.358 213.049 489.988 213.438 486.612 213.92C483.244 214.429 479.913 215.08 476.585 215.851C475.767 216.07 474.949 216.289 474.132 216.508L472.891 216.841L471.651 217.173L469.213 217.887L466.799 218.685C466.383 218.826 465.996 218.96 465.581 219.102L464.399 219.539C463.604 219.843 462.809 220.146 462.014 220.45L459.68 221.438L458.514 221.932L457.362 222.482L455.051 223.555L452.798 224.732C451.274 225.473 449.852 226.368 448.358 227.221L447.812 227.549L447.273 227.905L446.222 228.609C445.529 229.067 444.808 229.532 444.122 230.018L442.081 231.532L441.046 232.293C440.717 232.532 440.375 232.835 440.046 233.074C434.744 237.305 429.862 242.088 425.375 247.218C420.888 252.349 416.796 257.826 412.905 263.492C409.043 269.15 405.438 274.98 401.977 280.893C395.061 292.747 388.797 305.001 382.333 317.188C379.073 323.289 375.769 329.341 372.067 335.258C370.198 338.206 368.186 341.072 366.08 343.811C363.953 346.587 361.697 349.216 359.368 351.804C349.969 362.057 339.079 370.807 327.794 378.756C316.48 386.713 304.678 393.863 292.971 401.14C287.113 404.764 281.22 408.367 275.347 411.935C269.446 415.511 263.538 419.058 257.63 422.605L222.121 443.783C210.289 450.82 198.421 457.838 186.554 464.855L186.124 464.154L186.068 464.169Z" fill="#2C2C2D"/>
<path d="M209.246 480.983C231.96 466.407 254.674 451.83 277.337 437.176L311.324 415.168L328.27 404.101L332.514 401.332L336.714 398.514L345.115 392.879C346.529 391.956 347.893 390.956 349.264 389.985L353.378 387.07L357.492 384.154L359.549 382.697L361.591 381.183L369.716 375.198L371.766 373.713L373.772 372.178L377.784 369.109C383.167 365.068 388.441 360.845 393.73 356.678C398.968 352.434 404.214 348.218 409.402 343.897C419.827 335.333 430.088 326.601 440.534 318.001C450.96 309.436 461.572 301.003 472.575 293.129C475.346 291.178 478.073 289.178 480.938 287.353L485.174 284.556L487.31 283.168C488.032 282.703 488.768 282.294 489.489 281.829C492.405 280.081 495.285 278.312 498.223 276.648L502.635 274.167L507.054 271.714C518.873 265.193 530.86 258.96 542.534 252.236C548.375 248.888 554.15 245.407 559.78 241.723C565.41 238.039 570.916 234.116 576.098 229.887C581.308 225.651 586.279 221.086 591.293 216.57C596.3 212.026 601.314 207.509 606.443 203.083C616.709 194.259 627.528 185.922 639.326 178.984L643.794 176.487L644.923 175.852L646.067 175.274L648.363 174.145C651.409 172.543 654.609 171.293 657.751 169.937C664.115 167.416 670.629 165.339 677.225 163.571C683.83 161.832 690.504 160.466 697.226 159.39C703.94 158.286 710.681 157.507 717.423 156.849C724.174 156.218 730.883 155.66 737.569 155.016C744.241 154.316 750.946 153.517 757.407 151.695L757.536 152.174C754.428 153.43 751.144 154.37 747.823 155.169C744.53 155.961 741.192 156.583 737.839 157.15C734.486 157.716 731.145 158.218 727.798 158.692L717.79 160.135C711.123 161.075 704.486 162.128 697.902 163.379C694.62 163.986 691.34 164.714 688.089 165.434C684.845 166.183 681.595 167.023 678.389 167.912C675.19 168.83 671.999 169.776 668.846 170.862C665.677 171.893 662.546 173.064 659.459 174.284C656.43 175.609 653.335 176.801 650.395 178.344L648.147 179.43L647.024 179.973L645.915 180.572L641.538 182.953C640.794 183.334 640.101 183.792 639.364 184.2L637.226 185.468L635.06 186.744C634.359 187.173 633.638 187.638 632.945 188.096L628.714 190.801L624.578 193.631C623.191 194.547 621.835 195.575 620.492 196.539C619.121 197.511 617.75 198.483 616.422 199.503L612.395 202.516L608.418 205.606C603.129 209.773 597.927 214.037 592.739 218.358C590.149 220.533 587.552 222.679 584.954 224.825C582.329 226.979 579.731 229.125 577.047 231.174C566.269 239.44 554.648 246.361 543.019 253.254L508.115 273.756L499.401 278.901C498.665 279.31 497.972 279.768 497.243 280.205L495.092 281.536L490.782 284.172C490.053 284.609 489.352 285.038 488.631 285.503L486.523 286.884L482.308 289.645C479.464 291.434 476.764 293.427 473.986 295.35C452.054 310.925 431.709 328.705 410.786 345.793C405.591 350.085 400.289 354.316 395.043 358.532C389.718 362.678 384.444 366.901 379.032 370.95L374.985 373.998L372.979 375.533L370.929 377.019L362.732 382.962L360.683 384.448L358.59 385.885L354.44 388.779L350.291 391.674C348.92 392.645 347.52 393.625 346.106 394.548L337.662 400.134L333.426 402.931L329.175 405.671L312.142 416.641C300.767 423.919 289.392 431.197 277.995 438.39L243.746 459.986L226.596 470.745L209.403 481.455L209.141 481.042L209.246 480.983Z" fill="#2C2C2D"/>
<path d="M232.721 497.777C244.432 490.741 256.086 483.6 267.716 476.374C279.311 469.128 290.855 461.804 302.297 454.327L310.846 448.682L319.337 442.933C324.935 439.015 330.568 435.119 335.906 430.909L337.933 429.339L339.916 427.719L343.883 424.481L351.766 417.927L367.523 404.791C378.052 396.048 388.553 387.312 399.125 378.618C404.425 374.267 409.748 370 415.135 365.747C417.832 363.634 420.537 361.55 423.262 359.429L427.387 356.33L429.449 354.78L431.519 353.259C437.044 349.18 442.764 345.381 448.57 341.68L449.649 340.968L450.742 340.312L452.95 338.966L457.336 336.279C458.822 335.398 460.316 334.545 461.781 333.699L466.234 331.146C478.213 324.431 490.471 318.306 502.751 312.266C515.032 306.226 527.35 300.327 539.478 294.056C551.57 287.764 563.485 281.036 574.675 273.294C580.281 269.405 585.748 265.341 591.158 261.172C596.567 257.004 601.926 252.758 607.249 248.491C617.915 239.923 628.503 231.284 639.335 222.883C650.167 214.481 661.207 206.295 672.879 198.998C678.737 195.374 684.732 191.925 691.026 189.03C691.806 188.67 692.614 188.302 693.394 187.942L695.784 186.939L700.536 184.94L705.354 183.075L707.767 182.157C708.562 181.853 709.393 181.57 710.195 181.295L715.059 179.599C716.692 179.04 718.304 178.518 719.945 177.987C723.19 176.906 726.494 175.93 729.755 174.906C736.342 172.989 742.952 171.158 749.607 169.496C756.262 167.833 762.912 166.263 769.62 164.798C772.956 164.055 776.3 163.34 779.651 162.654C782.987 161.911 786.353 161.281 789.588 160.384L789.946 161.497C786.637 162.565 783.316 163.364 780.002 164.191L770.062 166.674C763.442 168.357 756.831 170.068 750.249 171.892C748.614 172.33 746.951 172.776 745.331 173.27L740.42 174.677C738.785 175.115 737.152 175.673 735.524 176.14C733.904 176.634 732.248 177.108 730.644 177.659C727.391 178.712 724.151 179.701 720.92 180.838C719.315 181.389 717.703 181.912 716.077 182.499L711.293 184.264C710.498 184.567 709.696 184.843 708.901 185.147L706.524 186.086L701.769 187.964L697.081 189.975L694.747 190.963C693.96 191.295 693.216 191.676 692.464 192.028C689.402 193.453 686.413 195.04 683.467 196.675C682.001 197.521 680.528 198.339 679.07 199.213C677.613 200.087 676.147 200.933 674.733 201.856C668.96 205.457 663.332 209.262 657.77 213.199C652.208 217.137 646.704 221.18 641.279 225.293C630.402 233.525 619.685 242.017 608.896 250.467C603.494 254.664 598.1 258.889 592.647 263.009C587.166 267.137 581.678 271.236 576.009 275.112C564.678 282.892 552.714 289.663 540.624 296.075C528.498 302.467 516.217 308.507 504.023 314.645C491.793 320.762 479.665 327.033 467.799 333.718L458.958 338.836L454.592 341.487L452.413 342.826L451.319 343.482L450.234 344.165C444.511 347.844 438.804 351.579 433.286 355.565C422.169 363.469 411.299 371.73 400.531 380.144C389.756 388.531 379.133 397.148 368.56 405.843L352.716 418.881L344.79 425.386L340.795 428.632L338.812 430.251L336.785 431.821C331.363 436.054 325.722 439.923 320.088 443.819L311.562 449.548L302.984 455.201C291.514 462.685 279.955 469.952 268.332 477.206C256.737 484.452 245.084 491.594 233.359 498.693L232.762 497.705L232.721 497.777Z" fill="#2C2C2D"/>
<path d="M256.975 515.451C263.013 512.05 269.021 508.537 274.958 504.982C280.923 501.42 286.844 497.809 292.722 494.149C304.499 486.794 316.167 479.256 327.647 471.466C339.126 463.677 350.438 455.6 361.266 446.958C366.694 442.633 371.949 438.113 377.204 433.592C382.451 429.044 387.662 424.475 392.866 419.878L424.126 392.315C434.57 383.141 445.101 374.065 455.847 365.233C457.181 364.12 458.55 363.028 459.891 361.944C461.26 360.852 462.594 359.739 463.971 358.675L468.058 355.435C469.427 354.343 470.811 353.307 472.188 352.243C477.703 348.016 483.289 343.83 489.02 339.847C490.44 338.832 491.868 337.845 493.331 336.879C494.759 335.892 496.215 334.897 497.685 333.959C499.156 333.021 500.612 332.027 502.091 331.117L506.547 328.352L511.054 325.664C512.568 324.775 514.097 323.942 515.655 323.101C518.742 321.428 521.887 319.86 525.055 318.377C528.187 316.873 531.348 315.362 534.538 313.963L539.316 311.836C540.904 311.109 542.515 310.466 544.117 309.794L548.918 307.753C550.521 307.081 552.132 306.439 553.742 305.795L558.566 303.838L563.433 301.93C566.654 300.644 569.918 299.407 573.154 298.177L582.889 294.481C589.382 291.986 595.861 289.554 602.295 286.954L607.119 284.997L609.517 284.022L611.907 283.019L616.68 280.985C618.275 280.285 619.835 279.565 621.43 278.866C627.775 276.048 633.961 272.97 640.08 269.759C641.617 268.955 643.103 268.073 644.632 267.24L646.891 265.971L648.02 265.336C648.384 265.117 648.749 264.899 649.141 264.672L653.556 261.979L655.764 260.632L657.956 259.229C663.811 255.484 669.595 251.698 675.4 247.877L692.743 236.371C698.54 232.521 704.316 228.708 710.208 224.984C721.926 217.523 733.971 210.489 746.294 204.044L750.94 201.651C752.477 200.846 754.057 200.09 755.602 199.314C758.719 197.754 761.843 196.221 764.947 194.725C771.212 191.717 777.491 188.765 783.865 185.94C790.203 183.093 796.599 180.352 803.026 177.724C806.239 176.409 809.46 175.123 812.716 173.858C815.945 172.6 819.209 171.363 822.496 170.21L822.695 170.731C816.261 173.331 809.886 176.037 803.54 178.855C797.195 181.673 790.893 184.54 784.613 187.492C778.334 190.443 772.105 193.472 765.892 196.557C762.803 198.11 759.686 199.67 756.612 201.279C755.075 202.084 753.53 202.861 751.994 203.665L747.39 206.107C745.854 206.912 744.36 207.765 742.823 208.57C741.294 209.403 739.793 210.228 738.271 211.089L733.754 213.628L729.253 216.224C723.273 219.73 717.38 223.334 711.509 227.022C705.646 230.738 699.819 234.475 694.006 238.269L676.534 249.628C670.686 253.4 664.859 257.137 658.96 260.833L656.76 262.208L654.524 263.563L650.046 266.243C649.296 266.716 648.531 267.132 647.795 267.541L645.508 268.819C643.979 269.651 642.465 270.541 640.928 271.345C634.752 274.571 628.518 277.692 622.18 280.538C620.592 281.266 619.005 281.993 617.438 282.685L612.644 284.755L610.262 285.787L607.871 286.79L603.063 288.803L593.431 292.774L583.791 296.717L574.166 300.716C570.96 302.058 567.755 303.4 564.585 304.764C551.841 310.203 539.244 315.965 526.896 322.204C523.772 323.737 520.754 325.331 517.76 327.009L515.537 328.3C514.808 328.737 514.036 329.125 513.314 329.59L508.892 332.256L504.521 334.998C503.07 335.901 501.643 336.887 500.2 337.818C498.757 338.748 497.322 339.707 495.894 340.694C494.459 341.653 493.024 342.611 491.632 343.619C480.296 351.491 469.193 359.784 458.227 368.251C447.262 376.719 436.449 385.417 425.73 394.242C420.389 398.664 415.055 403.115 409.764 407.615C404.474 412.114 399.183 416.614 393.928 421.134C388.674 425.654 383.39 430.182 378.1 434.682C372.802 439.153 367.483 443.66 362.004 447.908L357.874 451.099C356.497 452.163 355.077 453.178 353.692 454.214C352.308 455.25 350.924 456.286 349.504 457.301L345.272 460.338L343.138 461.846L340.996 463.327L336.721 466.315C333.866 468.289 330.975 470.242 328.112 472.188C316.589 479.928 304.871 487.389 293.05 494.696C287.144 498.363 281.222 501.974 275.257 505.536C269.293 509.099 263.32 512.633 257.29 516.062L257.013 515.592L256.975 515.451Z" fill="#2C2C2D"/>
<path d="M282.568 533.944C294.695 526.766 306.748 519.428 318.715 511.991C330.674 504.526 342.539 496.935 354.331 489.183C377.85 473.665 401.027 457.545 422.627 439.49C444.342 421.524 465.141 402.506 486.428 383.96C491.781 379.353 497.09 374.698 502.501 370.196C505.217 367.928 507.897 365.638 510.656 363.418C513.415 361.198 516.131 358.93 518.898 356.738C529.949 347.915 541.304 339.434 553.187 331.687L557.67 328.794L562.261 326.083L566.853 323.372L571.561 320.872C573.126 320.06 574.712 319.212 576.277 318.4L581.102 316.11L583.518 314.979C584.326 314.611 585.127 314.216 585.942 313.876L590.82 311.784C594.06 310.342 597.388 309.117 600.701 307.837L603.162 306.875L605.667 305.962L610.657 304.172C613.992 302.976 617.33 301.901 620.673 300.733L630.704 297.35C637.385 295.107 644.051 292.807 650.673 290.458L655.627 288.648C657.273 288.025 658.934 287.459 660.573 286.809L665.496 284.885L667.958 283.923C668.781 283.612 669.596 283.273 670.412 282.934C683.477 277.68 696.211 271.639 708.66 265.101C721.153 258.611 733.214 251.3 745.341 244.123L781.691 222.478L818.006 200.813L854.305 179.091L854.59 179.588L818.29 201.31L782.034 223.081L745.785 244.88L736.73 250.328L732.202 253.052C730.696 253.969 729.189 254.887 727.667 255.748L718.518 261.07L716.218 262.411L713.896 263.668L709.252 266.181C696.812 272.868 684.073 279.001 671.017 284.403C670.209 284.771 669.386 285.082 668.571 285.421L666.116 286.411L661.208 288.391C659.577 289.07 657.923 289.664 656.277 290.286L651.311 292.161C648.018 293.406 644.683 294.601 641.383 295.818L631.433 299.391C618.175 304.152 604.947 309.026 592.189 314.861L587.433 317.072C586.625 317.44 585.853 317.828 585.088 318.245L582.751 319.445L578.069 321.818C576.539 322.65 575.018 323.511 573.496 324.372L568.923 326.927L564.459 329.664L559.996 332.401L555.641 335.32L551.251 338.219C550.502 338.692 549.795 339.213 549.082 339.707L546.948 341.215L542.659 344.268L540.525 345.776L538.407 347.341C535.589 349.456 532.756 351.514 529.975 353.649L521.637 360.083C510.576 368.758 499.675 377.691 488.846 386.666C478.024 395.67 467.232 404.786 456.461 413.866C445.69 422.946 434.891 432.034 423.918 440.926L419.798 444.266L415.626 447.529L411.454 450.792L410.406 451.617L409.351 452.414L407.239 454.007C401.62 458.292 395.883 462.367 390.118 466.45L381.434 472.494L372.656 478.411L370.458 479.907L368.252 481.374L363.834 484.28L359.416 487.186L354.99 490.064C343.148 497.739 331.232 505.253 319.222 512.641C307.219 520.057 295.15 527.339 282.98 534.468L282.696 533.97L282.568 533.944Z" fill="#2C2C2D"/>
<path d="M309.763 553.457C321.912 545.911 333.99 538.324 346.088 530.701C358.15 523.057 370.197 515.357 382.209 507.637C394.221 499.916 406.217 492.139 418.17 484.313L436.075 472.536C442.033 468.613 447.984 464.661 453.834 460.556C465.497 452.325 476.87 443.687 488.035 434.834C499.219 425.945 510.188 416.812 521.156 407.679C532.124 398.546 543.07 389.328 554.204 380.362C565.331 371.368 576.674 362.618 588.429 354.392C594.322 350.335 600.329 346.369 606.476 342.698C608.011 341.773 609.546 340.848 611.124 339.972L613.459 338.651L614.637 337.973L615.823 337.323C617.409 336.475 618.987 335.599 620.58 334.779L625.367 332.348C638.136 325.875 651.103 319.802 664.107 313.87C690.101 301.95 716.237 290.444 741.594 277.275C754.276 270.704 766.74 263.769 778.998 256.405L788.136 250.814L797.23 245.175L815.439 233.86L888.234 188.55L888.831 189.539L815.986 234.771L797.784 246.114L788.697 251.782L779.559 257.373C767.309 264.764 754.839 271.792 742.172 278.419C729.513 285.074 716.612 291.281 703.681 297.374C690.742 303.44 677.73 309.343 664.799 315.437C651.868 321.53 639.054 327.835 626.466 334.531C613.769 341.046 601.806 348.723 590.163 356.919C578.528 365.143 567.234 373.849 556.085 382.759C544.936 391.668 533.881 400.704 522.798 409.747C517.267 414.25 511.707 418.762 506.133 423.217C500.566 427.7 494.955 432.134 489.294 436.491C478.023 445.282 466.535 453.829 454.764 461.999C448.879 466.084 442.928 470.035 436.934 473.938L418.978 485.638C406.982 493.415 394.97 501.135 382.923 508.835C370.868 516.507 358.806 524.15 346.708 531.773C334.609 539.396 322.504 546.991 310.383 554.529L309.786 553.541L309.763 553.457Z" fill="#2C2C2D"/>
<path d="M337.972 574.39L337.347 573.41C338.405 572.733 444.335 506.188 515.737 458.049C540.742 441.197 564.123 424.598 586.72 408.572C629.879 377.942 670.659 349.037 717.877 321.489C782.138 284.026 856.491 240.022 920.927 197.798L921.552 198.779C857.088 241.01 782.707 285.022 718.453 322.513C671.285 350.017 630.512 378.951 587.374 409.545C564.748 425.579 541.367 442.177 516.363 459.03C444.933 507.176 339.002 573.722 337.944 574.398L337.972 574.39Z" fill="#2C2C2D"/>
<path d="M568.179 162.785C566.234 163.306 564.309 163.792 562.398 164.213C519.66 173.973 466.904 162.698 466.364 162.601L466.608 161.478C467.119 161.583 519.654 172.826 562.131 163.106C604.636 153.379 653.596 122.524 654.087 122.211L654.712 123.192C654.25 123.497 609.43 151.762 568.215 162.806L568.179 162.785Z" fill="#2C2C2D"/>
<path d="M579.715 173.14C579.292 173.253 578.87 173.366 578.475 173.472C548.816 181.298 525.974 181.98 512.042 181.181C496.913 180.31 488.668 177.503 488.604 177.49L488.975 176.394C488.975 176.394 497.184 179.179 512.186 180.024C526.026 180.818 548.718 180.146 578.173 172.344C640.218 155.931 678.2 129.437 678.585 129.183L679.26 130.12C678.875 130.375 641.257 156.65 579.715 173.14Z" fill="#2C2C2D"/>
<path d="M571.927 141.023C569.22 141.748 566.499 142.417 563.755 143.001C544.865 147.156 525.178 148.443 501.813 147.059C461.441 144.673 443.914 147.375 443.774 147.413L443.584 146.255C443.753 146.209 461.371 143.513 501.892 145.89C535.023 147.86 579.197 146.055 627.177 114.586L627.802 115.567C609.687 127.461 591.322 135.826 571.898 141.031L571.927 141.023Z" fill="#2C2C2D"/>
<path d="M533.583 121.626C523.97 124.202 513.983 126.062 503.701 127.156C474.452 130.31 445.122 135.872 444.833 135.919L444.615 134.769C444.897 134.693 474.29 129.144 503.568 125.983C531.319 122.988 556.77 114.567 579.203 100.972L579.8 101.961C565.56 110.611 550.095 117.172 533.575 121.598L533.583 121.626Z" fill="#2C2C2D"/>
<path d="M470.239 131.618L469.881 130.506C529.626 112.049 557.184 95.0269 557.471 94.8592L558.097 95.8398C557.809 96.0075 530.147 113.089 470.239 131.618Z" fill="#2C2C2D"/>
<path d="M537.099 89.9267L536.577 88.8823L444.505 134.848L445.026 135.893L537.099 89.9267Z" fill="#2C2C2D"/>
<path d="M192.469 262.761L192.167 261.633C192.364 261.58 214.565 255.239 237.9 243.88C261.29 232.506 305.56 208.165 305.981 207.931L306.557 208.955C306.108 209.197 261.811 233.545 238.42 244.919C214.98 256.336 192.723 262.693 192.497 262.753L192.469 262.761Z" fill="#2C2C2D"/>
<path d="M236.268 258.762C224.596 261.889 214.719 263.478 214.542 263.495L214.353 262.337C214.606 262.269 240.222 258.185 257.524 250.135C276.385 241.365 297.04 228.125 297.243 227.98L297.868 228.961C297.665 229.106 276.962 242.389 258.016 251.182C251.357 254.295 243.449 256.807 236.26 258.733L236.268 258.762Z" fill="#2C2C2D"/>
</svg>
